<svg id="Iconos_Trazados" data-name="Iconos Trazados" xmlns="http://www.w3.org/2000/svg" viewBox="0 0 24.00706 24.00706">
  <defs>
    <style>
      .cls-1 {
        fill: #454344;
      }

      .cls-2 {
        fill: #e03f52;
      }
    </style>
  </defs>
  <title>iconos_palmaactiva-def</title>
  <g>
    <g>
      <path class="cls-1" d="M9.34586,16.89036H5.488a.3751.3751,0,0,0-.375.375V22.449a.375.375,0,0,0,.75,0V17.64036H9.34586a.375.375,0,0,0,0-.75Z"/>
      <path class="cls-1" d="M20.62028,9.73216H16.76285a.3751.3751,0,0,0-.375.375V22.449a.375.375,0,0,0,.75,0V10.48216h3.48242a.375.375,0,0,0,0-.75Z"/>
    </g>
    <g>
      <path class="cls-2" d="M14.97867,13.31126H11.12125a.3751.3751,0,0,0-.375.375V22.449a.375.375,0,0,0,.75,0v-8.3877h3.48242a.375.375,0,0,0,0-.75Z"/>
      <path class="cls-2" d="M19.50407,2.29368a.36706.36706,0,0,0-.01813-.18243.3554.3554,0,0,0-.01807-.04108.36843.36843,0,0,0-.10852-.138c-.0047-.0036-.00568-.01007-.01056-.01349L19.344,1.91715a.37291.37291,0,0,0-.14264-.059l-3.72461-.66895a.37507.37507,0,1,0-.13281.73828l2.80017.50293L12.46793,6.16673V3.51927a.37488.37488,0,0,0-.59766-.30176L3.16373,9.656A.3753.3753,0,0,0,3.61,10.2595l8.10791-5.99609V6.862a.37523.37523,0,0,0,.58105.31348l6.26367-4.123-.62109,2.73535a.37455.37455,0,1,0,.73047.166l.82813-3.64355-.00061-.00885Z"/>
    </g>
  </g>
</svg>
