<svg id="Iconos_Trazados" data-name="Iconos Trazados" xmlns="http://www.w3.org/2000/svg" viewBox="0 0 24.00706 24.00706">
  <defs>
    <style>
      .cls-1 {
        fill: #444343;
      }

      .cls-2 {
        fill: #e03e52;
      }
    </style>
  </defs>
  <title>iconos_palmaactiva-def</title>
  <g>
    <g>
      <path class="cls-1" d="M6.21512,14.92773a.375.375,0,0,0,.26563-.63965,3.15918,3.15918,0,1,1,4.46582-.001.37565.37565,0,0,0,.53125.53125,3.9082,3.9082,0,1,0-5.52832-.001A.37583.37583,0,0,0,6.21512,14.92773Z"/>
      <path class="cls-1" d="M8.71415,15.86328A6.62735,6.62735,0,0,0,2.094,22.48242a.375.375,0,0,0,.75,0,5.86963,5.86963,0,0,1,11.73926,0,.375.375,0,1,0,.75,0A6.62714,6.62714,0,0,0,8.71415,15.86328Z"/>
    </g>
    <g>
      <path class="cls-2" d="M14.72975,8.82617a4.32808,4.32808,0,0,0,2.82424,1.041c.14355,0,.28809-.00781.43262-.02148a4.35926,4.35926,0,0,0-.76172-8.68457,4.34639,4.34639,0,0,0-4.00391,3.874,3.82693,3.82693,0,0,0,.15527,1.62891L12.28348,8.84766a.37489.37489,0,0,0,.42871.53125l1.50391-.38867ZM14.04618,7a.66914.66914,0,0,0,.043-.48633,3.60494,3.60494,0,0,1-.12207-1.39844,3.609,3.609,0,0,1,7.18359.69824,3.639,3.639,0,0,1-3.23633,3.28613,3.59083,3.59083,0,0,1-2.69727-.84375.6738.6738,0,0,0-.60449-.14258l-1.29.333Z"/>
      <path class="cls-2" d="M15.0784,16.31641a.37783.37783,0,0,0,0-.53125,2.04492,2.04492,0,1,1,2.89063,0,.37565.37565,0,0,0,.53125.53125,2.79492,2.79492,0,1,0-3.95313,0A.376.376,0,0,0,15.0784,16.31641Z"/>
      <path class="cls-2" d="M16.52372,16.93652a4.60181,4.60181,0,0,0-2.11914.50977.37517.37517,0,0,0,.3418.668,3.84848,3.84848,0,0,1,1.77734-.42773,3.90727,3.90727,0,0,1,3.90234,3.90234.375.375,0,1,0,.75,0A4.65746,4.65746,0,0,0,16.52372,16.93652Z"/>
      <path class="cls-2" d="M16.42429,6.92651a.23965.23965,0,1,0,0,.47931h2.23517a.23965.23965,0,1,0,0-.47931h-.818V4.35529a.19126.19126,0,0,0-.19128-.19122H16.42429a.23966.23966,0,0,0-.23969.23962V4.4068a.23966.23966,0,0,0,.23969.23962H17.096a.19122.19122,0,0,1,.19122.19128V6.92651Z"/>
      <path class="cls-2" d="M17.54789,3.62781a.32363.32363,0,0,0,.2486-.0899.3165.3165,0,0,0,.08392-.22467.33718.33718,0,0,0-.08392-.23224.37674.37674,0,0,0-.49878,0,.34043.34043,0,0,0-.0824.23224.31941.31941,0,0,0,.0824.22467A.32272.32272,0,0,0,17.54789,3.62781Z"/>
    </g>
  </g>
</svg>
