<svg id="Iconos_Trazados" data-name="Iconos Trazados" xmlns="http://www.w3.org/2000/svg" viewBox="0 0 24.00706 24.00706">
  <defs>
    <style>
      .cls-1 {
        fill: #e03e52;
      }
    </style>
  </defs>
  <title>iconos_palmaactiva-def</title>
  <path class="cls-1" d="M22.60094,9.74219a1.0023,1.0023,0,0,0-.79883-.457l-1.18359-.04883a.24919.24919,0,0,1-.24023-.25l.002-1.80664a1.00026,1.00026,0,0,0-.998-1L11.30993,6.165a.24564.24564,0,0,1-.19531-.0957l-1.40137-1.793a1.00537,1.00537,0,0,0-.78613-.38477L2.27184,3.87988a.9986.9986,0,0,0-1.002.998L1.24547,19.11328a1.00151,1.00151,0,0,0,1,1.001l.20557.00018a.97868.97868,0,0,0,.10205.01251H18.20348a.98868.98868,0,0,0,.79932-.40918A1.003,1.003,0,0,0,19.13122,19.5l3.55762-8.84277A.99754.99754,0,0,0,22.60094,9.74219Zm-20.50684-5.04a.245.245,0,0,1,.17578-.07227l6.65625.01172a.25145.25145,0,0,1,.19531.0957l1.40137,1.793A.99371.99371,0,0,0,11.309,6.915l8.07227.01465a.24965.24965,0,0,1,.249.25l-.002,1.80664a.9885.9885,0,0,0,.06177.31641H7.07067a.375.375,0,0,0,0,.75H21.74645a.247.247,0,0,1,.207.11035.24959.24959,0,0,1,.02539.2334L18.43493,19.2207a.32258.32258,0,0,1-.23242.15625L2.51183,19.36444a.27206.27206,0,0,1-.16577-.09686.249.249,0,0,1-.02539-.2334l2.93262-7.55566a.375.375,0,1,0-.69922-.27148l-2.5564,6.58752L2.01989,4.87988A.249.249,0,0,1,2.09411,4.70215Z"/>
</svg>
