<svg xmlns="http://www.w3.org/2000/svg" viewBox="0 0 24.007 24.007" xmlns:v="https://vecta.io/nano"><path d="M19.165 5.57a8.93 8.93 0 0 0-6.492-2.488c-2.083.071-4.076.869-5.633 2.256-2.784 2.483-3.731 6.435-2.373 9.91l-2.562 4.437 4.689-1.256-.004-.008a8.93 8.93 0 0 0 11.027 1.082 8.93 8.93 0 0 0 3.01-11.748" fill="none" stroke="#e03e52" stroke-linecap="round" stroke-linejoin="round" paint-order="normal" stroke-width=".755"/><g fill="#e03e52"><path d="M13.725 8.262c-.272.502-.9.688-1.402.416s-.688-.9-.416-1.401.899-.688 1.401-.417.689.899.417 1.401" paint-order="normal" fill="#454344"/><path d="M13.009 9.7v6.027zm-2.404 6.035h4.807z" stroke="#454344" stroke-width=".755" stroke-linejoin="round"/></g><path d="M13.009 9.7l-2.404.008" fill="none" stroke="#454344" stroke-linecap="round" stroke-linejoin="round" stroke-width=".755"/></svg>