<?xml version="1.0" encoding="UTF-8" standalone="no"?>
<svg
   xmlns:dc="http://purl.org/dc/elements/1.1/"
   xmlns:cc="http://creativecommons.org/ns#"
   xmlns:rdf="http://www.w3.org/1999/02/22-rdf-syntax-ns#"
   xmlns:svg="http://www.w3.org/2000/svg"
   xmlns="http://www.w3.org/2000/svg"
   xmlns:sodipodi="http://sodipodi.sourceforge.net/DTD/sodipodi-0.dtd"
   xmlns:inkscape="http://www.inkscape.org/namespaces/inkscape"
   id="Iconos_Trazados"
   data-name="Iconos Trazados"
   viewBox="0 0 24.00706 24.00706"
   version="1.1"
   sodipodi:docname="mail.svg"
   inkscape:version="0.92.3 (2405546, 2018-03-11)">
  <metadata
     id="metadata23">
    <rdf:RDF>
      <cc:Work
         rdf:about="">
        <dc:format>image/svg+xml</dc:format>
        <dc:type
           rdf:resource="http://purl.org/dc/dcmitype/StillImage" />
        <dc:title>iconos_palmaactiva-def</dc:title>
      </cc:Work>
    </rdf:RDF>
  </metadata>
  <sodipodi:namedview
     pagecolor="#ffffff"
     bordercolor="#666666"
     borderopacity="1"
     objecttolerance="10"
     gridtolerance="10"
     guidetolerance="10"
     inkscape:pageopacity="0"
     inkscape:pageshadow="2"
     inkscape:window-width="1920"
     inkscape:window-height="1018"
     id="namedview21"
     showgrid="false"
     inkscape:zoom="23.574078"
     inkscape:cx="6.9521572"
     inkscape:cy="11.537314"
     inkscape:window-x="-8"
     inkscape:window-y="-8"
     inkscape:window-maximized="1"
     inkscape:current-layer="Iconos_Trazados" />
  <defs
     id="defs4">
    <style
       id="style2">
      .cls-1 {
        fill: #e03e52;
      }
    </style>
  </defs>
  <title
     id="title6">iconos_palmaactiva-def</title>
  <path
     inkscape:connector-curvature="0"
     id="path827"
     style="font-style:normal;font-variant:normal;font-weight:normal;font-stretch:normal;font-size:medium;line-height:1.25;font-family:Calibri;-inkscape-font-specification:'Calibri, Normal';font-variant-ligatures:normal;font-variant-caps:normal;font-variant-numeric:normal;text-align:start;letter-spacing:0px;word-spacing:0px;writing-mode:lr-tb;text-anchor:start;fill:#e03e52;fill-opacity:1;stroke:none;stroke-width:0.33593538"
     d="m 15.253529,15.159114 q 0,0.297443 -0.03937,0.608008 -0.03499,0.310566 -0.118102,0.603634 -0.08311,0.293069 -0.218708,0.555518 -0.135599,0.258076 -0.332436,0.454913 -0.196838,0.196837 -0.459287,0.310565 -0.258075,0.109354 -0.594886,0.109354 -0.17934,0 -0.332436,-0.03937 -0.153095,-0.04374 -0.271198,-0.122477 -0.118102,-0.07873 -0.201211,-0.201211 -0.07874,-0.126851 -0.109354,-0.288695 -0.174966,0.174967 -0.341184,0.301817 -0.161844,0.122477 -0.319314,0.201212 -0.15747,0.07874 -0.310565,0.113728 -0.148722,0.03499 -0.293069,0.03499 -0.188089,0 -0.332436,-0.03499 -0.144347,-0.03937 -0.258075,-0.109354 -0.109354,-0.07436 -0.188089,-0.179341 -0.07874,-0.104979 -0.131225,-0.236204 -0.05249,-0.131225 -0.07436,-0.288695 -0.02187,-0.157469 -0.02187,-0.341184 0,-0.188089 0.03062,-0.428668 0.03062,-0.244953 0.100605,-0.503028 0.06999,-0.258075 0.192463,-0.503028 0.122477,-0.249327 0.301817,-0.44179 0.183715,-0.196837 0.433042,-0.31494 0.249327,-0.122476 0.581763,-0.122476 0.139973,0 0.266824,0.03499 0.131225,0.03062 0.249327,0.100606 0.118102,0.06999 0.227456,0.174966 0.109354,0.10498 0.223082,0.249327 l 0.07436,-0.384926 q 0.0175,-0.06124 0.07874,-0.09186 0.06124,-0.03062 0.227456,-0.03062 0.07874,0 0.131225,0.0087 0.05686,0.0087 0.08748,0.02624 0.03062,0.01312 0.03937,0.03499 0.01312,0.02187 0.0044,0.05249 l -0.3893,2.012113 q -0.06999,0.380552 0.03499,0.564267 0.10498,0.17934 0.398048,0.17934 0.179341,0 0.323688,-0.08748 0.144347,-0.09186 0.253701,-0.244953 0.109354,-0.153095 0.183715,-0.354307 0.07436,-0.205585 0.122476,-0.428667 0.04812,-0.227456 0.06999,-0.463661 0.02187,-0.236205 0.02187,-0.454913 0,-0.380551 -0.10498,-0.721736 -0.100606,-0.345558 -0.349933,-0.603634 -0.249327,-0.262449 -0.669246,-0.415545 -0.415545,-0.15747 -1.045424,-0.15747 -0.516151,0 -0.918574,0.113728 -0.402422,0.113729 -0.708613,0.310566 -0.306191,0.192463 -0.524899,0.446164 -0.218708,0.253701 -0.3718039,0.542396 -0.1487214,0.28432 -0.2405788,0.586137 -0.091857,0.297443 -0.139973,0.577389 -0.048116,0.275572 -0.065612,0.520525 -0.013122,0.244953 -0.013122,0.415545 0,0.485532 0.109354,0.887954 0.1137281,0.402423 0.3893001,0.695492 0.2755726,0.293068 0.7392326,0.454912 0.463661,0.161844 1.167901,0.161844 0.319313,0 0.577389,-0.03937 0.258075,-0.03499 0.446164,-0.07874 0.192463,-0.03937 0.310565,-0.07873 0.118103,-0.03499 0.161844,-0.03499 0.02625,0 0.04374,0.01312 0.02187,0.0175 0.03062,0.04812 0.01312,0.03499 0.0175,0.08311 0.0044,0.05249 0.0044,0.12685 0,0.06124 -0.0044,0.100606 0,0.03937 -0.0087,0.06999 -0.0087,0.03499 -0.02624,0.06124 -0.01312,0.02624 -0.03937,0.04812 -0.02624,0.02187 -0.153096,0.06561 -0.122476,0.04374 -0.33681,0.08748 -0.20996,0.04374 -0.49428,0.07436 -0.28432,0.03062 -0.625505,0.03062 -0.817967,0 -1.386608,-0.192463 Q 9.7814564,19.200837 9.4227754,18.842156 9.0684685,18.483475 8.9109988,17.980447 8.7535291,17.477418 8.7535291,16.856288 q 0,-0.227456 0.021871,-0.520525 0.026245,-0.297443 0.091857,-0.629879 0.069987,-0.33681 0.192463,-0.682369 0.1224764,-0.349933 0.3149394,-0.682369 0.1968372,-0.332436 0.4724092,-0.625504 0.2799463,-0.297443 0.6561243,-0.516151 0.380552,-0.223082 0.866083,-0.349933 0.489906,-0.12685 1.106662,-0.12685 0.717362,0 1.237887,0.174966 0.524899,0.170592 0.866084,0.485532 0.341184,0.314939 0.507402,0.769852 0.166218,0.450538 0.166218,1.006056 z m -2.537012,0.28432 q -0.166218,-0.279946 -0.341184,-0.428667 -0.174967,-0.148722 -0.398049,-0.148722 -0.183714,0 -0.332436,0.09186 -0.148721,0.08748 -0.258075,0.23183 -0.109354,0.139973 -0.188089,0.319314 -0.07436,0.17934 -0.122476,0.367429 -0.04812,0.188089 -0.06999,0.36743 -0.0175,0.174966 -0.0175,0.310565 0,0.323688 0.113728,0.498654 0.118103,0.174966 0.393675,0.174966 0.10498,0 0.214334,-0.03499 0.109354,-0.03937 0.23183,-0.113728 0.122476,-0.07874 0.258075,-0.201211 0.139973,-0.126851 0.306192,-0.297443 z M 8.009922,12.862681 Z" />
  <path
     style="color:#000000;font-style:normal;font-variant:normal;font-weight:normal;font-stretch:normal;font-size:medium;line-height:normal;font-family:sans-serif;font-variant-ligatures:normal;font-variant-position:normal;font-variant-caps:normal;font-variant-numeric:normal;font-variant-alternates:normal;font-feature-settings:normal;text-indent:0;text-align:start;text-decoration:none;text-decoration-line:none;text-decoration-style:solid;text-decoration-color:#000000;letter-spacing:normal;word-spacing:normal;text-transform:none;writing-mode:lr-tb;direction:ltr;text-orientation:mixed;dominant-baseline:auto;baseline-shift:baseline;text-anchor:start;white-space:normal;shape-padding:0;clip-rule:nonzero;display:inline;overflow:visible;visibility:visible;opacity:1;isolation:auto;mix-blend-mode:normal;color-interpolation:sRGB;color-interpolation-filters:linearRGB;solid-color:#000000;solid-opacity:1;vector-effect:none;fill:#e03e52;fill-opacity:1;fill-rule:nonzero;stroke:none;stroke-width:0.68800002;stroke-linecap:round;stroke-linejoin:round;stroke-miterlimit:4;stroke-dasharray:none;stroke-dashoffset:0;stroke-opacity:1;paint-order:fill markers stroke;color-rendering:auto;image-rendering:auto;shape-rendering:auto;text-rendering:auto;enable-background:accumulate"
     d="m 1.4765625,3.3554688 a 0.34403441,0.34403441 0 0 0 -0.34375,0.3457031 V 20.306641 a 0.34403441,0.34403441 0 0 0 0.34375,0.34375 H 22.529297 a 0.34403441,0.34403441 0 0 0 0.34375,-0.34375 v -2.076172 a 0.34403441,0.34403441 0 1 0 -0.6875,0 v 1.732422 H 1.8203125 V 4.0449219 H 22.185547 v 7.9589841 4.150391 a 0.34403441,0.34403441 0 1 0 0.6875,0 V 12.003906 3.7011719 a 0.34403441,0.34403441 0 0 0 -0.34375,-0.3457031 z"
     id="rect838"
     inkscape:connector-curvature="0" />
  <path
     style="color:#000000;font-style:normal;font-variant:normal;font-weight:normal;font-stretch:normal;font-size:medium;line-height:normal;font-family:sans-serif;font-variant-ligatures:normal;font-variant-position:normal;font-variant-caps:normal;font-variant-numeric:normal;font-variant-alternates:normal;font-feature-settings:normal;text-indent:0;text-align:start;text-decoration:none;text-decoration-line:none;text-decoration-style:solid;text-decoration-color:#000000;letter-spacing:normal;word-spacing:normal;text-transform:none;writing-mode:lr-tb;direction:ltr;text-orientation:mixed;dominant-baseline:auto;baseline-shift:baseline;text-anchor:start;white-space:normal;shape-padding:0;clip-rule:nonzero;display:inline;overflow:visible;visibility:visible;opacity:1;isolation:auto;mix-blend-mode:normal;color-interpolation:sRGB;color-interpolation-filters:linearRGB;solid-color:#000000;solid-opacity:1;vector-effect:none;fill:#e03e52;fill-opacity:1;fill-rule:nonzero;stroke:none;stroke-width:0.69999999;stroke-linecap:round;stroke-linejoin:miter;stroke-miterlimit:4;stroke-dasharray:none;stroke-dashoffset:0;stroke-opacity:1;color-rendering:auto;image-rendering:auto;shape-rendering:auto;text-rendering:auto;enable-background:accumulate"
     d="M 1.4667969,3.3476562 A 0.35003499,0.35003499 0 0 0 1.2597656,3.9746094 l 8.8046874,6.9453126 1.722656,1.359375 a 0.35048661,0.35048661 0 1 0 0.433594,-0.550781 L 10.498047,10.369141 1.6933594,3.4257812 A 0.35003499,0.35003499 0 0 0 1.4667969,3.3476562 Z"
     id="path841"
     inkscape:connector-curvature="0" />
  <path
     style="color:#000000;font-style:normal;font-variant:normal;font-weight:normal;font-stretch:normal;font-size:medium;line-height:normal;font-family:sans-serif;font-variant-ligatures:normal;font-variant-position:normal;font-variant-caps:normal;font-variant-numeric:normal;font-variant-alternates:normal;font-feature-settings:normal;text-indent:0;text-align:start;text-decoration:none;text-decoration-line:none;text-decoration-style:solid;text-decoration-color:#000000;letter-spacing:normal;word-spacing:normal;text-transform:none;writing-mode:lr-tb;direction:ltr;text-orientation:mixed;dominant-baseline:auto;baseline-shift:baseline;text-anchor:start;white-space:normal;shape-padding:0;clip-rule:nonzero;display:inline;overflow:visible;visibility:visible;opacity:1;isolation:auto;mix-blend-mode:normal;color-interpolation:sRGB;color-interpolation-filters:linearRGB;solid-color:#000000;solid-opacity:1;vector-effect:none;fill:#e03e52;fill-opacity:1;fill-rule:nonzero;stroke:none;stroke-width:0.69999999;stroke-linecap:round;stroke-linejoin:miter;stroke-miterlimit:4;stroke-dasharray:none;stroke-dashoffset:0;stroke-opacity:1;color-rendering:auto;image-rendering:auto;shape-rendering:auto;text-rendering:auto;enable-background:accumulate"
     d="M 22.529297,3.3476562 A 0.35003499,0.35003499 0 0 0 22.3125,3.4257812 L 11.787109,11.728516 a 0.35048661,0.35048661 0 1 0 0.433594,0.550781 L 22.746094,3.9746094 A 0.35003499,0.35003499 0 0 0 22.529297,3.3476562 Z"
     id="path843"
     inkscape:connector-curvature="0" />
</svg>
