<?xml version="1.0" encoding="UTF-8" standalone="no"?>
<svg
   xmlns:dc="http://purl.org/dc/elements/1.1/"
   xmlns:cc="http://creativecommons.org/ns#"
   xmlns:rdf="http://www.w3.org/1999/02/22-rdf-syntax-ns#"
   xmlns:svg="http://www.w3.org/2000/svg"
   xmlns="http://www.w3.org/2000/svg"
   xmlns:sodipodi="http://sodipodi.sourceforge.net/DTD/sodipodi-0.dtd"
   xmlns:inkscape="http://www.inkscape.org/namespaces/inkscape"
   id="Iconos_Trazados"
   data-name="Iconos Trazados"
   viewBox="0 0 24.00706 24.00706"
   version="1.1"
   sodipodi:docname="mouse.svg"
   inkscape:version="0.92.3 (2405546, 2018-03-11)">
  <metadata
     id="metadata17">
    <rdf:RDF>
      <cc:Work
         rdf:about="">
        <dc:format>image/svg+xml</dc:format>
        <dc:type
           rdf:resource="http://purl.org/dc/dcmitype/StillImage" />
        <dc:title>iconos_palmaactiva-def</dc:title>
      </cc:Work>
    </rdf:RDF>
  </metadata>
  <sodipodi:namedview
     pagecolor="#ffffff"
     bordercolor="#666666"
     borderopacity="1"
     objecttolerance="10"
     gridtolerance="10"
     guidetolerance="10"
     inkscape:pageopacity="0"
     inkscape:pageshadow="2"
     inkscape:window-width="1920"
     inkscape:window-height="1018"
     id="namedview15"
     showgrid="false"
     inkscape:zoom="17.85499"
     inkscape:cx="-7.7126002"
     inkscape:cy="16.555853"
     inkscape:window-x="-8"
     inkscape:window-y="-8"
     inkscape:window-maximized="1"
     inkscape:current-layer="Iconos_Trazados" />
  <defs
     id="defs4">
    <style
       id="style2">
      .cls-1 {
        fill: #e03e52;
      }

      .cls-2 {
        fill: #444343;
      }
    </style>
  </defs>
  <title
     id="title6">iconos_palmaactiva-def</title>
  <g
     id="g850"
     transform="translate(0,-1.1001039)">
    <path
       transform="translate(0,1.1001039)"
       inkscape:connector-curvature="0"
       id="rect954"
       d="m 11.152344,1.6484375 c -3.6713985,0 -6.6386721,2.9672739 -6.6386721,6.6386719 v 7.4335936 c 0,1.835699 0.7416376,3.497497 1.9414062,4.697266 A 0.35003499,0.35003499 0 1 0 6.9492188,19.923828 C 5.8758752,18.850485 5.2148438,17.368556 5.2148438,15.720703 V 8.2871094 c 0,-3.2957061 2.6417936,-5.9394531 5.9375002,-5.9394532 h 1.703125 c 0.823926,0 1.603849,0.1672345 2.314453,0.4667969 A 0.35096643,0.35096643 0 1 0 15.443359,2.1679688 C 14.648379,1.8328362 13.773318,1.6484375 12.855469,1.6484375 Z m 6.148437,1.8339844 a 0.35003499,0.35003499 0 0 0 -0.24414,0.6015625 c 1.073343,1.0733434 1.736328,2.555272 1.736328,4.203125 v 7.4335936 c 0,3.295706 -2.641794,5.9375 -5.9375,5.9375 h -1.703125 c -0.823927,0 -1.6058035,-0.165282 -2.3164065,-0.464844 a 0.35003499,0.35003499 0 1 0 -0.2714844,0.644532 c 0.7949802,0.335132 1.6700409,0.521484 2.5878909,0.521484 h 1.703125 c 3.671398,0 6.636719,-2.967274 6.636719,-6.638672 V 8.2871094 c 0,-1.835699 -0.739685,-3.4994502 -1.939454,-4.6992188 A 0.35003499,0.35003499 0 0 0 17.300781,3.4824219 Z"
       style="color:#000000;font-style:normal;font-variant:normal;font-weight:normal;font-stretch:normal;font-size:medium;line-height:normal;font-family:sans-serif;font-variant-ligatures:normal;font-variant-position:normal;font-variant-caps:normal;font-variant-numeric:normal;font-variant-alternates:normal;font-feature-settings:normal;text-indent:0;text-align:start;text-decoration:none;text-decoration-line:none;text-decoration-style:solid;text-decoration-color:#000000;letter-spacing:normal;word-spacing:normal;text-transform:none;writing-mode:lr-tb;direction:ltr;text-orientation:mixed;dominant-baseline:auto;baseline-shift:baseline;text-anchor:start;white-space:normal;shape-padding:0;clip-rule:nonzero;display:inline;overflow:visible;visibility:visible;opacity:1;isolation:auto;mix-blend-mode:normal;color-interpolation:sRGB;color-interpolation-filters:linearRGB;solid-color:#000000;solid-opacity:1;vector-effect:none;fill:#e03e52;fill-opacity:1;fill-rule:nonzero;stroke:none;stroke-width:0.69999999;stroke-linecap:round;stroke-linejoin:round;stroke-miterlimit:4;stroke-dasharray:none;stroke-dashoffset:0;stroke-opacity:1;paint-order:fill markers stroke;color-rendering:auto;image-rendering:auto;shape-rendering:auto;text-rendering:auto;enable-background:accumulate" />
    <path
       inkscape:connector-curvature="0"
       id="rect956"
       d="m 12.003906,4.9511719 c -0.746345,0 -1.359375,0.6110766 -1.359375,1.3574219 v 2.1855468 c 0,0.7463452 0.61303,1.3574219 1.359375,1.3574219 0.746345,0 1.357422,-0.6110767 1.357422,-1.3574219 V 6.3085938 c 0,-0.7463453 -0.611077,-1.3574219 -1.357422,-1.3574219 z m 0,0.6992187 c 0.370653,0 0.658203,0.2875496 0.658203,0.6582032 v 2.1855468 c 0,0.3706534 -0.28755,0.65625 -0.658203,0.65625 -0.370654,0 -0.658203,-0.2855966 -0.658203,-0.65625 V 6.3085938 c 0,-0.3706536 0.287549,-0.6582032 0.658203,-0.6582032 z"
       style="color:#000000;font-style:normal;font-variant:normal;font-weight:normal;font-stretch:normal;font-size:medium;line-height:normal;font-family:sans-serif;font-variant-ligatures:normal;font-variant-position:normal;font-variant-caps:normal;font-variant-numeric:normal;font-variant-alternates:normal;font-feature-settings:normal;text-indent:0;text-align:start;text-decoration:none;text-decoration-line:none;text-decoration-style:solid;text-decoration-color:#000000;letter-spacing:normal;word-spacing:normal;text-transform:none;writing-mode:lr-tb;direction:ltr;text-orientation:mixed;dominant-baseline:auto;baseline-shift:baseline;text-anchor:start;white-space:normal;shape-padding:0;clip-rule:nonzero;display:inline;overflow:visible;visibility:visible;opacity:1;isolation:auto;mix-blend-mode:normal;color-interpolation:sRGB;color-interpolation-filters:linearRGB;solid-color:#000000;solid-opacity:1;vector-effect:none;fill:#e03e52;fill-opacity:1;fill-rule:nonzero;stroke:none;stroke-width:0.69999999;stroke-linecap:round;stroke-linejoin:round;stroke-miterlimit:4;stroke-dasharray:none;stroke-dashoffset:0;stroke-opacity:1;paint-order:fill markers stroke;color-rendering:auto;image-rendering:auto;shape-rendering:auto;text-rendering:auto;enable-background:accumulate" />
    <path
       inkscape:connector-curvature="0"
       id="path960"
       d="m 12,9.4589844 a 0.26477779,0.26477779 0 0 0 -0.261719,0.2675781 v 4.4863285 a 0.26477779,0.26477779 0 1 0 0.529297,0 V 9.7265625 A 0.26477779,0.26477779 0 0 0 12,9.4589844 Z"
       style="color:#000000;font-style:normal;font-variant:normal;font-weight:normal;font-stretch:normal;font-size:medium;line-height:normal;font-family:sans-serif;font-variant-ligatures:normal;font-variant-position:normal;font-variant-caps:normal;font-variant-numeric:normal;font-variant-alternates:normal;font-feature-settings:normal;text-indent:0;text-align:start;text-decoration:none;text-decoration-line:none;text-decoration-style:solid;text-decoration-color:#000000;letter-spacing:normal;word-spacing:normal;text-transform:none;writing-mode:lr-tb;direction:ltr;text-orientation:mixed;dominant-baseline:auto;baseline-shift:baseline;text-anchor:start;white-space:normal;shape-padding:0;clip-rule:nonzero;display:inline;overflow:visible;visibility:visible;opacity:1;isolation:auto;mix-blend-mode:normal;color-interpolation:sRGB;color-interpolation-filters:linearRGB;solid-color:#000000;solid-opacity:1;vector-effect:none;fill:#e03e52;fill-opacity:1;fill-rule:nonzero;stroke:none;stroke-width:0.52950263;stroke-linecap:round;stroke-linejoin:miter;stroke-miterlimit:4;stroke-dasharray:none;stroke-dashoffset:0;stroke-opacity:1;color-rendering:auto;image-rendering:auto;shape-rendering:auto;text-rendering:auto;enable-background:accumulate" />
  </g>
</svg>
