<?xml version="1.0" encoding="UTF-8" standalone="no"?>
<svg
   xmlns:osb="http://www.openswatchbook.org/uri/2009/osb"
   xmlns:dc="http://purl.org/dc/elements/1.1/"
   xmlns:cc="http://creativecommons.org/ns#"
   xmlns:rdf="http://www.w3.org/1999/02/22-rdf-syntax-ns#"
   xmlns:svg="http://www.w3.org/2000/svg"
   xmlns="http://www.w3.org/2000/svg"
   xmlns:xlink="http://www.w3.org/1999/xlink"
   xmlns:sodipodi="http://sodipodi.sourceforge.net/DTD/sodipodi-0.dtd"
   xmlns:inkscape="http://www.inkscape.org/namespaces/inkscape"
   id="Iconos_Trazados"
   data-name="Iconos Trazados"
   viewBox="0 0 24.00706 24.00706"
   version="1.1"
   sodipodi:docname="reloj1.svg"
   enable-background="new"
   inkscape:version="0.92.3 (2405546, 2018-03-11)">
  <metadata
     id="metadata6441">
    <rdf:RDF>
      <cc:Work
         rdf:about="">
        <dc:format>image/svg+xml</dc:format>
        <dc:type
           rdf:resource="http://purl.org/dc/dcmitype/StillImage" />
        <dc:title>iconos_palmaactiva-def</dc:title>
      </cc:Work>
    </rdf:RDF>
  </metadata>
  <sodipodi:namedview
     pagecolor="#ffffff"
     bordercolor="#666666"
     borderopacity="1"
     objecttolerance="10"
     gridtolerance="10"
     guidetolerance="10"
     inkscape:pageopacity="0"
     inkscape:pageshadow="2"
     inkscape:window-width="1920"
     inkscape:window-height="1017"
     id="namedview6439"
     showgrid="false"
     inkscape:zoom="7.9999999"
     inkscape:cx="-66.180847"
     inkscape:cy="92.647893"
     inkscape:window-x="-8"
     inkscape:window-y="-8"
     inkscape:window-maximized="1"
     inkscape:current-layer="layer1"
     inkscape:lockguides="false"
     showguides="false" />
  <defs
     id="defs6424">
    <linearGradient
       id="linearGradient6936"
       osb:paint="solid">
      <stop
         style="stop-color:#000000;stop-opacity:1;"
         offset="0"
         id="stop6934" />
    </linearGradient>
    <linearGradient
       id="linearGradient6924"
       osb:paint="solid">
      <stop
         style="stop-color:#000000;stop-opacity:1;"
         offset="0"
         id="stop6922" />
    </linearGradient>
    <linearGradient
       id="linearGradient6918"
       osb:paint="solid">
      <stop
         style="stop-color:#e03e52;stop-opacity:1;"
         offset="0"
         id="stop6916" />
    </linearGradient>
    <linearGradient
       id="linearGradient6912"
       osb:paint="solid">
      <stop
         style="stop-color:#e03e52;stop-opacity:1;"
         offset="0"
         id="stop6910" />
    </linearGradient>
    <linearGradient
       id="linearGradient6906"
       osb:paint="solid">
      <stop
         style="stop-color:#e03e52;stop-opacity:1;"
         offset="0"
         id="stop6904" />
    </linearGradient>
    <linearGradient
       id="linearGradient6900"
       osb:paint="solid">
      <stop
         style="stop-color:#e03e52;stop-opacity:1;"
         offset="0"
         id="stop6898" />
    </linearGradient>
    <linearGradient
       id="linearGradient6894"
       osb:paint="solid">
      <stop
         style="stop-color:#e03e52;stop-opacity:1;"
         offset="0"
         id="stop6892" />
    </linearGradient>
    <linearGradient
       id="linearGradient6888"
       osb:paint="solid">
      <stop
         style="stop-color:#e03e52;stop-opacity:1;"
         offset="0"
         id="stop6886" />
    </linearGradient>
    <linearGradient
       id="linearGradient6882"
       osb:paint="solid">
      <stop
         style="stop-color:#e03e52;stop-opacity:1;"
         offset="0"
         id="stop6880" />
    </linearGradient>
    <linearGradient
       id="linearGradient6876"
       osb:paint="solid">
      <stop
         style="stop-color:#444343;stop-opacity:1;"
         offset="0"
         id="stop6874" />
    </linearGradient>
    <linearGradient
       id="linearGradient6870"
       osb:paint="solid">
      <stop
         style="stop-color:#e03e52;stop-opacity:1;"
         offset="0"
         id="stop6868" />
    </linearGradient>
    <linearGradient
       id="linearGradient6864"
       osb:paint="solid">
      <stop
         style="stop-color:#e03e52;stop-opacity:1;"
         offset="0"
         id="stop6862" />
    </linearGradient>
    <style
       id="style6422">
      .cls-1 {
        fill: #e03e52;
      }

      .cls-2 {
        fill: #444343;
      }
    </style>
    <linearGradient
       inkscape:collect="always"
       xlink:href="#linearGradient6918"
       id="linearGradient6926"
       x1="1.1761692"
       y1="12.00353"
       x2="22.811359"
       y2="12.00353"
       gradientUnits="userSpaceOnUse" />
    <linearGradient
       inkscape:collect="always"
       xlink:href="#linearGradient6918"
       id="linearGradient6977"
       gradientUnits="userSpaceOnUse"
       x1="1.1761692"
       y1="12.00353"
       x2="22.811359"
       y2="12.00353" />
    <filter
       inkscape:collect="always"
       style="color-interpolation-filters:sRGB"
       id="filter7024">
      <feBlend
         inkscape:collect="always"
         mode="darken"
         in2="BackgroundImage"
         id="feBlend7026" />
    </filter>
    <linearGradient
       inkscape:collect="always"
       xlink:href="#linearGradient6876"
       id="linearGradient6878-7"
       x1="10.492697"
       y1="10.816356"
       x2="16.271648"
       y2="10.816356"
       gradientUnits="userSpaceOnUse"
       gradientTransform="translate(4.5092598,-33.137013)" />
    <linearGradient
       gradientTransform="translate(4.5068348,-32.871848)"
       inkscape:collect="always"
       xlink:href="#linearGradient6918"
       id="linearGradient6977-7"
       gradientUnits="userSpaceOnUse"
       x1="1.1761692"
       y1="12.00353"
       x2="22.811359"
       y2="12.00353" />
    <filter
       inkscape:collect="always"
       style="color-interpolation-filters:sRGB"
       id="filter7024-1">
      <feBlend
         inkscape:collect="always"
         mode="darken"
         in2="BackgroundImage"
         id="feBlend7026-0" />
    </filter>
    <linearGradient
       inkscape:collect="always"
       xlink:href="#linearGradient6876"
       id="linearGradient6878-8"
       x1="10.492697"
       y1="10.816356"
       x2="16.271648"
       y2="10.816356"
       gradientUnits="userSpaceOnUse"
       gradientTransform="translate(-28.24074,18.862987)" />
    <linearGradient
       gradientTransform="translate(-28.243165,19.128152)"
       inkscape:collect="always"
       xlink:href="#linearGradient6918"
       id="linearGradient6977-9"
       gradientUnits="userSpaceOnUse"
       x1="1.1761692"
       y1="12.00353"
       x2="22.811359"
       y2="12.00353" />
    <filter
       inkscape:collect="always"
       style="color-interpolation-filters:sRGB"
       id="filter7024-9">
      <feBlend
         inkscape:collect="always"
         mode="darken"
         in2="BackgroundImage"
         id="feBlend7026-09" />
    </filter>
    <linearGradient
       inkscape:collect="always"
       xlink:href="#linearGradient6876"
       id="linearGradient6878-2"
       x1="10.492697"
       y1="10.816356"
       x2="16.271648"
       y2="10.816356"
       gradientUnits="userSpaceOnUse"
       gradientTransform="translate(0.0041703,-0.26204565)" />
    <filter
       inkscape:collect="always"
       style="color-interpolation-filters:sRGB"
       id="filter7024-17">
      <feBlend
         inkscape:collect="always"
         mode="darken"
         in2="BackgroundImage"
         id="feBlend7026-2" />
    </filter>
    <linearGradient
       inkscape:collect="always"
       xlink:href="#linearGradient6876"
       id="linearGradient6878-2-2"
       x1="10.492697"
       y1="10.816356"
       x2="16.271648"
       y2="10.816356"
       gradientUnits="userSpaceOnUse"
       gradientTransform="translate(-77.760504,3.2553597)" />
    <filter
       inkscape:collect="always"
       style="color-interpolation-filters:sRGB"
       id="filter7024-6">
      <feBlend
         inkscape:collect="always"
         mode="darken"
         in2="BackgroundImage"
         id="feBlend7026-9" />
    </filter>
    <linearGradient
       inkscape:collect="always"
       xlink:href="#linearGradient6876"
       id="linearGradient6878-2-6"
       x1="10.492697"
       y1="10.816356"
       x2="16.271648"
       y2="10.816356"
       gradientUnits="userSpaceOnUse"
       gradientTransform="translate(-105.33638,32.954885)" />
    <filter
       inkscape:collect="always"
       style="color-interpolation-filters:sRGB"
       id="filter7024-4">
      <feBlend
         inkscape:collect="always"
         mode="darken"
         in2="BackgroundImage"
         id="feBlend7026-8" />
    </filter>
    <filter
       inkscape:collect="always"
       style="color-interpolation-filters:sRGB"
       id="filter7024-17-3">
      <feBlend
         inkscape:collect="always"
         mode="darken"
         in2="BackgroundImage"
         id="feBlend7026-2-7" />
    </filter>
    <linearGradient
       inkscape:collect="always"
       xlink:href="#linearGradient6876"
       id="linearGradient6878-2-0"
       x1="10.492697"
       y1="10.816356"
       x2="16.271648"
       y2="10.816356"
       gradientUnits="userSpaceOnUse"
       gradientTransform="translate(-124.10369,-9.0897458)" />
    <filter
       inkscape:collect="always"
       style="color-interpolation-filters:sRGB"
       id="filter7024-5">
      <feBlend
         inkscape:collect="always"
         mode="darken"
         in2="BackgroundImage"
         id="feBlend7026-93" />
    </filter>
  </defs>
  <title
     id="title6426">iconos_palmaactiva-def</title>
  <g
     inkscape:groupmode="layer"
     id="layer4"
     inkscape:label="guias"
     style="display:none"
     sodipodi:insensitive="true">
    <path
       style="opacity:0.119;fill:none;stroke:#000000;stroke-width:0.75590551;stroke-linecap:butt;stroke-linejoin:miter;stroke-miterlimit:4;stroke-dasharray:none;stroke-opacity:1"
       d="M 1.7356021,12.00353 H 22.271457"
       id="path1648"
       inkscape:connector-curvature="0" />
    <path
       style="display:inline;opacity:0.119;fill:none;stroke:#000000;stroke-width:0.75590551;stroke-linecap:butt;stroke-linejoin:miter;stroke-miterlimit:4;stroke-dasharray:none;stroke-opacity:1"
       d="M 12.00353,1.7356017 V 22.271457"
       id="path1648-5"
       inkscape:connector-curvature="0" />
    <path
       style="display:inline;opacity:0.119;fill:none;stroke:#000000;stroke-width:0.75590551;stroke-linecap:butt;stroke-linejoin:miter;stroke-miterlimit:4;stroke-dasharray:none;stroke-opacity:1"
       d="M 19.264051,4.7430082 4.7430085,19.264051"
       id="path1648-5-6"
       inkscape:connector-curvature="0" />
    <path
       style="display:inline;opacity:0.119;fill:none;stroke:#000000;stroke-width:0.75590551;stroke-linecap:butt;stroke-linejoin:miter;stroke-miterlimit:4;stroke-dasharray:none;stroke-opacity:1"
       d="M 19.264051,19.26405 4.7430082,4.7430089"
       id="path1648-5-6-2"
       inkscape:connector-curvature="0" />
    <circle
       style="display:inline;opacity:1;fill:none;fill-opacity:1;fill-rule:nonzero;stroke:#e03e52;stroke-width:0.75590557;stroke-linecap:round;stroke-linejoin:round;stroke-miterlimit:4;stroke-dasharray:none;stroke-opacity:1;paint-order:normal;filter:url(#filter7024)"
       id="path1122"
       cx="12.00353"
       cy="12.00353"
       r="1.1220473"
       inkscape:label="rosca puntero" />
  </g>
  <g
     inkscape:groupmode="layer"
     id="layer7"
     inkscape:label="referencias"
     style="display:none">
    <g
       id="g5356"
       transform="translate(8.3210678,-52.014349)"
       style="display:inline"
       inkscape:label="antiguo">
      <path
         inkscape:connector-curvature="0"
         id="path6463-9"
         d="m -16.249024,20.348855 c -5.969242,0 -10.81836,4.831465 -10.81836,10.783203 0,5.951739 4.849118,10.783203 10.81836,10.783203 5.969241,0 10.8164063,-4.831464 10.8164063,-10.783203 0,-5.951738 -4.8471653,-10.783203 -10.8164063,-10.783203 z m -0.369141,0.773438 v 2.386719 a 0.37799052,0.37799052 0 1 0 0.755859,0 v -2.384766 c 2.486446,0.09423 4.736431,1.080952 6.4414073,2.654297 l -1.6953133,1.695312 a 0.37799055,0.37799055 0 1 0 0.533203,0.535157 l 1.6972663,-1.697266 c 1.588296,1.702875 2.584406,3.953629 2.677734,6.441406 h -2.410156 a 0.37799055,0.37799055 0 1 0 0,0.755859 h 2.410156 c -0.09287,2.488317 -1.08924,4.738574 -2.677734,6.441407 l -1.6972663,-1.695313 a 0.37799055,0.37799055 0 0 0 -0.271484,-0.115234 0.37799055,0.37799055 0 0 0 -0.261719,0.648437 l 1.6933593,1.695313 c -1.7048953,1.572545 -3.9533343,2.56012 -6.4394533,2.654297 v -2.384766 a 0.37799055,0.37799055 0 0 0 -0.382812,-0.382812 0.37799055,0.37799055 0 0 0 -0.373047,0.382812 v 2.386719 c -2.488708,-0.08998 -4.741357,-1.075068 -6.449219,-2.646485 l 1.705078,-1.705078 a 0.37799055,0.37799055 0 0 0 -0.27539,-0.648437 0.37799055,0.37799055 0 0 0 -0.259766,0.115234 l -1.705078,1.705078 c -1.593957,-1.704008 -2.594447,-3.957941 -2.6875,-6.451172 h 2.427734 a 0.37799055,0.37799055 0 1 0 0,-0.755859 h -2.427734 c 0.09351,-2.492684 1.093751,-4.747122 2.6875,-6.451172 l 1.705078,1.707032 a 0.37841279,0.37841279 0 1 0 0.535156,-0.535157 l -1.705078,-1.703125 c 1.707929,-1.572158 3.960237,-2.558414 6.449219,-2.648437 z"
         style="color:#000000;font-style:normal;font-variant:normal;font-weight:normal;font-stretch:normal;font-size:medium;line-height:normal;font-family:sans-serif;font-variant-ligatures:normal;font-variant-position:normal;font-variant-caps:normal;font-variant-numeric:normal;font-variant-alternates:normal;font-feature-settings:normal;text-indent:0;text-align:start;text-decoration:none;text-decoration-line:none;text-decoration-style:solid;text-decoration-color:#000000;letter-spacing:normal;word-spacing:normal;text-transform:none;writing-mode:lr-tb;direction:ltr;text-orientation:mixed;dominant-baseline:auto;baseline-shift:baseline;text-anchor:start;white-space:normal;shape-padding:0;clip-rule:nonzero;display:inline;overflow:visible;visibility:visible;opacity:1;isolation:auto;mix-blend-mode:normal;color-interpolation:sRGB;color-interpolation-filters:linearRGB;solid-color:#000000;solid-opacity:1;vector-effect:none;fill:url(#linearGradient6977-9);fill-opacity:1;fill-rule:nonzero;stroke:none;stroke-width:0.75697553;stroke-linecap:round;stroke-linejoin:round;stroke-miterlimit:4;stroke-dasharray:none;stroke-dashoffset:0;stroke-opacity:1;paint-order:normal;filter:url(#filter7024-9);color-rendering:auto;image-rendering:auto;shape-rendering:auto;text-rendering:auto;enable-background:accumulate"
         inkscape:label="rosca" />
      <path
         class="cls-2"
         d="m -12.079466,26.829895 a 0.37487,0.37487 0 0 0 -0.53027,0.001 l -2.95538,2.9563 a 1.48674,1.48674 0 0 0 -0.67157,-0.16528 1.50812,1.50812 0 1 0 1.24121,0.65619 l 2.917,-2.91791 a 0.37486,0.37486 0 0 0 -9.9e-4,-0.5303 z m -4.15723,5.05271 a 0.75537,0.75537 0 1 1 0.75488,-0.75586 0.75645,0.75645 0 0 1 -0.75488,0.75586 z"
         id="path6434-2"
         inkscape:connector-curvature="0"
         style="display:inline;opacity:1;fill:url(#linearGradient6878-8);fill-opacity:1;fill-rule:nonzero;filter:url(#filter7024-9)"
         inkscape:label="puntero" />
    </g>
    <g
       id="g5314"
       style="display:inline"
       transform="translate(0.35355339,0.70710678)"
       inkscape:label="antiguo">
      <path
         inkscape:connector-curvature="0"
         id="path6463-5"
         d="m 16.500976,-31.651144 c -5.969242,0 -10.8183602,4.831464 -10.81836,10.783202 2e-7,5.951739 4.849118,10.783203 10.81836,10.783203 5.969241,0 10.816406,-4.831464 10.816406,-10.783203 0,-5.951738 -4.847165,-10.783202 -10.816406,-10.783202 z m -0.369141,0.773437 v 2.386719 a 0.37799052,0.37799052 0 1 0 0.755859,0 v -2.384766 c 2.486446,0.09423 4.736431,1.080953 6.441407,2.654297 l -1.695313,1.695313 a 0.37799055,0.37799055 0 1 0 0.533203,0.535156 l 1.697266,-1.697266 c 1.588296,1.702875 2.584406,3.953629 2.677734,6.441406 h -2.410156 a 0.37799055,0.37799055 0 1 0 0,0.755859 h 2.410156 c -0.09287,2.488317 -1.08924,4.738574 -2.677734,6.441407 l -1.697266,-1.695313 a 0.37799055,0.37799055 0 0 0 -0.271484,-0.115234 0.37799055,0.37799055 0 0 0 -0.261719,0.648437 l 1.693359,1.695313 c -1.704895,1.572545 -3.953334,2.56012 -6.439453,2.654297 v -2.384766 a 0.37799055,0.37799055 0 0 0 -0.382812,-0.382812 0.37799055,0.37799055 0 0 0 -0.373047,0.382812 v 2.386719 c -2.488708,-0.08997 -4.741358,-1.075068 -6.449219,-2.646485 l 1.705078,-1.705078 a 0.37799055,0.37799055 0 0 0 -0.27539,-0.648437 0.37799055,0.37799055 0 0 0 -0.259766,0.115234 L 9.14746,-14.039817 C 7.553503,-15.743825 6.5530126,-17.997758 6.4599598,-20.490989 H 8.887694 a 0.37799055,0.37799055 0 1 0 0,-0.755859 H 6.4599598 c 0.093512,-2.492684 1.0937512,-4.747122 2.6875002,-6.451171 l 1.705078,1.707031 a 0.37841265,0.37841265 0 1 0 0.535156,-0.535156 l -1.705078,-1.703125 c 1.707929,-1.572159 3.960237,-2.558415 6.449219,-2.648438 z"
         style="color:#000000;font-style:normal;font-variant:normal;font-weight:normal;font-stretch:normal;font-size:medium;line-height:normal;font-family:sans-serif;font-variant-ligatures:normal;font-variant-position:normal;font-variant-caps:normal;font-variant-numeric:normal;font-variant-alternates:normal;font-feature-settings:normal;text-indent:0;text-align:start;text-decoration:none;text-decoration-line:none;text-decoration-style:solid;text-decoration-color:#000000;letter-spacing:normal;word-spacing:normal;text-transform:none;writing-mode:lr-tb;direction:ltr;text-orientation:mixed;dominant-baseline:auto;baseline-shift:baseline;text-anchor:start;white-space:normal;shape-padding:0;clip-rule:nonzero;display:inline;overflow:visible;visibility:visible;opacity:1;isolation:auto;mix-blend-mode:normal;color-interpolation:sRGB;color-interpolation-filters:linearRGB;solid-color:#000000;solid-opacity:1;vector-effect:none;fill:url(#linearGradient6977-7);fill-opacity:1;fill-rule:nonzero;stroke:none;stroke-width:0.75697553;stroke-linecap:round;stroke-linejoin:round;stroke-miterlimit:4;stroke-dasharray:none;stroke-dashoffset:0;stroke-opacity:1;paint-order:normal;filter:url(#filter7024-1);color-rendering:auto;image-rendering:auto;shape-rendering:auto;text-rendering:auto;enable-background:accumulate"
         inkscape:label="rosca" />
      <path
         class="cls-2"
         d="m 20.670534,-25.170105 a 0.37487,0.37487 0 0 0 -0.53027,0.001 l -2.95538,2.9563 a 1.48674,1.48674 0 0 0 -0.67157,-0.16528 1.50812,1.50812 0 1 0 1.24121,0.65619 l 2.917,-2.91791 a 0.37486,0.37486 0 0 0 -9.9e-4,-0.5303 z m -4.15723,5.05271 a 0.75537,0.75537 0 1 1 0.75488,-0.75586 0.75645,0.75645 0 0 1 -0.75488,0.75586 z"
         id="path6434-3"
         inkscape:connector-curvature="0"
         style="display:inline;opacity:1;fill:url(#linearGradient6878-7);fill-opacity:1;fill-rule:nonzero;filter:url(#filter7024-1)"
         inkscape:label="puntero" />
    </g>
  </g>
  <g
     inkscape:groupmode="layer"
     id="layer6"
     inkscape:label="objetos"
     style="display:none">
    <path
       style="opacity:1;fill:none;fill-opacity:1;fill-rule:nonzero;stroke:#e03e52;stroke-width:0.75590545;stroke-linecap:round;stroke-linejoin:round;stroke-miterlimit:4;stroke-dasharray:none;stroke-opacity:1;paint-order:normal"
       id="path1557"
       sodipodi:type="arc"
       sodipodi:cx="-35.576878"
       sodipodi:cy="-21.288029"
       sodipodi:rx="10.58138"
       sodipodi:ry="10.58124"
       sodipodi:start="2.8797933"
       sodipodi:end="2.6179939"
       d="m -45.797706,-18.549403 a 10.58138,10.58124 0 0 1 6.819556,-12.758321 10.58138,10.58124 0 0 1 13.177193,5.97043 10.58138,10.58124 0 0 1 -5.095896,13.539291 10.58138,10.58124 0 0 1 -13.843769,-4.199406"
       sodipodi:open="true" />
    <path
       style="display:inline;opacity:1;fill:none;fill-opacity:1;fill-rule:nonzero;stroke:#e03e52;stroke-width:0.75590545;stroke-linecap:round;stroke-linejoin:round;stroke-miterlimit:4;stroke-dasharray:none;stroke-opacity:1;paint-order:normal;filter:url(#filter7024)"
       id="path1557-9"
       sodipodi:type="arc"
       sodipodi:cx="-35.391502"
       sodipodi:cy="3.8367486"
       sodipodi:rx="10.58138"
       sodipodi:ry="10.58124"
       sodipodi:start="2.6179939"
       sodipodi:end="2.3561945"
       d="m -44.555246,9.1273682 a 10.58138,10.58124 0 0 1 3.285044,-14.088599 10.58138,10.58124 0 0 1 14.273473,2.3565289 10.58138,10.58124 0 0 1 -1.417985,14.3968479 10.58138,10.58124 0 0 1 -14.458954,-0.473331"
       sodipodi:open="true" />
    <path
       style="display:inline;opacity:1;fill:none;stroke:#000000;stroke-width:0.75590551;stroke-linecap:round;stroke-linejoin:miter;stroke-miterlimit:4;stroke-dasharray:none;stroke-opacity:1;filter:url(#filter7024)"
       d="m -17,-51.513733 v 1.322835"
       id="path1646-1"
       inkscape:connector-curvature="0" />
    <path
       style="display:inline;opacity:1;fill:none;stroke:#000000;stroke-width:0.75590551;stroke-linecap:butt;stroke-linejoin:miter;stroke-miterlimit:4;stroke-dasharray:none;stroke-opacity:1;filter:url(#filter7024)"
       d="m -18.734375,-51.456401 v 1.322835"
       id="path1646"
       inkscape:connector-curvature="0"
       inkscape:label="medida aspas" />
  </g>
  <g
     inkscape:groupmode="layer"
     id="layer1"
     inkscape:label="base"
     style="display:inline">
    <g
       style="display:inline;opacity:1;filter:url(#filter7024)"
       transform="translate(-82.546161,-100.38453)"
       id="g966"
       inkscape:label="referencia">
      <g
         id="g962"
         inkscape:label="rosca">
        <path
           class="cls-1"
           d="M 20.16386,7.66791 C 20.14986,7.64643 20.15458,7.61847 20.13572,7.59961 20.12172,7.58561 20.1005,7.58984 20.085,7.57849 A 10.58251,10.58251 0 0 0 3.92259,7.5777 0.5982,0.5982 0 0 0 3.8441,7.6667 11.30039,11.30039 0 0 0 1.164,14.99316 11.62514,11.62514 0 0 0 1.32709,16.93359 0.38152,0.38152 0 0 0 1.75971,17.24121 0.37634,0.37634 0 0 0 2.06733,16.80859 10.86393,10.86393 0 0 1 1.914,14.99316 10.5694,10.5694 0 0 1 4.176,8.43389 l 1.0163,1.0163 A 0.37565048,0.37565048 0 0 0 5.72355,8.91894 L 4.6685,7.86383 a 9.917,9.917 0 0 1 6.96039,-3.26611 v 1.47357 a 0.375,0.375 0 0 0 0.75,0 V 4.59772 A 9.91551,9.91551 0 0 1 19.3394,7.8645 l -1.05523,1.05445 a 0.375,0.375 0 1 0 0.5293,0.53125 l 1.0174,-1.01666 a 10.68289,10.68289 0 0 1 1.30389,10.99518 l -4.168,-10e-4 a 0.375,0.375 0 0 0 0,0.75 l 4.40625,10e-4 A 0.37506,0.37506 0 0 0 21.7109,19.96681 11.408,11.408 0 0 0 20.16386,7.66791 Z"
           id="path958"
           inkscape:connector-curvature="0"
           style="fill:#e03e52"
           inkscape:label="largo" />
        <path
           class="cls-1"
           d="m 7.04,19.42773 -4.168,0.001 C 2.77141,19.20803 2.67766,18.98342 2.5927,18.7549 a 0.37513,0.37513 0 0 0 -0.70312,0.26172 c 0.12109,0.32422 0.25781,0.6416 0.40624,0.9502 a 0.37508,0.37508 0 0 0 0.3379,0.21191 l 4.40625,-0.001 a 0.375,0.375 0 1 0 0,-0.75 z"
           id="path960"
           inkscape:connector-curvature="0"
           style="fill:#e03e52"
           inkscape:label="corto" />
      </g>
      <path
         class="cls-2"
         d="m 16.16112,10.57129 a 0.37487,0.37487 0 0 0 -0.53027,0.001 l -2.95538,2.9563 a 1.48674,1.48674 0 0 0 -0.67157,-0.16528 1.50812,1.50812 0 1 0 1.24121,0.65619 l 2.917,-2.91791 a 0.37486,0.37486 0 0 0 -9.9e-4,-0.5303 z M 12.00389,15.624 a 0.75537,0.75537 0 1 1 0.75488,-0.75586 0.75645,0.75645 0 0 1 -0.75488,0.75586 z"
         id="path964"
         inkscape:connector-curvature="0"
         style="fill:#444343"
         inkscape:label="puntero" />
    </g>
  </g>
  <g
     inkscape:groupmode="layer"
     id="layer3"
     inkscape:label="icono"
     style="display:inline;opacity:1;filter:url(#filter7024)">
    <path
       style="color:#000000;font-style:normal;font-variant:normal;font-weight:normal;font-stretch:normal;font-size:medium;line-height:normal;font-family:sans-serif;font-variant-ligatures:normal;font-variant-position:normal;font-variant-caps:normal;font-variant-numeric:normal;font-variant-alternates:normal;font-feature-settings:normal;text-indent:0;text-align:start;text-decoration:none;text-decoration-line:none;text-decoration-style:solid;text-decoration-color:#000000;letter-spacing:normal;word-spacing:normal;text-transform:none;writing-mode:lr-tb;direction:ltr;text-orientation:mixed;dominant-baseline:auto;baseline-shift:baseline;text-anchor:start;white-space:normal;shape-padding:0;clip-rule:nonzero;display:inline;overflow:visible;visibility:visible;opacity:1;isolation:auto;mix-blend-mode:normal;color-interpolation:sRGB;color-interpolation-filters:linearRGB;solid-color:#000000;solid-opacity:1;vector-effect:none;fill:#e03e52;fill-opacity:1;fill-rule:nonzero;stroke:none;stroke-width:0.75590551;stroke-linecap:round;stroke-linejoin:round;stroke-miterlimit:4;stroke-dasharray:none;stroke-dashoffset:0;stroke-opacity:1;paint-order:normal;filter:url(#filter7024);color-rendering:auto;image-rendering:auto;shape-rendering:auto;text-rendering:auto;enable-background:accumulate"
       d="m 11.9375,1.0058594 c -0.338094,0.00221 -0.675486,0.019618 -1.011719,0.052734 C 8.2359203,1.3235219 5.6419566,2.572593 3.7324219,4.75 -0.08664759,9.104814 0.12889842,15.685539 4.2246094,19.78125 c 0.3174058,0.317406 0.5424664,-0.0073 0.7851562,-0.249997 l 1.6035156,-1.603519 c 0.2459664,-0.239955 0.070079,-0.657059 -0.2734374,-0.648437 -0.098003,0.0026 -0.1911444,0.04326 -0.2597657,0.113281 L 4.5058594,18.966797 C 2.7779173,17.107554 1.8533269,14.762492 1.765625,12.380859 h 2.2382812 c 0.5130449,0.0092 0.5130449,-0.765081 0,-0.755859 H 1.7714844 C 1.8551592,9.3479101 2.688814,7.0880964 4.3007812,5.25 4.3660805,5.1755404 4.4388843,5.1111925 4.5058594,5.0390625 L 6.0800781,6.6132812 C 6.4345756,7.0222687 7.0222687,6.4345756 6.6132812,6.0800781 L 5.0332031,4.5 C 6.8775047,2.7830947 9.2299583,1.8647372 11.625,1.7753906 v 2.2285156 c -0.0092,0.5130449 0.765081,0.5130449 0.755859,0 V 1.7753906 c 2.057454,0.074954 4.109426,0.7587792 5.859375,2.1015625 0.256734,0.1969985 0.501401,0.4052673 0.734375,0.6210938 l -1.582031,1.5820312 c -0.383068,0.3565586 0.18,0.9175723 0.535156,0.5332031 l 1.576172,-1.5761718 c 1.705148,1.8314815 2.638332,4.1807261 2.728516,6.5878906 h -2.228516 c -0.513045,-0.0092 -0.513045,0.765081 0,0.755859 h 2.232422 c -0.06676,1.838406 -0.622126,3.679086 -1.714844,5.314453 -0.307496,0.460202 -0.652453,0.879439 -1.017578,1.273438 l -1.576172,-1.576172 c -0.07149,-0.07287 -0.169406,-0.113728 -0.271484,-0.113281 -0.338735,3.61e-4 -0.506032,0.411787 -0.263672,0.648437 l 1.576172,1.576172 c -1.820672,1.693546 -4.168242,2.645937 -6.587891,2.736328 v -2.236328 c 0.0027,-0.212541 -0.170271,-0.385541 -0.382812,-0.382812 -0.208718,0.0027 -0.375727,0.174094 -0.373047,0.382812 v 2.234375 C 10.004982,22.17898 8.3769585,21.738773 6.8808594,20.875 6.4358925,20.589442 6.033675,21.287592 6.5039062,21.529297 11.520107,24.425402 17.932411,22.931281 21.150391,18.115234 24.36837,13.299188 23.294488,6.8034177 18.699219,3.2773438 16.688788,1.7346863 14.304156,0.9904174 11.9375,1.0058594 Z"
       id="path1098"
       inkscape:connector-curvature="0"
       sodipodi:nodetypes="cssccccccccccsccccccccccccccccccccccccccccccssc"
       inkscape:label="1" />
    <path
       style="color:#000000;font-style:normal;font-variant:normal;font-weight:normal;font-stretch:normal;font-size:medium;line-height:normal;font-family:sans-serif;font-variant-ligatures:normal;font-variant-position:normal;font-variant-caps:normal;font-variant-numeric:normal;font-variant-alternates:normal;font-feature-settings:normal;text-indent:0;text-align:start;text-decoration:none;text-decoration-line:none;text-decoration-style:solid;text-decoration-color:#000000;letter-spacing:normal;word-spacing:normal;text-transform:none;writing-mode:lr-tb;direction:ltr;text-orientation:mixed;dominant-baseline:auto;baseline-shift:baseline;text-anchor:start;white-space:normal;shape-padding:0;clip-rule:nonzero;display:none;overflow:visible;visibility:visible;opacity:1;isolation:auto;mix-blend-mode:normal;color-interpolation:sRGB;color-interpolation-filters:linearRGB;solid-color:#000000;solid-opacity:1;vector-effect:none;fill:#e03e52;fill-opacity:1;fill-rule:nonzero;stroke:none;stroke-width:0.75590551;stroke-linecap:round;stroke-linejoin:miter;stroke-miterlimit:4;stroke-dasharray:none;stroke-dashoffset:0;stroke-opacity:1;filter:url(#filter7024);color-rendering:auto;image-rendering:auto;shape-rendering:auto;text-rendering:auto;enable-background:accumulate"
       d="M 11.605469,0.99414062 C 10.570849,1.0342725 9.5272464,1.223566 8.5,1.5722656 3.0213525,3.4319969 -0.07948002,9.2318138 1.4179688,14.820312 A 0.37806458,0.37806458 0 1 0 2.1484375,14.625 C 1.9479216,13.876672 1.8465434,13.125327 1.8164062,12.380859 h 1.2421876 a 0.37799055,0.37799055 0 1 0 0,-0.755859 H 1.8066406 C 1.8898626,9.1608152 2.868751,6.8295702 4.5117188,5.0449219 L 5.4121094,5.9453125 A 0.37799055,0.37799055 0 1 0 5.9453125,5.4121094 L 5.0449219,4.5117188 C 6.0779435,3.5440033 7.3193376,2.7700969 8.7421875,2.2871094 9.6954728,1.9635159 10.665382,1.7887422 11.625,1.75 v 1.3085938 a 0.37799055,0.37799055 0 1 0 0.755859,0 V 1.7539062 c 2.46335,0.084168 4.810536,1.06305 6.607422,2.7304688 l -0.927734,0.9277344 a 0.37799055,0.37799055 0 1 0 0.535156,0.5332031 l 0.927735,-0.9277344 c 0.8075,0.8693765 1.481642,1.8858604 1.960937,3.0429688 0.482743,1.1654328 0.72653,2.3704161 0.767578,3.5644531 h -1.302734 a 0.37799055,0.37799055 0 1 0 0,0.755859 h 1.296875 c -0.09777,2.443473 -1.06727,4.78633 -2.748047,6.582032 l -0.902344,-0.902344 a 0.37799055,0.37799055 0 0 0 -0.271484,-0.113281 0.37799055,0.37799055 0 0 0 -0.263672,0.648437 L 18.964844,19.5 c -0.704019,0.647902 -1.508807,1.208815 -2.408203,1.652344 -1.343704,0.662634 -2.765107,0.993124 -4.175782,1.041015 v -1.24414 A 0.37799055,0.37799055 0 0 0 11.998047,20.564453 0.37799055,0.37799055 0 0 0 11.625,20.949219 v 1.246093 C 9.2065648,22.097929 6.8694812,21.14706 5.0683594,19.472656 L 5.9453125,18.595703 A 0.37799055,0.37799055 0 0 0 5.671875,17.947266 0.37799055,0.37799055 0 0 0 5.4121094,18.060547 L 4.5390625,18.933594 C 4.0265042,18.380806 3.5620052,17.770898 3.1699219,17.091797 A 0.3780457,0.3780457 0 1 0 2.515625,17.470703 c 2.8928485,5.010511 9.185969,6.918296 14.375,4.359375 5.189031,-2.558921 7.507059,-8.71336 5.292969,-14.0585936 C 20.523026,3.7625588 16.7366,1.2332513 12.636719,1.0039062 12.295062,0.9847942 11.950342,0.9807633 11.605469,0.99414062 Z"
       id="path1646-1-6"
       inkscape:connector-curvature="0"
       inkscape:label="2" />
    <path
       style="color:#000000;font-style:normal;font-variant:normal;font-weight:normal;font-stretch:normal;font-size:medium;line-height:normal;font-family:sans-serif;font-variant-ligatures:normal;font-variant-position:normal;font-variant-caps:normal;font-variant-numeric:normal;font-variant-alternates:normal;font-feature-settings:normal;text-indent:0;text-align:start;text-decoration:none;text-decoration-line:none;text-decoration-style:solid;text-decoration-color:#000000;letter-spacing:normal;word-spacing:normal;text-transform:none;writing-mode:lr-tb;direction:ltr;text-orientation:mixed;dominant-baseline:auto;baseline-shift:baseline;text-anchor:start;white-space:normal;shape-padding:0;clip-rule:nonzero;display:none;overflow:visible;visibility:visible;opacity:1;isolation:auto;mix-blend-mode:normal;color-interpolation:sRGB;color-interpolation-filters:linearRGB;solid-color:#000000;solid-opacity:1;vector-effect:none;fill:#e03e52;fill-opacity:1;fill-rule:nonzero;stroke:none;stroke-width:0.75590545;stroke-linecap:round;stroke-linejoin:round;stroke-miterlimit:4;stroke-dasharray:none;stroke-dashoffset:0;stroke-opacity:1;paint-order:normal;filter:url(#filter7024-17);color-rendering:auto;image-rendering:auto;shape-rendering:auto;text-rendering:auto;enable-background:accumulate"
       d="M 11.775391,1.0488281 C 9.7492107,1.0887916 7.7133988,1.6883628 5.9140625,2.890625 1.1158327,6.0966573 -0.37367365,12.484841 2.5117188,17.482422 c 0.2513019,0.4375 0.9075519,0.06055 0.65625,-0.376953 -0.8603868,-1.490214 -1.3001962,-3.111018 -1.359375,-4.72461 h 1.25 c 0.5130449,0.0092 0.5130449,-0.765081 0,-0.755859 h -1.25 C 1.8987843,9.2158172 2.8470811,6.8792985 4.5332031,5.0664062 L 5.4121094,5.9453125 C 5.7686683,6.3283751 6.3296763,5.7653121 5.9453125,5.4101562 L 5.0664062,4.53125 C 5.4584201,4.1681007 5.876176,3.825425 6.3339844,3.5195312 7.9620859,2.4316829 9.7947378,1.8792199 11.625,1.8125 v 1.2460938 c 0,0.5052078 0.757812,0.5052078 0.757812,0 V 1.8164062 c 2.395708,0.090619 4.733389,1.0203629 6.556641,2.7167969 L 18.0625,5.4101562 c -0.384366,0.3551558 0.176644,0.9182207 0.533203,0.5351563 L 19.478516,5.0625 c 0.215222,0.2322807 0.422711,0.4744809 0.61914,0.7304688 1.336843,1.7421838 2.018481,3.7843251 2.09375,5.8320312 h -1.242187 c -0.513045,-0.0092 -0.513045,0.765081 0,0.755859 h 1.242187 c -0.08874,2.38453 -1.001355,4.727671 -2.710937,6.564453 l -0.884766,-0.884765 c -0.07149,-0.07287 -0.169406,-0.113728 -0.271484,-0.113281 -0.337793,0.0021 -0.503416,0.412447 -0.261719,0.648437 l 0.876953,0.876953 c -0.07115,0.06603 -0.135557,0.136779 -0.208984,0.201172 -1.830528,1.605309 -4.080196,2.435508 -6.347657,2.519531 v -1.24414 c 0.0039,-0.214084 -0.170681,-0.388639 -0.384765,-0.384766 -0.209493,0.0027 -0.37682,0.175289 -0.373047,0.384766 v 1.25 C 9.2544809,22.111488 6.919151,21.192651 5.0683594,19.472656 l 0.8769531,-0.876953 c 0.2459664,-0.239955 0.070079,-0.657059 -0.2734375,-0.648437 -0.098003,0.0026 -0.1911443,0.04326 -0.2597656,0.113281 L 4.4765625,18.996094 C 3.992245,19.480412 3.9821493,19.480196 4.2539058,19.751953 8.3344666,23.832459 14.891764,24.047079 19.230469,20.242188 23.569173,16.437296 24.210297,9.9102422 20.697266,5.3320312 18.94075,3.0429258 16.44598,1.6320124 13.789062,1.1933594 13.124833,1.0836961 12.450784,1.035507 11.775391,1.0488281 Z"
       id="path1557-9-0"
       inkscape:connector-curvature="0"
       inkscape:label="3"
       sodipodi:nodetypes="ssccccccccccscsscccccscccccccccscccccccccccssss" />
    <path
       style="color:#000000;font-style:normal;font-variant:normal;font-weight:normal;font-stretch:normal;font-size:medium;line-height:normal;font-family:sans-serif;font-variant-ligatures:normal;font-variant-position:normal;font-variant-caps:normal;font-variant-numeric:normal;font-variant-alternates:normal;font-feature-settings:normal;text-indent:0;text-align:start;text-decoration:none;text-decoration-line:none;text-decoration-style:solid;text-decoration-color:#000000;letter-spacing:normal;word-spacing:normal;text-transform:none;writing-mode:lr-tb;direction:ltr;text-orientation:mixed;dominant-baseline:auto;baseline-shift:baseline;text-anchor:start;white-space:normal;shape-padding:0;clip-rule:nonzero;display:none;overflow:visible;visibility:visible;opacity:1;isolation:auto;mix-blend-mode:normal;color-interpolation:sRGB;color-interpolation-filters:linearRGB;solid-color:#000000;solid-opacity:1;vector-effect:none;fill:#e03e52;fill-opacity:1;fill-rule:nonzero;stroke:none;stroke-width:0.75590551;stroke-linecap:round;stroke-linejoin:miter;stroke-miterlimit:4;stroke-dasharray:none;stroke-dashoffset:0;stroke-opacity:1;filter:url(#filter7024);color-rendering:auto;image-rendering:auto;shape-rendering:auto;text-rendering:auto;enable-background:accumulate"
       d="M 11.9375,1.046875 C 11.600618,1.049115 11.264677,1.066616 10.929688,1.099609 8.249769,1.3635548 5.6661431,2.6080198 3.7636719,4.7773438 -0.04127063,9.1159916 0.17334601,15.671447 4.2539062,19.751953 A 0.37799052,0.37799052 0 0 0 4.8886719,19.617188 0.37799055,0.37799055 0 0 0 5.0097656,19.53125 L 5.9453125,18.595703 A 0.37799055,0.37799055 0 0 0 5.671875,17.947266 0.37799055,0.37799055 0 0 0 5.4121094,18.060547 L 4.5332031,18.939453 C 2.8132766,17.088309 1.8963656,14.752073 1.8085938,12.380859 h 1.25 a 0.37799055,0.37799055 0 1 0 0,-0.755859 H 1.8144531 C 1.8980406,9.35709 2.7267017,7.1058939 4.3320312,5.2753906 4.3964253,5.2019642 4.4671736,5.1375579 4.5332031,5.0664062 L 5.4121094,5.9453125 A 0.37799055,0.37799055 0 1 0 5.9453125,5.4121094 L 5.0605469,4.5273438 C 6.8970959,2.817692 9.2402889,1.9036381 11.625,1.8144531 v 1.2441407 a 0.37799055,0.37799055 0 1 0 0.755859,0 V 1.8144531 c 2.048736,0.074897 4.091225,0.756501 5.833985,2.09375 0.255991,0.1964265 0.498185,0.4039194 0.730468,0.6191407 l -0.884765,0.8847656 a 0.37799055,0.37799055 0 1 0 0.535156,0.5332031 l 0.878906,-0.8789063 c 1.696915,1.8237401 2.626616,4.1621973 2.716797,6.5585938 h -1.242187 a 0.37799055,0.37799055 0 1 0 0,0.755859 h 1.246093 c -0.06673,1.830269 -0.619169,3.662937 -1.707031,5.291016 -0.306146,0.458175 -0.650182,0.875267 -1.013672,1.267578 l -0.878906,-0.878906 a 0.37799055,0.37799055 0 0 0 -0.271484,-0.113281 0.37799055,0.37799055 0 0 0 -0.263672,0.648437 l 0.878906,0.878906 c -1.813102,1.685619 -4.149631,2.634443 -6.558594,2.72461 v -1.25 A 0.37799055,0.37799055 0 0 0 11.998047,20.564453 0.37799055,0.37799055 0 0 0 11.625,20.949219 v 1.248047 C 10.012058,22.138079 8.3919768,21.699872 6.9023438,20.839844 A 0.37804581,0.37804581 0 1 0 6.5234375,21.494141 C 11.521081,24.379493 17.909158,22.889966 21.115234,18.091797 24.321311,13.293628 23.254051,6.8215771 18.675781,3.3085938 16.672788,1.7716634 14.295675,1.0311974 11.9375,1.046875 Z"
       id="path1646-19"
       inkscape:connector-curvature="0"
       inkscape:label="4" />
    <path
       style="display:inline;opacity:1;fill:url(#linearGradient6878-2);fill-opacity:1;fill-rule:nonzero;filter:url(#filter7024)"
       inkscape:connector-curvature="0"
       id="path6434-5"
       d="m 16.165443,7.7048624 a 0.37487,0.37487 0 0 0 -0.53027,0.001 l -2.95538,2.9562996 a 1.48674,1.48674 0 0 0 -0.67157,-0.16528 1.50812,1.50812 0 1 0 1.24121,0.65619 l 2.917,-2.9179096 a 0.37486,0.37486 0 0 0 -9.9e-4,-0.5303 z m -4.15723,5.0527096 a 0.75537,0.75537 0 1 1 0.75488,-0.75586 0.75645,0.75645 0 0 1 -0.75488,0.75586 z"
       class="cls-2"
       inkscape:label="puntero" />
    <g
       id="g1168"
       transform="translate(51.818647,-72.826077)">
      <path
         inkscape:label="4"
         inkscape:connector-curvature="0"
         id="path1646-19-8"
         d="m -65.827174,4.5642804 c -0.336882,0.00224 -0.672823,0.019741 -1.007812,0.052734 -2.679919,0.2639458 -5.263545,1.5084108 -7.166016,3.6777348 -3.804943,4.3386468 -3.590326,10.8941028 0.490234,14.9746088 a 0.37799052,0.37799052 0 0 0 0.634766,-0.134765 0.37799055,0.37799055 0 0 0 0.121093,-0.08594 l 0.935547,-0.935545 a 0.37799055,0.37799055 0 0 0 -0.273437,-0.648437 0.37799055,0.37799055 0 0 0 -0.259766,0.113281 l -0.878906,0.878906 c -1.719927,-1.851144 -2.636838,-4.18738 -2.724609,-6.558594 h 1.25 a 0.37799055,0.37799055 0 1 0 0,-0.755859 h -1.244141 c 0.08359,-2.26791 0.912249,-4.519106 2.517578,-6.349609 0.06439,-0.073426 0.135142,-0.1378327 0.201172,-0.2089844 l 0.878906,0.8789063 a 0.37799055,0.37799055 0 1 0 0.533203,-0.5332031 l -0.884765,-0.8847656 c 1.836549,-1.7096518 4.179742,-2.6237057 6.564453,-2.7128907 v 1.2441407 a 0.37799055,0.37799055 0 1 0 0.755859,0 V 5.3318585 c 2.048736,0.074897 4.091225,0.756501 5.833985,2.09375 0.255991,0.1964265 0.498185,0.4039194 0.730468,0.6191407 l -0.884765,0.8847656 a 0.37799055,0.37799055 0 1 0 0.535156,0.5332031 l 0.878906,-0.8789063 c 1.696915,1.8237404 2.626616,4.1621964 2.716797,6.5585934 h -1.242187 a 0.37799055,0.37799055 0 1 0 0,0.755859 h 1.246093 c -0.06673,1.830269 -0.619169,3.662937 -1.707031,5.291016 -0.306146,0.458175 -0.650182,0.875267 -1.013672,1.267578 l -0.878906,-0.878906 a 0.37799055,0.37799055 0 0 0 -0.271484,-0.113281 0.37799055,0.37799055 0 0 0 -0.263672,0.648437 l 0.878906,0.878906 c -1.813102,1.685619 -4.149631,2.634443 -6.558594,2.72461 v -1.25 a 0.37799055,0.37799055 0 0 0 -0.382812,-0.384766 0.37799055,0.37799055 0 0 0 -0.373047,0.384766 v 1.248047 c -1.612942,-0.05919 -3.233023,-0.497394 -4.722656,-1.357422 a 0.37804599,0.37804599 0 1 0 -0.378907,0.654297 c 4.997644,2.885352 11.385721,1.395825 14.591797,-3.402344 3.206077,-4.798169 2.138817,-11.27022 -2.439453,-14.7832028 -2.002993,-1.5369304 -4.380106,-2.2773964 -6.738281,-2.2617188 z"
         style="color:#000000;font-style:normal;font-variant:normal;font-weight:normal;font-stretch:normal;font-size:medium;line-height:normal;font-family:sans-serif;font-variant-ligatures:normal;font-variant-position:normal;font-variant-caps:normal;font-variant-numeric:normal;font-variant-alternates:normal;font-feature-settings:normal;text-indent:0;text-align:start;text-decoration:none;text-decoration-line:none;text-decoration-style:solid;text-decoration-color:#000000;letter-spacing:normal;word-spacing:normal;text-transform:none;writing-mode:lr-tb;direction:ltr;text-orientation:mixed;dominant-baseline:auto;baseline-shift:baseline;text-anchor:start;white-space:normal;shape-padding:0;clip-rule:nonzero;display:inline;overflow:visible;visibility:visible;opacity:1;isolation:auto;mix-blend-mode:normal;color-interpolation:sRGB;color-interpolation-filters:linearRGB;solid-color:#000000;solid-opacity:1;vector-effect:none;fill:#e03e52;fill-opacity:1;fill-rule:nonzero;stroke:none;stroke-width:0.75590551;stroke-linecap:round;stroke-linejoin:miter;stroke-miterlimit:4;stroke-dasharray:none;stroke-dashoffset:0;stroke-opacity:1;filter:url(#filter7024-6);color-rendering:auto;image-rendering:auto;shape-rendering:auto;text-rendering:auto;enable-background:accumulate" />
      <path
         inkscape:label="puntero"
         class="cls-2"
         d="m -61.599231,11.222268 a 0.37487,0.37487 0 0 0 -0.53027,10e-4 l -2.95538,2.956299 a 1.48674,1.48674 0 0 0 -0.67157,-0.16528 1.50812,1.50812 0 1 0 1.24121,0.65619 l 2.917,-2.917909 a 0.37486,0.37486 0 0 0 -9.9e-4,-0.5303 z m -4.15723,5.052709 a 0.75537,0.75537 0 1 1 0.75488,-0.75586 0.75645,0.75645 0 0 1 -0.75488,0.75586 z"
         id="path6434-5-7"
         inkscape:connector-curvature="0"
         style="display:inline;opacity:1;fill:url(#linearGradient6878-2-2);fill-opacity:1;fill-rule:nonzero;filter:url(#filter7024-6)" />
    </g>
    <g
       id="g1164"
       transform="translate(51.39581,-102.52456)">
      <path
         sodipodi:nodetypes="ssccccccccccscsscccccscccccccccscccccccccccssss"
         inkscape:label="3"
         inkscape:connector-curvature="0"
         id="path1557-9-0-3"
         d="m -93.565155,34.265758 c -2.02618,0.03996 -4.061992,0.639535 -5.861329,1.841797 -4.798226,3.206033 -6.287736,9.594216 -3.402346,14.591797 0.2513,0.4375 0.90755,0.06055 0.65625,-0.376953 -0.86038,-1.490214 -1.30019,-3.111018 -1.35937,-4.72461 h 1.25 c 0.51304,0.0092 0.51304,-0.765081 0,-0.755859 h -1.25 c 0.0902,-2.409183 1.03848,-4.745701 2.72461,-6.558594 l 0.878903,0.878907 c 0.356559,0.383062 0.917567,-0.180001 0.533203,-0.535157 l -0.878906,-0.878906 c 0.392014,-0.363149 0.80977,-0.705825 1.267578,-1.011719 1.628102,-1.087848 3.460754,-1.640311 5.291016,-1.707031 v 1.246094 c 0,0.505208 0.757812,0.505208 0.757812,0 v -1.242188 c 2.395708,0.09062 4.733389,1.020363 6.556641,2.716797 l -0.876953,0.876953 c -0.384366,0.355156 0.176644,0.918221 0.533203,0.535157 l 0.882813,-0.882813 c 0.215222,0.232281 0.422711,0.474481 0.61914,0.730469 1.336843,1.742184 2.018481,3.784325 2.09375,5.832031 h -1.242187 c -0.513045,-0.0092 -0.513045,0.765081 0,0.755859 h 1.242187 c -0.08874,2.38453 -1.001355,4.727671 -2.710937,6.564453 l -0.884766,-0.884765 c -0.07149,-0.07287 -0.169406,-0.113728 -0.271484,-0.113281 -0.337793,0.0021 -0.503416,0.412447 -0.261719,0.648437 l 0.876953,0.876953 c -0.07115,0.06603 -0.135557,0.136779 -0.208984,0.201172 -1.830528,1.605309 -4.080196,2.435508 -6.347657,2.519531 v -1.24414 c 0.0039,-0.214084 -0.170681,-0.388639 -0.384765,-0.384766 -0.209493,0.0027 -0.37682,0.175289 -0.373047,0.384766 v 1.25 c -2.370519,-0.08773 -4.705849,-1.006568 -6.556644,-2.726563 l 0.876956,-0.876953 c 0.245967,-0.239955 0.07008,-0.657059 -0.273437,-0.648437 -0.098,0.0026 -0.191144,0.04326 -0.259766,0.113281 l -0.935543,0.935547 c -0.48432,0.484318 -0.49442,0.484102 -0.22266,0.755859 4.08056,4.080506 10.637858,4.295126 14.976563,0.490235 4.338704,-3.804892 4.979828,-10.331946 1.466797,-14.910157 -1.756516,-2.289105 -4.251286,-3.700018 -6.908204,-4.138671 -0.664229,-0.109664 -1.338278,-0.157853 -2.013671,-0.144532 z"
         style="color:#000000;font-style:normal;font-variant:normal;font-weight:normal;font-stretch:normal;font-size:medium;line-height:normal;font-family:sans-serif;font-variant-ligatures:normal;font-variant-position:normal;font-variant-caps:normal;font-variant-numeric:normal;font-variant-alternates:normal;font-feature-settings:normal;text-indent:0;text-align:start;text-decoration:none;text-decoration-line:none;text-decoration-style:solid;text-decoration-color:#000000;letter-spacing:normal;word-spacing:normal;text-transform:none;writing-mode:lr-tb;direction:ltr;text-orientation:mixed;dominant-baseline:auto;baseline-shift:baseline;text-anchor:start;white-space:normal;shape-padding:0;clip-rule:nonzero;display:inline;overflow:visible;visibility:visible;opacity:1;isolation:auto;mix-blend-mode:normal;color-interpolation:sRGB;color-interpolation-filters:linearRGB;solid-color:#000000;solid-opacity:1;vector-effect:none;fill:#e03e52;fill-opacity:1;fill-rule:nonzero;stroke:none;stroke-width:0.75590545;stroke-linecap:round;stroke-linejoin:round;stroke-miterlimit:4;stroke-dasharray:none;stroke-dashoffset:0;stroke-opacity:1;paint-order:normal;filter:url(#filter7024-17-3);color-rendering:auto;image-rendering:auto;shape-rendering:auto;text-rendering:auto;enable-background:accumulate" />
      <path
         inkscape:label="puntero"
         class="cls-2"
         d="m -89.175103,40.921793 a 0.37487,0.37487 0 0 0 -0.53027,10e-4 l -2.95538,2.956299 a 1.48674,1.48674 0 0 0 -0.67157,-0.16528 1.50812,1.50812 0 1 0 1.24121,0.65619 l 2.917,-2.917909 a 0.37486,0.37486 0 0 0 -9.9e-4,-0.5303 z m -4.15723,5.052709 a 0.75537,0.75537 0 1 1 0.75488,-0.75586 0.75645,0.75645 0 0 1 -0.75488,0.75586 z"
         id="path6434-5-3"
         inkscape:connector-curvature="0"
         style="display:inline;opacity:1;fill:url(#linearGradient6878-2-6);fill-opacity:1;fill-rule:nonzero;filter:url(#filter7024-4)" />
    </g>
    <g
       id="g1172"
       transform="translate(42.134143,-60.451709)">
      <path
         inkscape:label="2"
         inkscape:connector-curvature="0"
         id="path1646-1-6-7"
         d="m -112.50239,-7.8335595 c -1.03462,0.040132 -2.07822,0.2294254 -3.10547,0.578125 -5.47865,1.8597313 -8.57948,7.65954861 -7.08203,13.2480466 a 0.37806521,0.37806521 0 1 0 0.73047,-0.195312 c -0.20052,-0.748328 -0.3019,-1.499673 -0.33203,-2.244141 h 1.24218 a 0.37799055,0.37799055 0 1 0 0,-0.755859 h -1.25195 c 0.0832,-2.46418499 1.06211,-4.79543 2.70508,-6.5800783 l 0.90039,0.9003906 a 0.37799055,0.37799055 0 1 0 0.5332,-0.5332031 l -0.90039,-0.9003906 c 1.03302,-0.9677155 2.27442,-1.7416219 3.69727,-2.2246094 0.95328,-0.3235935 1.92319,-0.4983672 2.88281,-0.5371094 v 1.3085938 a 0.37799055,0.37799055 0 1 0 0.75586,0 v -1.3046876 c 2.46335,0.084168 4.81054,1.06305 6.60742,2.7304688 l -0.92773,0.9277344 a 0.37799055,0.37799055 0 1 0 0.53515,0.5332031 l 0.92774,-0.9277344 c 0.8075,0.8693765 1.48164,1.8858604 1.96094,3.04296881 0.48274,1.1654323 0.72653,2.37041629 0.76757,3.56445329 h -1.30273 a 0.37799055,0.37799055 0 1 0 0,0.755859 h 1.29687 c -0.0978,2.443473 -1.06727,4.78633 -2.74804,6.5820319 l -0.90235,-0.9023439 a 0.37799055,0.37799055 0 0 0 -0.27148,-0.113281 0.37799055,0.37799055 0 0 0 -0.26367,0.648437 l 0.90429,0.9042969 c -0.70401,0.647902 -1.5088,1.208815 -2.4082,1.652344 -1.3437,0.662634 -2.76511,0.993124 -4.17578,1.041015 v -1.24414 a 0.37799055,0.37799055 0 0 0 -0.38281,-0.384766 0.37799055,0.37799055 0 0 0 -0.37305,0.384766 v 1.246093 c -2.41843,-0.09738 -4.75552,-1.048252 -6.55664,-2.722656 l 0.87695,-0.8769529 a 0.37799055,0.37799055 0 0 0 -0.27343,-0.648437 0.37799055,0.37799055 0 0 0 -0.25977,0.113281 l -0.87305,0.8730469 c -0.51256,-0.5527879 -0.97705,-1.1626959 -1.36914,-1.8417969 a 0.3780457,0.3780457 0 1 0 -0.65429,0.378906 c 2.89284,5.0105109 9.18596,6.9182959 14.375,4.3593749 5.18903,-2.558921 7.507055,-8.7133599 5.29296,-14.0585937 -1.66056,-4.0089256 -5.44699,-6.5382331 -9.54687,-6.7675782 -0.34166,-0.019112 -0.68638,-0.023143 -1.03125,-0.00977 z"
         style="color:#000000;font-style:normal;font-variant:normal;font-weight:normal;font-stretch:normal;font-size:medium;line-height:normal;font-family:sans-serif;font-variant-ligatures:normal;font-variant-position:normal;font-variant-caps:normal;font-variant-numeric:normal;font-variant-alternates:normal;font-feature-settings:normal;text-indent:0;text-align:start;text-decoration:none;text-decoration-line:none;text-decoration-style:solid;text-decoration-color:#000000;letter-spacing:normal;word-spacing:normal;text-transform:none;writing-mode:lr-tb;direction:ltr;text-orientation:mixed;dominant-baseline:auto;baseline-shift:baseline;text-anchor:start;white-space:normal;shape-padding:0;clip-rule:nonzero;display:inline;overflow:visible;visibility:visible;opacity:1;isolation:auto;mix-blend-mode:normal;color-interpolation:sRGB;color-interpolation-filters:linearRGB;solid-color:#000000;solid-opacity:1;vector-effect:none;fill:#e03e52;fill-opacity:1;fill-rule:nonzero;stroke:none;stroke-width:0.75590551;stroke-linecap:round;stroke-linejoin:miter;stroke-miterlimit:4;stroke-dasharray:none;stroke-dashoffset:0;stroke-opacity:1;filter:url(#filter7024-5);color-rendering:auto;image-rendering:auto;shape-rendering:auto;text-rendering:auto;enable-background:accumulate" />
      <path
         inkscape:label="puntero"
         class="cls-2"
         d="m -107.94242,-1.1228377 a 0.37487,0.37487 0 0 0 -0.53027,0.001 l -2.95538,2.9562998 a 1.48674,1.48674 0 0 0 -0.67157,-0.16528 1.50812,1.50812 0 1 0 1.24121,0.65619 l 2.917,-2.91790979 a 0.37486,0.37486 0 0 0 -9.9e-4,-0.53030001 z m -4.15723,5.0527098 a 0.75537,0.75537 0 1 1 0.75488,-0.75586 0.75645,0.75645 0 0 1 -0.75488,0.75586 z"
         id="path6434-5-1"
         inkscape:connector-curvature="0"
         style="display:inline;opacity:1;fill:url(#linearGradient6878-2-0);fill-opacity:1;fill-rule:nonzero;filter:url(#filter7024-5)" />
    </g>
  </g>
</svg>
