<svg id="Iconos_Trazados" data-name="Iconos Trazados" xmlns="http://www.w3.org/2000/svg" viewBox="0 0 24.00706 24.00706">
  <defs>
    <style>
      .cls-1 {
        fill: #e03e52;
      }

      .cls-2 {
        fill: #444343;
      }
    </style>
  </defs>
  <title>iconos_palmaactiva-def</title>
  <g>
    <path class="cls-1" d="M13.64912,19.03418q-.37354,0-.751-.03613A7.54761,7.54761,0,0,1,14.22041,3.96191a7.547,7.547,0,0,1,6.67578,9.62988.14885.14885,0,0,0,.00586.10938l1.9668,3.93262a.37436.37436,0,0,1-.043.40332.37909.37909,0,0,1-.38574.12793l-3.75879-.96973a.16825.16825,0,0,0-.14258.03809A7.49046,7.49046,0,0,1,13.64912,19.03418Zm.00781-14.34277a6.79707,6.79707,0,1,0,4.39551,11.97168.90939.90939,0,0,1,.81543-.19434l2.96191.76367-1.59766-3.19336a.89347.89347,0,0,1-.05566-.65918A6.79725,6.79725,0,0,0,14.16572,4.71C13.9958,4.69727,13.82587,4.69141,13.65693,4.69141Z"/>
    <g>
      <path class="cls-2" d="M10.25263,18.75391a6.21,6.21,0,0,1-4.832-.74414.86817.86817,0,0,0-.79883-.06641L2.08466,19.02344l.99609-3.07227a.86158.86158,0,0,0-.03906-.62891A6.24217,6.24217,0,0,1,7.30732,6.62109a.37455.37455,0,0,0-.166-.73047,6.96968,6.96968,0,0,0-5.41992,7.10449,7.66532,7.66532,0,0,0,.64648,2.72363l-1.251,3.85645a.37545.37545,0,0,0,.35645.49121.36457.36457,0,0,0,.14648-.03027l3.29395-1.40234a.12123.12123,0,0,1,.11035.0127,6.937,6.937,0,0,0,5.41211.834.3747.3747,0,0,0-.18359-.72656Z"/>
      <path class="cls-2" d="M17.25752,9.23633H15.56611V8.39551a.3751.3751,0,0,0-.375-.375H12.74482a.3751.3751,0,0,0-.375.375v.84082h-1.6875a.3751.3751,0,0,0-.375.375v4.62012a.3751.3751,0,0,0,.375.375h6.5752a.3751.3751,0,0,0,.375-.375V9.61133A.3751.3751,0,0,0,17.25752,9.23633Zm-4.1377-.46582h1.69629v.46582H13.11982Zm3.7627,5.08594h-5.8252V9.98633h5.8252Z"/>
    </g>
  </g>
</svg>
