<svg id="Iconos_Trazados" data-name="Iconos Trazados" xmlns="http://www.w3.org/2000/svg" viewBox="0 0 24.00706 24.00706">
  <defs>
    <style>
      .cls-1 {
        fill: #444343;
      }

      .cls-2 {
        fill: #e03f52;
      }
    </style>
  </defs>
  <title>iconos_palmaactiva-def</title>
  <g>
    <path class="cls-1" d="M11.99123,17.25879a1.37453,1.37453,0,0,1-.97559-.4043L9.64748,15.48438a.62863.62863,0,0,0-.43555-.18359l-2.01465-.02637a1.37382,1.37382,0,0,1-1.36035-1.3457l-.04883-1.99707a.62722.62722,0,0,0-.1748-.41895L4.251,10.09082a1.38356,1.38356,0,0,1-.02344-1.88477l1.417-1.55176a.63109.63109,0,0,0,.165-.4082l.0459-1.87988a1.37886,1.37886,0,0,1,1.335-1.34473L9.208,2.957a.62732.62732,0,0,0,.41211-.17187l1.45313-1.375a1.381,1.381,0,0,1,1.8457-.0459l1.64844,1.41113a.63178.63178,0,0,0,.376.15039l1.89063.09863a1.376,1.376,0,0,1,1.30566,1.29785L18.249,6.26465a.6321.6321,0,0,0,.15039.373l1.41016,1.64844a1.37606,1.37606,0,0,1,.00488,1.78711L18.5,11.62891a.627.627,0,0,0-.14551.3457l-.2002,2.07715a1.37887,1.37887,0,0,1-1.34375,1.24707l-1.959.04a.62511.62511,0,0,0-.41211.165l-1.51465,1.39063A1.3784,1.3784,0,0,1,11.99123,17.25879Zm.03027-15.47656a.6294.6294,0,0,0-.43262.17285l-1.45312,1.375a1.37848,1.37848,0,0,1-.9043.377l-2.01758.06445a.62762.62762,0,0,0-.6084.6123l-.0459,1.87988a1.37808,1.37808,0,0,1-.36035.89648l-1.417,1.55176a.63026.63026,0,0,0,.00977.85938l1.3623,1.42187a1.37692,1.37692,0,0,1,.38379.91895l.04883,1.999a.62537.62537,0,0,0,.62012.61328h0l2.01367.02637a1.36309,1.36309,0,0,1,.958.4043l1.36816,1.36914a.62734.62734,0,0,0,.87012.01758l1.51465-1.39062a1.37911,1.37911,0,0,1,.9043-.3623l1.959-.04a.63041.63041,0,0,0,.61328-.56934l.2002-2.07715a1.36539,1.36539,0,0,1,.31934-.75781l1.31445-1.55566a.62865.62865,0,0,0-.00293-.81543L17.8301,7.126a1.38517,1.38517,0,0,1-.3291-.81836l-.10937-1.94238a.62953.62953,0,0,0-.59668-.59277l-1.89063-.09863a1.37983,1.37983,0,0,1-.82422-.32812L12.43069,1.93457A.62629.62629,0,0,0,12.02151,1.78223Z"/>
    <g>
      <path class="cls-2" d="M16.752,9.166a4.77734,4.77734,0,1,0-4.77734,4.77734A4.78333,4.78333,0,0,0,16.752,9.166Zm-4.77734,4.02734A4.02734,4.02734,0,1,1,16.002,9.166,4.03188,4.03188,0,0,1,11.97463,13.19336Z"/>
      <path class="cls-2" d="M10.74709,18.23145a.37432.37432,0,0,0-.48828.20508L8.91506,21.72266,8.05276,20.126a.37929.37929,0,0,0-.44043-.18066l-1.7334.53516L7.2217,17.19434a.37448.37448,0,0,0-.69336-.2832L4.88479,20.93164a.371.371,0,0,0,.07031.39453.3763.3763,0,0,0,.38672.10547l2.19727-.67871,1.09277,2.02344a.37405.37405,0,0,0,.33008.19727l.02051-.001a.373.373,0,0,0,.32617-.23242l1.64355-4.02051A.373.373,0,0,0,10.74709,18.23145Z"/>
      <path class="cls-2" d="M19.41116,20.93164,17.7676,16.91113a.37448.37448,0,0,0-.69336.2832L18.417,20.48047l-1.73437-.53516a.38076.38076,0,0,0-.44043.18066l-.86133,1.59668-1.34473-3.28613a.37448.37448,0,1,0-.69336.2832l1.64453,4.02051a.37158.37158,0,0,0,.32715.23242l.01953.001a.37405.37405,0,0,0,.33008-.19727l1.0918-2.02344,2.19823.67871a.37579.37579,0,0,0,.38673-.10547A.371.371,0,0,0,19.41116,20.93164Z"/>
    </g>
  </g>
</svg>
