<?xml version="1.0" encoding="UTF-8" standalone="no"?>
<!-- Created with Inkscape (http://www.inkscape.org/) -->

<svg
   width="6.3518701mm"
   height="6.3518701mm"
   viewBox="0 0 6.3518701 6.35187"
   version="1.1"
   id="svg837"
   inkscape:version="1.3.2 (091e20e, 2023-11-25, custom)"
   sodipodi:docname="ubicacion.svg"
   xmlns:inkscape="http://www.inkscape.org/namespaces/inkscape"
   xmlns:sodipodi="http://sodipodi.sourceforge.net/DTD/sodipodi-0.dtd"
   xmlns="http://www.w3.org/2000/svg"
   xmlns:svg="http://www.w3.org/2000/svg"
   xmlns:rdf="http://www.w3.org/1999/02/22-rdf-syntax-ns#"
   xmlns:cc="http://creativecommons.org/ns#"
   xmlns:dc="http://purl.org/dc/elements/1.1/">
  <defs
     id="defs831" />
  <sodipodi:namedview
     id="base"
     pagecolor="#ffffff"
     bordercolor="#666666"
     borderopacity="1.0"
     inkscape:pageopacity="0.0"
     inkscape:pageshadow="2"
     inkscape:zoom="5.6"
     inkscape:cx="11.25"
     inkscape:cy="-2.5892857"
     inkscape:document-units="mm"
     inkscape:current-layer="layer2"
     showgrid="false"
     inkscape:window-width="1920"
     inkscape:window-height="1009"
     inkscape:window-x="-8"
     inkscape:window-y="-8"
     inkscape:window-maximized="1"
     inkscape:showpageshadow="2"
     inkscape:pagecheckerboard="0"
     inkscape:deskcolor="#d1d1d1" />
  <metadata
     id="metadata834">
    <rdf:RDF>
      <cc:Work
         rdf:about="">
        <dc:format>image/svg+xml</dc:format>
        <dc:type
           rdf:resource="http://purl.org/dc/dcmitype/StillImage" />
        <dc:title />
      </cc:Work>
    </rdf:RDF>
  </metadata>
  <g
     inkscape:groupmode="layer"
     id="layer3"
     inkscape:label="texto">
    <text
       xml:space="preserve"
       style="font-style:normal;font-weight:normal;font-size:0.352778px;line-height:3.1;font-family:sans-serif;letter-spacing:0px;word-spacing:0px;fill:#000000;fill-opacity:1;stroke:none;stroke-width:0.264583"
       x="0.73384225"
       y="-4.3469734"
       id="text1437"><tspan
         sodipodi:role="line"
         id="tspan1435"
         x="0.73384225"
         y="-4.3469734"
         style="font-size:0.352778px;line-height:3.1;stroke-width:0.264583">Trazado</tspan></text>
    <text
       xml:space="preserve"
       style="font-style:normal;font-weight:normal;font-size:0.352778px;line-height:3.1;font-family:sans-serif;letter-spacing:0px;word-spacing:0px;fill:#000000;fill-opacity:1;stroke:none;stroke-width:0.264583"
       x="4.0838084"
       y="-4.3533235"
       id="text1437-8"><tspan
         sodipodi:role="line"
         id="tspan1435-6"
         x="4.0838084"
         y="-4.3533235"
         style="font-size:0.352778px;line-height:3.1;stroke-width:0.264583">Contorno</tspan></text>
  </g>
  <g
     inkscape:label="icono"
     inkscape:groupmode="layer"
     id="layer1"
     transform="translate(0,-290.64813)">
    <g
       id="g1"
       transform="matrix(1.0499994,0,0,1.0499994,-0.15877853,-14.691001)">
      <path
         sodipodi:nodetypes="cscccccc"
         class="cls-2"
         d="m 2.1766021,295.30778 c -0.4800492,-0.65856 -0.8535781,-1.40463 -0.8526541,-2.24137 0.00112,-1.00685 0.8376523,-1.81526 1.8520299,-1.79188 1.0143388,-0.0234 1.8498987,0.78508 1.8519148,1.79188 0,1.04981 -0.9169056,2.40316 -1.4633833,3.11644 -0.09198,0.12087 -0.2359862,0.1918 -0.3886426,0.19119 -0.1526243,5.7e-4 -0.2965926,-0.0704 -0.3885437,-0.19119 -0.061301,-0.0804 -0.1307845,-0.17281 -0.2052827,-0.276"
         id="path10"
         inkscape:connector-curvature="0"
         style="fill:none;fill-opacity:1;stroke:#e03e52;stroke-width:0.199995;stroke-linecap:round;stroke-linejoin:round;stroke-miterlimit:4;stroke-dasharray:none;stroke-opacity:1" />
      <path
         inkscape:label="path1433"
         d="m 2.8097618,293.67186 a 0.71157205,0.70608699 0 0 1 -0.2455093,-0.9662 0.71157205,0.70608699 0 0 1 0.9726619,-0.2477 0.71157205,0.70608699 0 0 1 0.2537404,0.9641 0.71157205,0.70608699 0 0 1 -0.9705146,0.25587"
         sodipodi:open="true"
         sodipodi:end="2.0943951"
         sodipodi:start="2.1113201"
         sodipodi:ry="0.70608699"
         sodipodi:rx="0.71157205"
         sodipodi:cy="293.06644"
         sodipodi:cx="3.1759262"
         sodipodi:type="arc"
         id="path1433"
         style="display:inline;fill:none;fill-opacity:1;fill-rule:nonzero;stroke:#e03e52;stroke-width:0.2;stroke-linecap:round;stroke-linejoin:round;stroke-miterlimit:4;stroke-dasharray:none;stroke-opacity:1;paint-order:normal"
         sodipodi:arc-type="arc" />
    </g>
  </g>
  <g
     inkscape:groupmode="layer"
     id="layer2"
     inkscape:label="referencia">
    <g
       transform="translate(-0.4501613,-291.06294)"
       id="g1491"
       inkscape:label="trazado">
      <path
         class="cls-2"
         d="m 1.8307878,290.25552 a 0.31182733,0.31182733 0 0 1 -0.2500312,-0.12396 c -0.039449,-0.052 -0.084161,-0.11209 -0.1321012,-0.17899 a 0.10779919,0.10779919 0 1 1 0.1751992,-0.12564 c 0.046678,0.0651 0.090268,0.1236 0.1286616,0.17414 a 0.10149946,0.10149946 0 0 0 0.1566703,-7e-5 c 0.269965,-0.35496 0.8977657,-1.24985 0.8977657,-1.89049 a 0.94045352,0.94045352 0 0 0 -0.9760956,-0.94641 0.94051437,0.94051437 0 0 0 -0.97616437,0.94641 2.8111979,2.8111979 0 0 0 0.51584237,1.33927 0.10778364,0.10778364 0 0 1 -0.1827822,0.11428 2.9633624,2.9633624 0 0 1 -0.54869027,-1.45355 1.1646747,1.1646747 0 0 1 1.19179717,-1.16203 1.1646588,1.1646588 0 0 1 1.191723,1.16203 c 0,0.6808 -0.5900367,1.55848 -0.9416997,2.02105 a 0.31186173,0.31186173 0 0 1 -0.2500948,0.12396 z"
         id="path10-7"
         inkscape:connector-curvature="0"
         style="fill:#e03e52;fill-opacity:1;stroke-width:0.264583" />
      <path
         class="cls-2"
         d="m 1.8308566,288.66805 a 0.55753794,0.55753794 0 1 1 0.5574771,-0.55754 0.55814912,0.55814912 0 0 1 -0.5574771,0.55754 z m 0,-0.89944 a 0.34190781,0.34190781 0 1 0 0.3418417,0.3419 0.34228352,0.34228352 0 0 0 -0.3418417,-0.3419 z"
         id="path12-4"
         inkscape:connector-curvature="0"
         style="fill:#e03e52;fill-opacity:1;stroke-width:0.264583" />
    </g>
    <g
       transform="translate(-0.55038737,-290.66764)"
       id="g1487"
       inkscape:label="contorno">
      <path
         sodipodi:nodetypes="cscccccc"
         class="cls-2"
         d="m 4.7785267,289.26877 c -0.3089159,-0.42709 -0.5492848,-0.91093 -0.5486902,-1.45355 7.154e-4,-0.65294 0.5390363,-1.17724 1.1917971,-1.16203 0.6527357,-0.0152 1.1904256,0.50912 1.191723,1.16203 0,0.6808 -0.5900367,1.55848 -0.9416997,2.02105 -0.059188,0.0784 -0.1518591,0.12434 -0.2500948,0.12396 -0.098215,3.6e-4 -0.1908599,-0.0456 -0.2500312,-0.12396 -0.039449,-0.052 -0.084161,-0.11209 -0.1321012,-0.17899"
         id="path10-4"
         inkscape:connector-curvature="0"
         style="fill:none;fill-opacity:1;stroke:#e03e52;stroke-width:0.2;stroke-linecap:round;stroke-linejoin:round;stroke-miterlimit:4;stroke-dasharray:none;stroke-opacity:1" />
      <path
         inkscape:label="path1433"
         d="m 5.1859355,288.20784 a 0.45789912,0.45789939 0 0 1 -0.157986,-0.62659 0.45789912,0.45789939 0 0 1 0.6259113,-0.16063 0.45789912,0.45789939 0 0 1 0.1632828,0.62522 0.45789912,0.45789939 0 0 1 -0.6245295,0.16593"
         sodipodi:open="true"
         sodipodi:end="2.0943951"
         sodipodi:start="2.1113201"
         sodipodi:ry="0.45789939"
         sodipodi:rx="0.45789912"
         sodipodi:cy="287.81522"
         sodipodi:cx="5.4215636"
         sodipodi:type="arc"
         id="path1433-4"
         style="display:inline;opacity:1;fill:none;fill-opacity:1;fill-rule:nonzero;stroke:#e03e52;stroke-width:0.2;stroke-linecap:round;stroke-linejoin:round;stroke-miterlimit:4;stroke-dasharray:none;stroke-opacity:1;paint-order:normal"
         sodipodi:arc-type="arc" />
    </g>
  </g>
</svg>
