<svg id="Iconos_Trazados" data-name="Iconos Trazados" xmlns="http://www.w3.org/2000/svg" viewBox="0 0 24.00706 24.00706">
  <defs>
    <style>
      .cls-1 {
        fill: #e03e52;
      }

      .cls-2 {
        fill: #444343;
      }
    </style>
  </defs>
  <title>iconos_palmaactiva-def</title>
  <g>
    <path class="cls-1" d="M13.11817,21.74316a9.663,9.663,0,0,1-6.30762-2.32324.33672.33672,0,0,0-.291-.07324L1.61329,20.6123a.37489.37489,0,0,1-.42871-.53125L3.752,14.94824a.32305.32305,0,0,0,.0166-.22949,9.74054,9.74054,0,1,1,10.32129,6.97754Q13.60206,21.74316,13.11817,21.74316ZM6.59278,18.58789a1.08478,1.08478,0,0,1,.7041.26172,8.94254,8.94254,0,0,0,6.7207,2.10059,8.99093,8.99093,0,0,0-1.5791-17.91113A8.99008,8.99008,0,0,0,4.48927,14.51074a1.07035,1.07035,0,0,1-.06641.77246L2.22364,19.67969,6.333,18.62012A1.06919,1.06919,0,0,1,6.59278,18.58789Z"/>
    <path class="cls-2" d="M20.752,11.834H18.968c.00012-.027.00269-.0531.00269-.08008a15.28,15.28,0,0,0-.45978-3.74609h.70587a.375.375,0,0,0,0-.75h-.92358a10.40167,10.40167,0,0,0-1.15845-2.51758.37542.37542,0,0,0-.62891.41016,9.45,9.45,0,0,1,1.003,2.10742h-3.837V4.11523a.375.375,0,0,0-.75,0V7.25781H9.08509a9.4524,9.4524,0,0,1,1.00378-2.1084A.37542.37542,0,1,0,9.46,4.73926,10.42093,10.42093,0,0,0,8.30109,7.25781H6.59669a.375.375,0,0,0,0,.75H8.08326a15.27224,15.27224,0,0,0-.46021,3.74609c0,.027.00256.0531.00269.08008H5.06153a.375.375,0,0,0,0,.75H7.65107a14.32715,14.32715,0,0,0,.74286,3.95313H6.59669a.375.375,0,0,0,0,.75H8.68433A9.08959,9.08959,0,0,0,9.834,19.293a.37538.37538,0,0,0,.2959.14453.37054.37054,0,0,0,.23047-.0791.37567.37567,0,0,0,.06543-.52637,8.00815,8.00815,0,0,1-.92-1.54492h3.41614v2.61133a.375.375,0,0,0,.75,0V17.28711h3.41656a8.0006,8.0006,0,0,1-.91949,1.54395.37555.37555,0,0,0,.06543.52637.37052.37052,0,0,0,.23047.0791.37538.37538,0,0,0,.2959-.14453,9.10145,9.10145,0,0,0,1.14844-2.00488H19.2168a.375.375,0,0,0,0-.75H18.19959a14.32886,14.32886,0,0,0,.7431-3.95312H20.752a.375.375,0,0,0,0-.75ZM17.7356,8.00781a14.44124,14.44124,0,0,1,.48511,3.74609c0,.02692-.00262.05322-.00275.08008H13.67188V8.00781ZM8.37305,11.75391a14.43668,14.43668,0,0,1,.48517-3.74609h4.06366V11.834H8.3758C8.37568,11.80713,8.37305,11.78082,8.37305,11.75391Zm.8175,4.7832a13.60577,13.60577,0,0,1-.789-3.95312h4.52032v3.95313Zm8.213,0H13.67188V12.584h4.52039A13.607,13.607,0,0,1,17.40351,16.53711Z"/>
  </g>
</svg>
