<svg id="Iconos_Trazados" data-name="Iconos Trazados" xmlns="http://www.w3.org/2000/svg" viewBox="0 0 24.00706 24.00706">
  <defs>
    <style>
      .cls-1 {
        fill: #e03f52;
      }

      .cls-2 {
        fill: #454344;
      }
    </style>
  </defs>
  <title>iconos_palmaactiva-def</title>
  <g>
    <g>
      <path class="cls-1" d="M8.45188,7.97461a.37487.37487,0,0,0,.53027.001l1.34723-1.34644,2.17426,2.17456a.37565.37565,0,0,0,.53125-.53125l-4.679-4.679L8.3552,3.5918l-.00165-.00067L6.00266,1.24023a.376.376,0,0,0-.53125,0L1.24,5.47168a.37783.37783,0,0,0,0,.53125l7.03223,7.03223a.37565.37565,0,0,0,.53125-.53125L2.03587,5.7373,5.737,2.03613,7.5582,3.85754,6.21165,5.2041a.37565.37565,0,0,0,.53125.53125l1.3465-1.3465,1.70978,1.71L8.45286,7.44434A.37486.37486,0,0,0,8.45188,7.97461Z"/>
      <path class="cls-1" d="M22.76731,18.00391,14.84739,10.084a.37565.37565,0,0,0-.53125.53125l2.20422,2.204-1.3468,1.3468a.37565.37565,0,0,0,.53125.53125l1.34686-1.34686,1.71,1.70978-1.34686,1.34607a.375.375,0,1,0,.5293.53125l1.3479-1.34711,2.67944,2.67914L18.26926,21.9707,10.615,14.31543a.37565.37565,0,0,0-.53125.53125l7.91992,7.91992a.3748.3748,0,0,0,.26563.10938.37093.37093,0,0,0,.26465-.10937l4.2334-4.23145a.37723.37723,0,0,0,0-.53125Z"/>
    </g>
    <g>
      <path class="cls-2" d="M17.7595,6.63867l-13.96,13.96094a.969.969,0,0,1-.67871.26465.90458.90458,0,0,1-.65723-.3252.9192.9192,0,0,1-.09375-.99316.37474.37474,0,0,0-.67383-.32812A1.64059,1.64059,0,0,0,3.0886,21.61328c.02344.001.04688.001.07031.001a1.6565,1.6565,0,0,0,1.1709-.48437l13.96094-13.96a.37565.37565,0,0,0-.53125-.53125Z"/>
      <path class="cls-2" d="M20.24094,2.877a.40258.40258,0,0,0-.39746-.09277l-2.56641.85449a.97275.97275,0,0,0-.36816.22754L2.79856,17.97656a.37783.37783,0,0,0,0,.53125l.95313.95313a.37565.37565,0,1,0,.53125-.53125l-.68726-.68726L17.51536,4.34961l1.87793-.626-.47534,1.42743-.29224-.29266a.375.375,0,0,0-.53125.5293l.71869.71967a.36942.36942,0,0,0,.43365.07819c.021-.01038.02557-.03723.044-.05127.01715-.01208.04022-.00757.0556-.02295.02234-.02234.01813-.05505.03369-.081.01563-.02545.04773-.038.05713-.06647l.89355-2.67969A.401.401,0,0,0,20.24094,2.877Z"/>
    </g>
  </g>
</svg>
