<svg id="Iconos_Trazados" data-name="Iconos Trazados" xmlns="http://www.w3.org/2000/svg" viewBox="0 0 24.00706 24.00706">
  <defs>
    <style>
      .cls-1 {
        fill: #e03e52;
      }
    </style>
  </defs>
  <title>iconos_palmaactiva-def</title>
  <g>
    <path class="cls-1" d="M8.35233,11.24023a.3748.3748,0,0,1-.26562-.10937,5.54,5.54,0,1,1,7.833-.001.375.375,0,1,1-.5293-.53125,4.78906,4.78906,0,1,0-6.77246.001.375.375,0,0,1-.26562.64063Z"/>
    <path class="cls-1" d="M21.13065,22.332a.3751.3751,0,0,1-.375-.375,8.752,8.752,0,1,0-17.50391,0,.375.375,0,0,1-.75,0,9.502,9.502,0,1,1,19.00391,0A.3751.3751,0,0,1,21.13065,22.332Z"/>
  </g>
</svg>
