<?xml version="1.0" encoding="UTF-8" standalone="no"?>
<!-- Created with Inkscape (http://www.inkscape.org/) -->

<svg
   width="6.3518701mm"
   height="6.3518701mm"
   viewBox="0 0 6.3518701 6.3518701"
   version="1.1"
   id="svg850"
   inkscape:version="1.3.2 (091e20e, 2023-11-25, custom)"
   sodipodi:docname="correo.svg"
   xmlns:inkscape="http://www.inkscape.org/namespaces/inkscape"
   xmlns:sodipodi="http://sodipodi.sourceforge.net/DTD/sodipodi-0.dtd"
   xmlns="http://www.w3.org/2000/svg"
   xmlns:svg="http://www.w3.org/2000/svg"
   xmlns:rdf="http://www.w3.org/1999/02/22-rdf-syntax-ns#"
   xmlns:cc="http://creativecommons.org/ns#"
   xmlns:dc="http://purl.org/dc/elements/1.1/">
  <defs
     id="defs844" />
  <sodipodi:namedview
     id="base"
     pagecolor="#ffffff"
     bordercolor="#666666"
     borderopacity="1.0"
     inkscape:pageopacity="0.0"
     inkscape:pageshadow="2"
     inkscape:zoom="5.6568545"
     inkscape:cx="-17.766057"
     inkscape:cy="-10.69499"
     inkscape:document-units="mm"
     inkscape:current-layer="g6"
     showgrid="false"
     inkscape:window-width="1920"
     inkscape:window-height="1009"
     inkscape:window-x="-8"
     inkscape:window-y="-8"
     inkscape:window-maximized="1"
     showguides="false"
     inkscape:showpageshadow="2"
     inkscape:pagecheckerboard="0"
     inkscape:deskcolor="#d1d1d1" />
  <metadata
     id="metadata847">
    <rdf:RDF>
      <cc:Work
         rdf:about="">
        <dc:format>image/svg+xml</dc:format>
        <dc:type
           rdf:resource="http://purl.org/dc/dcmitype/StillImage" />
        <dc:title />
      </cc:Work>
    </rdf:RDF>
  </metadata>
  <g
     inkscape:groupmode="layer"
     id="layer5"
     inkscape:label="texto">
    <text
       xml:space="preserve"
       style="font-size:0.788758px;line-height:0;fill:#000000;stroke-width:0.147892"
       x="-4.3798566"
       y="284.8143"
       id="text8"
       transform="translate(0,-290.64813)"><tspan
         sodipodi:role="line"
         id="tspan8"
         style="stroke-width:0.147892"
         x="-4.3798566"
         y="284.8143">Opcion 1</tspan></text>
    <text
       xml:space="preserve"
       style="font-size:0.788758px;line-height:0;fill:#000000;stroke-width:0.147892"
       x="1.5165795"
       y="284.8143"
       id="text8-5"
       transform="translate(0,-290.64813)"><tspan
         sodipodi:role="line"
         id="tspan8-5"
         style="stroke-width:0.147892"
         x="1.5165795"
         y="284.8143">Opcion 2</tspan></text>
    <text
       xml:space="preserve"
       style="font-size:0.788758px;line-height:0;fill:#000000;stroke-width:0.147892"
       x="7.4875646"
       y="284.8143"
       id="text8-6"
       transform="translate(0,-290.64813)"><tspan
         sodipodi:role="line"
         id="tspan8-7"
         style="stroke-width:0.147892"
         x="7.4875646"
         y="284.8143">Opcion 3</tspan></text>
  </g>
  <g
     inkscape:groupmode="layer"
     id="layer4"
     inkscape:label="referencia">
    <path
       id="XMLID_4295_-9-6"
       style="fill:none;stroke:#e03e52;stroke-width:0.2;stroke-miterlimit:4;stroke-dasharray:none;stroke-opacity:1"
       d="M 14.718238,12.65034 H 9.5430932 c -0.041448,0 -0.075356,-0.0363 -0.075356,-0.0807 V 9.2939799 c 0,-0.0443 0.03391,-0.0807 0.075356,-0.0807 H 14.71825 c 0.04145,0 0.07536,0.0363 0.07536,0.0807 V 12.56964 c 0,0.0443 -0.03391,0.0807 -0.07537,0.0807 z"
       inkscape:connector-curvature="0" />
    <g
       id="g7"
       transform="translate(3.0724253,-290.64852)">
      <path
         id="XMLID_4295_-3"
         style="fill:none;stroke:#e03e52;stroke-width:0.2;stroke-miterlimit:4;stroke-dasharray:none;stroke-opacity:1"
         d="M 5.748927,303.25467 H 0.5737811 c -0.041447,0 -0.075356,-0.0339 -0.075356,-0.0754 v -3.06074 c 0,-0.0414 0.03391,-0.0754 0.075356,-0.0754 h 5.1751575 c 0.041448,0 0.075356,0.0339 0.075356,0.0754 v 3.06074 c 0,0.0414 -0.03391,0.0754 -0.075368,0.0754 z"
         inkscape:connector-curvature="0" />
      <path
         id="XMLID_4294_-9"
         style="fill:#ffffff;fill-opacity:1;stroke:#e03e52;stroke-width:0.2;stroke-miterlimit:4;stroke-dasharray:none;stroke-opacity:1"
         d="m 0.6417835,300.59122 2.3336309,1.53841 c 0.1025586,0.0676 0.2297896,0.0681 0.3327686,10e-4 l 2.3708074,-1.53841 C 5.9699985,300.40339 5.8501052,299.906 5.5135801,299.906 H 0.8091426 c -0.3353238,-1e-5 -0.4561624,0.49456 -0.1673591,0.68494 z"
         inkscape:connector-curvature="0" />
    </g>
    <g
       id="g8"
       transform="translate(3.0724253,-290.64236)">
      <path
         id="XMLID_4295_"
         style="fill:none;stroke:#e03e52;stroke-width:0.2;stroke-miterlimit:4;stroke-dasharray:none;stroke-opacity:1"
         d="m -0.1188134,303.29271 h -5.1751458 c -0.041447,0 -0.075356,-0.0363 -0.075356,-0.0807 v -3.27566 c 0,-0.0443 0.03391,-0.0807 0.075356,-0.0807 h 5.1751573 c 0.041448,0 0.075356,0.0363 0.075356,0.0807 v 3.27566 c 0,0.0443 -0.03391,0.0807 -0.0753675,0.0807 z"
         inkscape:connector-curvature="0" />
      <path
         id="XMLID_4294_"
         style="fill:#ffffff;fill-opacity:1;stroke:#e03e52;stroke-width:0.2;stroke-miterlimit:4;stroke-dasharray:none;stroke-opacity:1"
         d="m -5.2078988,300.53577 2.3173251,1.52697 c 0.1018421,0.0671 0.228184,0.0676 0.3304435,10e-4 l 2.354242,-1.52698 c 0.2889746,-0.18743 0.169919,-0.68111 -0.1642546,-0.68111 h -4.6715663 c -0.3329808,-1e-5 -0.4529751,0.49087 -0.1661897,0.67984 z"
         inkscape:connector-curvature="0" />
    </g>
    <g
       id="g5"
       transform="translate(0.1257789,-275.72124)">
      <rect
         style="fill:none;fill-opacity:1;fill-rule:nonzero;stroke:#e03e52;stroke-width:0.2;stroke-linecap:round;stroke-linejoin:round;stroke-miterlimit:4;stroke-dasharray:none;stroke-opacity:1;paint-order:normal"
         id="rect1478-9"
         width="5.3260002"
         height="3.154"
         x="-8.5675192"
         y="285.07605"
         ry="0.0083521726"
         rx="0.0083521726" />
      <path
         style="fill:none;stroke:#e03e52;stroke-width:0.2;stroke-linecap:round;stroke-linejoin:round;stroke-miterlimit:4;stroke-dasharray:none;stroke-opacity:1"
         d="m -8.5663205,285.34901 2.6618017,1.71851 2.6618014,-1.71851"
         id="path1452-8"
         inkscape:connector-curvature="0"
         sodipodi:nodetypes="ccc" />
    </g>
  </g>
  <g
     inkscape:label="icono"
     inkscape:groupmode="layer"
     id="layer1"
     transform="translate(0,-290.64813)">
    <g
       id="g6"
       inkscape:label="opcion4">
      <rect
         style="opacity:1;fill:none;fill-opacity:1;fill-rule:nonzero;stroke:#e03e52;stroke-width:0.2;stroke-linecap:round;stroke-linejoin:round;stroke-miterlimit:4;stroke-dasharray:none;stroke-opacity:1;paint-order:normal"
         id="rect1478-9-0"
         width="5.3260002"
         height="3.154"
         x="0.51293492"
         y="292.47635"
         ry="0.0083521726"
         rx="0.0083521726" />
      <path
         style="opacity:1;fill:none;stroke:#e03e52;stroke-width:0.2;stroke-linecap:round;stroke-linejoin:round;stroke-miterlimit:4;stroke-dasharray:none;stroke-opacity:1"
         d="m 0.51293492,292.54456 c 0,0 2.41650748,1.71851 2.66180168,1.71851 0.2452942,0 2.6618015,-1.71851 2.6618015,-1.71851"
         id="path1452-8-4"
         inkscape:connector-curvature="0"
         sodipodi:nodetypes="czc" />
      <path
         style="opacity:1;fill:none;stroke:#e03e52;stroke-width:0.2;stroke-linecap:round;stroke-linejoin:round;stroke-miterlimit:4;stroke-dasharray:none;stroke-opacity:1"
         d="m 0.51413331,295.35511 1.33090079,-0.85926 c 0.090593,-0.0585 0.1605444,-0.10365 0.2495439,-0.16111 m 2.1627139,0 c 0.090593,0.0585 0.1605444,0.10365 0.2495439,0.16111 l 1.3309009,0.85926"
         id="path1452-8-4-7"
         inkscape:connector-curvature="0"
         sodipodi:nodetypes="cccccc" />
    </g>
    <g
       id="g2"
       transform="translate(-3.115194,0.60803815)"
       inkscape:label="opcion3">
      <rect
         style="fill:none;fill-opacity:1;fill-rule:nonzero;stroke:#e03e52;stroke-width:0.2;stroke-linecap:round;stroke-linejoin:round;stroke-miterlimit:4;stroke-dasharray:none;stroke-opacity:1;paint-order:normal"
         id="rect1478-9-0-0"
         width="5.3260002"
         height="3.154"
         x="9.5933886"
         y="285.05127"
         ry="0.0083521726"
         rx="0.0083521726" />
      <path
         style="fill:none;stroke:#e03e52;stroke-width:0.2;stroke-linecap:round;stroke-linejoin:round;stroke-miterlimit:4;stroke-dasharray:none;stroke-opacity:1"
         d="m 9.5933886,285.11947 c 0,0 2.4165074,1.71851 2.6618014,1.71851 0.245294,0 2.661802,-1.71851 2.661802,-1.71851"
         id="path1452-8-4-0"
         inkscape:connector-curvature="0"
         sodipodi:nodetypes="czc" />
      <path
         style="fill:none;stroke:#e03e52;stroke-width:0.2;stroke-linecap:round;stroke-linejoin:round;stroke-miterlimit:4;stroke-dasharray:none;stroke-opacity:1"
         d="m 9.5945876,287.93002 1.3309004,-0.85926 c 0.09059,-0.0585 0.160544,-0.10365 0.249544,-0.16111 m 2.162713,0 c 0.09059,0.0585 0.160545,0.10365 0.249544,0.16111 l 1.330901,0.85926"
         id="path1452-8-4-7-8"
         inkscape:connector-curvature="0"
         sodipodi:nodetypes="cccccc" />
      <path
         style="fill:none;stroke:#e03e52;stroke-width:0.2;stroke-linecap:round;stroke-linejoin:round;stroke-miterlimit:4;stroke-dasharray:none;stroke-opacity:1"
         d="m 12.838658,286.58744 0.08318,0.0537 0.332725,0.21481 0.332725,0.21481 0.332725,0.21482 0.332725,0.21481 0.332726,0.21482 0.332725,0.21481"
         id="path1452-8-0-2"
         inkscape:connector-curvature="0"
         sodipodi:nodetypes="cccccccc" />
    </g>
    <g
       id="g3"
       transform="translate(-3.1151941,0.60804354)"
       inkscape:label="opcion2">
      <path
         style="fill:none;fill-opacity:1;fill-rule:nonzero;stroke:#e03e52;stroke-width:0.2;stroke-linecap:round;stroke-linejoin:round;stroke-miterlimit:4;stroke-dasharray:none;stroke-opacity:1;paint-order:normal"
         d="m 8.9499706,285.61524 v 1.02955 1.57 c 0,0.005 -0.0037,0.007 -0.0084,0.007 H 3.633131 c -0.00463,0 -0.00835,-0.004 -0.00835,-0.007 v -3.13999 c 0,-0.005 0.00372,-0.007 0.00835,-0.007 h 2.6542456 1.658903 0.51737"
         id="rect1478"
         inkscape:connector-curvature="0"
         sodipodi:nodetypes="ccssssssssc" />
      <path
         style="fill:none;stroke:#e03e52;stroke-width:0.2;stroke-linecap:round;stroke-linejoin:round;stroke-miterlimit:4;stroke-dasharray:none;stroke-opacity:1"
         d="m 3.6259784,285.26062 2.6618022,1.71851 1.3309,-0.85925 0.332726,-0.21481 0.332725,-0.21482 0.166362,-0.1074"
         id="path1452"
         inkscape:connector-curvature="0"
         sodipodi:nodetypes="cccccc" />
    </g>
    <g
       id="g4"
       transform="translate(-3.1151941,0.60804354)"
       inkscape:label="opcion1">
      <path
         style="fill:none;fill-opacity:1;fill-rule:nonzero;stroke:#e03e52;stroke-width:0.2;stroke-linecap:round;stroke-linejoin:round;stroke-miterlimit:4;stroke-dasharray:none;stroke-opacity:1;paint-order:normal"
         d="m -2.3287807,285.07932 h 5.309296 c 0.00463,0 0.00835,0.004 0.00835,0.007 v 0.19625 0.19625 0.19625 0.19625 0.785 1.56999 c 0,0.005 -0.00372,0.007 -0.00835,0.007 h -5.309296 c -0.00463,0 -0.00835,-0.004 -0.00835,-0.007 v -3.13999 c 0,-0.005 0.00373,-0.007 0.00835,-0.007 z"
         id="rect1478-1"
         inkscape:connector-curvature="0"
         sodipodi:nodetypes="ssscccccssssss" />
      <path
         style="fill:none;stroke:#e03e52;stroke-width:0.2;stroke-linecap:round;stroke-linejoin:round;stroke-miterlimit:4;stroke-dasharray:none;stroke-opacity:1"
         d="m -2.3359345,285.48229 2.66180196,1.71851 1.33090064,-0.85925 0.3327252,-0.21481 0.3327252,-0.21482 0.1663626,-0.1074"
         id="path1452-0"
         inkscape:connector-curvature="0"
         sodipodi:nodetypes="cccccc" />
    </g>
  </g>
</svg>
