<?xml version="1.0" encoding="UTF-8" standalone="no"?>
<svg
   xmlns:dc="http://purl.org/dc/elements/1.1/"
   xmlns:cc="http://creativecommons.org/ns#"
   xmlns:rdf="http://www.w3.org/1999/02/22-rdf-syntax-ns#"
   xmlns:svg="http://www.w3.org/2000/svg"
   xmlns="http://www.w3.org/2000/svg"
   xmlns:sodipodi="http://sodipodi.sourceforge.net/DTD/sodipodi-0.dtd"
   xmlns:inkscape="http://www.inkscape.org/namespaces/inkscape"
   id="Iconos_Trazados"
   data-name="Iconos Trazados"
   viewBox="0 0 24.00706 24.00706"
   version="1.1"
   sodipodi:docname="document PowerPoint.svg"
   inkscape:version="0.92.3 (2405546, 2018-03-11)">
  <metadata
     id="metadata23">
    <rdf:RDF>
      <cc:Work
         rdf:about="">
        <dc:format>image/svg+xml</dc:format>
        <dc:type
           rdf:resource="http://purl.org/dc/dcmitype/StillImage" />
        <dc:title>iconos_palmaactiva-def</dc:title>
      </cc:Work>
    </rdf:RDF>
  </metadata>
  <sodipodi:namedview
     pagecolor="#ffffff"
     bordercolor="#666666"
     borderopacity="1"
     objecttolerance="10"
     gridtolerance="10"
     guidetolerance="10"
     inkscape:pageopacity="0"
     inkscape:pageshadow="2"
     inkscape:window-width="1920"
     inkscape:window-height="1018"
     id="namedview21"
     showgrid="false"
     inkscape:zoom="23.574078"
     inkscape:cx="0.34428"
     inkscape:cy="18.46897"
     inkscape:window-x="-8"
     inkscape:window-y="-8"
     inkscape:window-maximized="1"
     inkscape:current-layer="Iconos_Trazados" />
  <defs
     id="defs4">
    <style
       id="style2">
      .cls-1 {
        fill: #e03e52;
      }
    </style>
  </defs>
  <title
     id="title6">iconos_palmaactiva-def</title>
  <path
     style="fill:#e03e52"
     inkscape:connector-curvature="0"
     id="path8"
     d="m 20.276,18.498 a 0.3751,0.3751 0 0 0 0.375,-0.375 V 6.62891 A 0.74477,0.74477 0 0 0 20.46448,6.13575 l -4.18359,-4.749 A 0.74634,0.74634 0 0 0 15.72034,1.13284 H 4.10221 A 0.74728,0.74728 0 0 0 3.35612,1.87893 v 20.249 a 0.74728,0.74728 0 0 0 0.74609,0.74609 h 15.80274 a 0.74728,0.74728 0 0 0 0.74609,-0.74609 v -1.57617 a 0.375,0.375 0 1 0 -0.75,0 l 0.0039,1.57227 L 4.10611,22.12793 4.1022,1.8828 15.41043,1.8818 c -0.0011,0.01312 -0.01123,0.02277 -0.01135,0.03613 l -0.0127,4.17676 v 0.001 a 0.749,0.749 0 0 0 0.74316,0.748 l 3.68652,0.01855 c 0.03076,0 0.0553,-0.02 0.085,-0.02509 V 18.123 a 0.3751,0.3751 0 0 0 0.37493,0.375 z m -4.13961,-12.40425 0.01074,-3.59668 3.18262,3.6123 z"
     class="cls-1" />
  <path
     style="fill:#e03e52"
     inkscape:connector-curvature="0"
     id="path10"
     d="m 6.79655,14.93262 h 10.41406 a 0.375,0.375 0 0 0 0,-0.75 H 6.79655 a 0.375,0.375 0 1 0 0,0.75 z"
     class="cls-1" />
  <path
     style="fill:#e03e52"
     inkscape:connector-curvature="0"
     id="path12"
     d="m 6.79655,12.62012 h 10.41406 a 0.375,0.375 0 0 0 0,-0.75 H 6.79655 a 0.375,0.375 0 0 0 0,0.75 z"
     class="cls-1" />
  <path
     style="fill:#e03e52"
     inkscape:connector-curvature="0"
     id="path14"
     d="M 17.34636,16.49512 H 6.66081 a 0.375,0.375 0 0 0 0,0.75 h 10.68555 a 0.375,0.375 0 0 0 0,-0.75 z"
     class="cls-1" />
  <path
     style="fill:#e03e52"
     inkscape:connector-curvature="0"
     id="path16"
     d="M 17.34636,18.80762 H 6.66081 a 0.375,0.375 0 1 0 0,0.75 h 10.68555 a 0.375,0.375 0 0 0 0,-0.75 z"
     class="cls-1" />
  <g
     aria-label="P"
     style="font-style:normal;font-variant:normal;font-weight:normal;font-stretch:normal;font-size:12.05592346px;line-height:1.25;font-family:Calibri;-inkscape-font-specification:'Calibri, Normal';font-variant-ligatures:normal;font-variant-caps:normal;font-variant-numeric:normal;text-align:start;letter-spacing:0px;word-spacing:0px;writing-mode:lr-tb;text-anchor:start;fill:#e03e52;fill-opacity:1;stroke:none;stroke-width:0.45209712"
     id="text836">
    <path
       d="m 12.071888,4.8772211 q 0,0.5710081 -0.188373,1.0301692 Q 11.695141,6.3665515 11.34194,6.6903189 10.994626,7.0140864 10.482484,7.1906869 9.9762298,7.3672873 9.269828,7.3672873 H 8.4044859 v 2.7431937 q 0,0.04709 -0.029433,0.08241 -0.023547,0.03532 -0.082414,0.05887 -0.05298,0.01766 -0.1530537,0.02943 -0.094187,0.01766 -0.2413539,0.01766 -0.1471671,0 -0.2472406,-0.01766 -0.094187,-0.01177 -0.1530538,-0.02943 -0.058867,-0.02355 -0.082414,-0.05887 -0.023547,-0.03532 -0.023547,-0.08241 V 3.0817833 q 0,-0.2354673 0.1236203,-0.3355409 0.1236203,-0.1000736 0.276674,-0.1000736 h 1.6306108 q 0.2472406,0 0.4709345,0.023547 0.2295807,0.01766 0.5356877,0.0883 0.311994,0.064754 0.629875,0.2531273 0.323768,0.1824871 0.547462,0.4532745 0.223693,0.2707873 0.341427,0.6298749 0.12362,0.3532008 0.12362,0.7829286 z m -1.065489,0.082414 q 0,-0.4650478 -0.1766,-0.7770419 Q 10.659085,3.8705986 10.400071,3.7175449 10.146944,3.5644911 9.8702695,3.5232844 9.5994822,3.4820776 9.3404682,3.4820776 H 8.4044859 v 3.0551876 h 0.9124356 q 0.4591611,0 0.7593815,-0.1177336 0.306108,-0.1177336 0.512142,-0.3237675 0.206034,-0.2119205 0.311994,-0.5003679 0.10596,-0.2943341 0.10596,-0.6357616 z"
       style="fill:#e03e52;fill-opacity:1;stroke-width:0.45209712"
       id="path820" />
  </g>
</svg>
