<?xml version="1.0" encoding="UTF-8" standalone="no"?>
<svg
   xmlns:dc="http://purl.org/dc/elements/1.1/"
   xmlns:cc="http://creativecommons.org/ns#"
   xmlns:rdf="http://www.w3.org/1999/02/22-rdf-syntax-ns#"
   xmlns:svg="http://www.w3.org/2000/svg"
   xmlns="http://www.w3.org/2000/svg"
   xmlns:sodipodi="http://sodipodi.sourceforge.net/DTD/sodipodi-0.dtd"
   xmlns:inkscape="http://www.inkscape.org/namespaces/inkscape"
   id="Capa_1"
   data-name="Capa 1"
   viewBox="0 0 400 166"
   version="1.1"
   sodipodi:docname="logo-new.svg"
   width="400"
   height="166"
   inkscape:version="0.92.3 (2405546, 2018-03-11)"
   inkscape:export-filename="F:\- QOL - PROGRAMAS -\- SAVE FOLDERS -\BRAVE DOWNLOADS\logo-new.png"
   inkscape:export-xdpi="96"
   inkscape:export-ydpi="96">
  <metadata
     id="metadata51">
    <rdf:RDF>
      <cc:Work
         rdf:about="">
        <dc:format>image/svg+xml</dc:format>
        <dc:type
           rdf:resource="http://purl.org/dc/dcmitype/StillImage" />
        <dc:title>logo</dc:title>
      </cc:Work>
    </rdf:RDF>
  </metadata>
  <sodipodi:namedview
     pagecolor="#ffffff"
     bordercolor="#666666"
     borderopacity="1"
     objecttolerance="10"
     gridtolerance="10"
     guidetolerance="10"
     inkscape:pageopacity="0"
     inkscape:pageshadow="2"
     inkscape:window-width="1920"
     inkscape:window-height="1017"
     id="namedview49"
     showgrid="false"
     inkscape:zoom="1.7450001"
     inkscape:cx="358.71549"
     inkscape:cy="68.241483"
     inkscape:window-x="-8"
     inkscape:window-y="-8"
     inkscape:window-maximized="1"
     inkscape:current-layer="layer7"
     inkscape:object-paths="false"
     inkscape:snap-smooth-nodes="false"
     inkscape:object-nodes="false"
     showguides="false" />
  <defs
     id="defs4">
    <style
       id="style2">
      .cls-1 {
        fill: #fff;
      }
    </style>
  </defs>
  <title
     id="title6">logo</title>
  <g
     inkscape:groupmode="layer"
     id="layer1"
     inkscape:label="SVG"
     style="display:inline"
     transform="translate(0,99.149518)">
    <g
       inkscape:groupmode="layer"
       id="layer7"
       inkscape:label="BACKGROUND"
       style="display:inline;opacity:1">
      <path
         style="fill:#21568c;fill-opacity:1;fill-rule:nonzero;stroke:none;paint-order:fill markers stroke"
         d="M 7.4498568,-92.461838 H 391.66598 l -54.2174,153.02301 H 7.4498568 Z"
         id="rect4051"
         inkscape:connector-curvature="0"
         sodipodi:nodetypes="ccccc" />
    </g>
    <g
       inkscape:groupmode="layer"
       id="layer2"
       inkscape:label="BACKGROUND2"
       style="display:none;opacity:0.44800002">
      <rect
         style="stroke:none;paint-order:fill markers stroke"
         id="rect42"
         width="384.39459"
         height="153.39594"
         x="7.4498563"
         y="-92.53347" />
    </g>
    <g
       inkscape:groupmode="layer"
       id="layer4"
       inkscape:label="LOGO"
       style="display:inline">
      <path
         inkscape:connector-curvature="0"
         class="cls-1"
         d="m 86.25178,-56.273525 a 0.93554864,0.93554864 0 0 1 0.306505,0.755754 c -0.02844,0.581043 -0.392133,0.816321 -0.491948,1.058717 a 1.0186665,1.0186665 0 0 0 -0.01411,0.937551 1.4173507,1.4173507 0 0 0 1.326138,0.723663 1.5211111,1.5211111 0 0 0 1.543506,-1.497151 2.2159542,2.2159542 0 0 0 -0.663075,-1.540018 c -0.841337,-1.058716 -1.547145,-2.588148 -0.488348,-3.172742 0.919706,-0.516863 1.92143,0.274579 2.673612,1.008908 a 4.041544,4.041544 0 0 1 0.420668,-0.02502 4.2428407,4.2428407 0 0 1 0.427758,0.02502 c 0.745042,-0.734329 1.746796,-1.525771 2.666472,-1.008908 1.058716,0.58464 0.352919,2.113992 -0.491948,3.172742 a 2.4317634,2.4317634 0 0 0 -0.663063,1.540018 1.5210642,1.5210642 0 0 0 1.543504,1.497151 1.4005238,1.4005238 0 0 0 1.322498,-0.723663 0.9887816,0.9887816 0 0 0 -0.01099,-0.937551 c -0.09983,-0.242396 -0.459844,-0.477688 -0.49195,-1.058717 a 0.94474405,0.94474405 0 0 1 0.310266,-0.755754 c 0.83415,-0.866177 3.094241,-0.684397 6.405945,2.00346 a 13.832934,13.832934 0 0 1 4.71623,7.272192 5.7577593,5.7577593 0 0 0 -3.23686,-2.366989 4.6104828,4.6104828 0 0 0 -4.2635,1.065815 5.3305506,5.3305506 0 0 0 -3.204765,-1.258371 5.1289568,5.1289568 0 0 0 -3.931989,1.818083 l 0.884081,1.097954 c 0.516915,0.641641 -0.03569,1.008798 -0.03569,1.008798 l -0.563258,0.47769 c 0,0 -0.13543,0.114065 -0.04992,0.217467 0.09982,0.124779 0.199621,0.04635 0.253092,0 a 2.909046,2.909046 0 0 1 0.973239,-0.520445 1.5839303,1.5839303 0 0 1 1.336796,1.055151 c 0.360038,0.86624 -0.648815,1.928568 -0.898329,2.235128 -0.27453,0.338662 -0.82348,0.87695 -1.422373,0.349375 a 0.51838004,0.51838004 0 0 0 -0.894791,0.156822 2.0812455,2.0812455 0 0 0 2.54888,2.053315 2.2828239,2.2828239 0 0 0 1.636243,-1.229863 l 0.338589,0.02855 a 2.2003159,2.2003159 0 0 0 4.231475,-0.0037 0.51401693,0.51401693 0 0 0 -0.848432,-0.313688 c -0.680874,0.409911 -1.12647,-0.213886 -1.340338,-0.595353 -0.188974,-0.338665 -1.001735,-1.561349 -0.495539,-2.35992 a 1.5929224,1.5929224 0 0 1 1.500803,-0.802045 2.9956512,2.9956512 0 0 1 0.866241,0.684444 c 0.04633,0.05347 0.131985,0.142574 0.245975,0.04635 0.10697,-0.09269 -0.008,-0.228178 -0.008,-0.228178 l -0.470578,-0.566796 c 0,0 -0.48123,-0.45273 0.13903,-0.998149 l 1.311838,-1.147856 a 1.1150145,1.1150145 0 0 1 0.90191,-0.213933 1.0963734,1.0963734 0 0 1 0.77714,0.509811 l 0.83772,1.522174 c 0.4028,0.723664 -0.20676,0.991019 -0.20676,0.991019 l -0.63803,0.374288 c 0,0 -0.15687,0.08202 -0.0821,0.206754 0.0713,0.135491 0.18183,0.07491 0.24597,0.04635 a 2.8289775,2.8289775 0 0 1 1.04809,-0.34933 1.572749,1.572749 0 0 1 1.13004,1.269084 c 0.20675,0.919707 -0.97677,1.789528 -1.27262,2.046168 -0.328,0.285198 -0.9625,0.720084 -1.45806,0.09628 a 0.50199106,0.50199106 0 0 0 -0.8912,0.007 2.1745595,2.1745595 0 0 0 2.18879,2.338481 2.2876561,2.2876561 0 0 0 1.7967,-0.884082 l 0.36005,0.09628 a 2.1998469,2.1998469 0 0 0 4.1601,0.684444 0.5082464,0.5082464 0 0 0 -0.77712,-0.445599 c -0.74147,0.292311 -1.073,-0.399262 -1.21556,-0.809222 -0.12839,-0.370754 -0.713,-1.714684 -0.0786,-2.413388 a 1.5753918,1.5753918 0 0 1 1.6184,-0.524042 2.8458826,2.8458826 0 0 1 0.7308,0.816321 c 0.0393,0.06412 0.10698,0.167534 0.23526,0.09269 0.12479,-0.07484 0.0357,-0.228133 0.0357,-0.228133 l -0.36715,-0.645222 c 0,0 -0.39214,-0.531158 0.31011,-0.958928 l 1.49718,-0.894796 a 1.0788584,1.0788584 0 0 1 0.91975,-0.05347 c 2.07473,0.887665 -0.8306,4.659229 -0.8306,4.659229 l -2.10328,4.673454 -0.7878,-0.331534 a 1.3478695,1.3478695 0 1 0 -1.05161,2.473988 l 0.63804,0.263818 -0.63804,1.283331 a 54.767568,54.767568 0 0 0 -17.384724,-3.040831 53.533889,53.533889 0 0 0 -17.485249,2.940979 l -0.570377,-1.183525 0.638037,-0.263819 a 1.3473377,1.3473377 0 1 0 -1.048078,-2.473987 l -0.75929,0.317286 -1.910662,-4.659259 c 0,0 -3.072934,-3.771563 -0.994595,-4.659227 a 1.0960763,1.0960763 0 0 1 0.923286,0.05346 l 1.490083,0.894795 c 0.705818,0.427755 0.313684,0.958928 0.313684,0.958928 l -0.367157,0.645223 c 0,0 -0.08913,0.153255 0.03207,0.228132 0.128241,0.07485 0.196041,-0.02851 0.235266,-0.09269 a 2.8741256,2.8741256 0 0 1 0.734373,-0.816323 1.5790823,1.5790823 0 0 1 1.618415,0.524042 c 0.634578,0.698705 0.04629,2.042634 -0.08198,2.413388 -0.142619,0.409976 -0.470572,1.10155 -1.215613,0.809223 a 0.5082464,0.5082464 0 0 0 -0.777127,0.445599 2.2020362,2.2020362 0 0 0 4.167284,-0.716532 l 0.335072,-0.08556 a 2.2874684,2.2874684 0 0 0 1.821615,0.905461 2.1738559,2.1738559 0 0 0 2.185263,-2.338481 0.50199106,0.50199106 0 0 0 -0.891201,-0.007 c -0.495538,0.623798 -1.130046,0.18891 -1.458058,-0.09628 -0.299447,-0.256641 -1.479385,-1.126462 -1.276215,-2.046168 a 1.5696838,1.5696838 0 0 1 1.137175,-1.269085 2.8552969,2.8552969 0 0 1 1.044488,0.34933 c 0.0607,0.02855 0.178274,0.08913 0.249554,-0.04635 0.06776,-0.124732 -0.0855,-0.206755 -0.0855,-0.206755 l -0.638047,-0.374288 c 0,0 -0.609551,-0.267416 -0.210289,-0.991018 l 0.837727,-1.522017 a 1.1744401,1.1744401 0 0 1 1.678997,-0.295848 l 1.315419,1.147857 c 0.62027,0.545418 0.13903,0.998148 0.13903,0.998148 l -0.474162,0.566796 c 0,0 -0.114003,0.13549 -0.008,0.228179 0.117602,0.09621 0.203221,0.007 0.249564,-0.04635 a 3.0483837,3.0483837 0 0 1 0.866234,-0.684443 1.596097,1.596097 0 0 1 1.500802,0.802044 c 0.506196,0.798571 -0.306515,2.021257 -0.495538,2.359921 -0.217367,0.381466 -0.659484,1.005263 -1.340325,0.595352 a 0.51401693,0.51401693 0 0 0 -0.848447,0.31369 2.2012229,2.2012229 0 0 0 4.235005,-0.0037 l 0.327952,-0.0249 a 2.2924415,2.2924415 0 0 0 1.643371,1.233396 2.0771797,2.0771797 0 0 0 2.545301,-2.053316 0.5183644,0.5183644 0 0 0 -0.894801,-0.156822 c -0.595283,0.527576 -1.144303,-0.0108 -1.418763,-0.349375 -0.249514,-0.306512 -1.258377,-1.368904 -0.901869,-2.235127 a 1.5923907,1.5923907 0 0 1 1.340335,-1.055151 2.8818822,2.8818822 0 0 1 0.969569,0.520444 c 0.05707,0.04635 0.160406,0.124779 0.253093,0 0.08913,-0.103398 -0.04629,-0.217466 -0.04629,-0.217466 l -0.563259,-0.47769 c 0,0 -0.552529,-0.367157 -0.0357,-1.008797 l 0.887621,-1.097955 a 5.1473318,5.1473318 0 0 0 -3.935518,-1.818081 5.4983189,5.4983189 0 0 0 -3.208364,1.25837 4.6035081,4.6035081 0 0 0 -4.25989,-1.065816 5.7665948,5.7665948 0 0 0 -3.24045,2.36699 13.853577,13.853577 0 0 1 4.719824,-7.272195 c 3.311719,-2.687857 5.568221,-2.869634 6.40595,-2.00346 m -6.9549,20.265989 a 1.4013369,1.4013369 0 0 0 1.661149,1.069397 l 1.425953,-0.253091 a 1.3487922,1.3487922 0 1 0 -0.466892,-2.648683 l -1.425953,0.253091 a 1.3999763,1.3999763 0 0 0 -1.194175,1.579239 m 23.146337,0 a 1.4026194,1.4026194 0 0 0 -1.19425,-1.579239 l -1.429484,-0.253091 a 1.3483698,1.3483698 0 1 0 -0.463398,2.648637 l 1.425902,0.253091 a 1.4013527,1.4013527 0 0 0 1.66123,-1.069398 m -13.749361,-1.190651 a 1.4027601,1.4027601 0 0 0 1.450858,1.343992 h 1.450859 a 1.3476504,1.3476504 0 1 0 0,-2.68792 h -1.450859 a 1.4027601,1.4027601 0 0 0 -1.450858,1.343928"
         id="path42"
         style="display:inline;fill:#ffffff;stroke-width:1.56383514" />
      <path
         inkscape:connector-curvature="0"
         class="cls-1"
         d="m 94.57319,-10.281464 h 1.122927 v 1.7075517 H 94.57319 Z m -29.438243,7.3328215 a 1.1984606,1.1984606 0 0 0 0,1.6933053 L 89.946053,23.537922 a 1.1984606,1.1984606 0 0 0 1.693304,0 L 116.44687,-1.2553372 a 1.1920958,1.1920958 0 0 0 0,-1.6933053 L 91.635768,-27.741886 a 1.1982887,1.1982887 0 0 0 -1.693264,0 z m 22.99661,-27.5024945 a 3.6511795,3.6511795 0 0 1 5.168959,0 l 25.841334,25.8306145 a 3.6490683,3.6490683 0 0 1 0,5.16184423 L 93.300516,26.371888 a 3.6576695,3.6576695 0 0 1 -5.168959,0 L 62.286671,0.54127433 a 3.6425941,3.6425941 0 0 1 0,-5.16184323 z m 2.702167,4.684202 19.545796,19.5314402 a 3.3014904,3.3014904 0 0 1 -2.5381,-0.2530912 2.7526937,2.7526937 0 0 0 -2.60949,0 3.0595024,3.0595024 0 0 1 -1.80377,0.3850001 l 0.003,-1.0837368 h -0.86271 l 0.003,-3.0835243 h 0.95533 v -2.035455 h -4.349027 v 1.319015 H 98.30439 v -2.099697 c 0.609602,-0.356446 2.12106,0.04635 2.12106,0.04635 a 2.3539314,2.3539314 0 0 0 -1.728917,-0.709416 c 0.263812,-0.442017 2.124597,-0.392131 2.124597,-0.392131 -1.201316,-0.673733 -1.857266,-0.363576 -1.857266,-0.363576 0.292318,-0.734379 1.857266,-1.069461 1.857266,-1.069461 a 2.511613,2.511613 0 0 0 -2.420504,0.50981 4.8522517,4.8522517 0 0 1 0.937548,-1.233459 c 0.427812,-0.292311 -1.001688,-0.07844 -1.425907,0.691575 -0.431357,-0.770017 -1.828744,-0.983886 -1.397397,-0.691575 a 4.8092306,4.8092306 0 0 1 0.933954,1.233459 2.5069996,2.5069996 0 0 0 -2.416918,-0.50981 c 0,0 1.561393,0.335067 1.85725,1.069461 0,0 -0.655885,-0.310157 -1.85725,0.363576 0,0 1.85725,-0.04989 2.121062,0.392131 a 2.3477074,2.3477074 0 0 0 -1.7254,0.709419 c 0,0 1.507931,-0.402797 2.121062,-0.04635 v 2.099683 h -0.876015 v -1.319001 h -4.345479 v 2.035548 h 0.955402 v 3.0835241 h -0.866365 v 1.0908365 a 3.3330799,3.3330799 0 0 1 -1.58263,-0.3136883 z m 20.287316,20.269476 0.90187,0.8983295 a 2.3995641,2.3995641 0 0 0 -1.07654,0.324417 3.2626915,3.2626915 0 0 1 -3.10495,0 2.7333178,2.7333178 0 0 0 -2.60949,0 3.2556074,3.2556074 0 0 1 -3.10136,0 2.6844168,2.6844168 0 0 0 -2.584506,0 3.3249948,3.3249948 0 0 1 -3.126342,0 2.6843072,2.6843072 0 0 0 -2.584454,0 3.354614,3.354614 0 0 1 -3.001544,0.06771 v -1.1086136 a 3.3249792,3.3249792 0 0 0 2.987347,-0.078539 2.7033079,2.7033079 0 0 1 2.584453,0 3.3050559,3.3050559 0 0 0 3.126337,0 2.7034016,2.7034016 0 0 1 2.584509,0 3.2486329,3.2486329 0 0 0 3.09783,0 2.7525841,2.7525841 0 0 1 2.60942,0 3.2626915,3.2626915 0 0 0 3.10496,0 z m 0.23884,3.3687658 v 3.1298771 l -2.60222,2.5952304 v -5.7251549 h -2.53462 v 8.2596772 l -2.59518,2.5880379 V -2.1287406 h -2.55594 V 11.274892 l -2.56667,2.563124 V -2.1287406 H 95.938503 V 16.404677 L 93.34333,18.999906 V -2.1287406 h -2.509606 v -0.973235 a 3.3249792,3.3249792 0 0 0 2.987296,-0.078379 2.6840257,2.6840257 0 0 1 2.584455,0 3.292639,3.292639 0 0 0 3.129917,0 2.6840257,2.6840257 0 0 1 2.584468,0 3.229507,3.229507 0 0 0 3.09783,0 2.7330207,2.7330207 0 0 1 2.60948,0 3.2364192,3.2364192 0 0 0 3.10137,0 2.7965905,2.7965905 0 0 1 2.39912,-0.1105332 l 1.15856,1.1621504 z M 80.381673,5.9883463 h 1.122926 v 1.7146205 h -1.122926 z m 5.753594,0 h 1.122927 V 7.7029668 H 86.135267 Z M 85.094368,9.891819 a 3.3031949,3.3031949 0 0 1 -2.620149,0.228132 l 0.0031,-1.4615283 a 1.314638,1.314638 0 1 1 2.609421,0 z M 81.2194,11.888103 80.071548,10.750928 a 2.9630453,2.9630453 0 0 1 1.903654,0.231728 3.2501185,3.2501185 0 0 0 3.108497,0 2.7583705,2.7583705 0 0 1 2.602222,0 3.5139373,3.5139373 0 0 0 3.119216,0.06412 v 1.130042 a 3.2626915,3.2626915 0 0 1 -3.104969,0 2.7454687,2.7454687 0 0 0 -2.605831,0 3.2557013,3.2557013 0 0 1 -3.10143,0 2.3967493,2.3967493 0 0 0 -0.773547,-0.288776 m 6.484388,4.748334 a 2.7346471,2.7346471 0 0 0 -1.989191,-0.245974 l -0.834199,-0.834151 a 2.8568139,2.8568139 0 0 1 2.805523,-0.103398 3.2821927,3.2821927 0 0 0 3.104959,0 l 0.01411,1.183526 a 3.2556074,3.2556074 0 0 1 -3.101369,0 m 3.101369,2.074725 a 3.3166751,3.3166751 0 0 1 -2.506076,0.256687 l -1.543505,-1.540018 a 2.3656601,2.3656601 0 0 1 0.934015,0.30304 3.2364348,3.2364348 0 0 0 3.101369,0 z m -0.01411,1.094418 0.04286,1.700373 -1.315419,-1.315373 a 2.9746644,2.9746644 0 0 0 1.272615,-0.385 m 0,-6.53433 0.01411,1.080174 a 3.2629886,3.2629886 0 0 1 -3.104959,0 2.7651262,2.7651262 0 0 0 -2.60584,0 2.7068577,2.7068577 0 0 1 -1.055198,0.360041 l -1.09795,-1.094416 a 3.2596422,3.2596422 0 0 0 2.142459,-0.345782 2.7384784,2.7384784 0 0 1 2.602222,0 3.2431749,3.2431749 0 0 0 3.104959,0 M 83.06577,-18.002854 v 15.8741154 h 2.534575 V -20.537423 l 2.588033,-2.584505 v 20.9931874 h 2.645106 L 90.808474,9.902501 a 3.9003454,3.9003454 0 0 1 -1.568533,0.388534 V 9.086132 h -0.862705 l 0.0031,-3.0835863 h 0.955331 V 3.9635234 H 84.986566 V 5.2860743 H 84.113214 V 3.1827955 c 0.61313,-0.3529107 2.124661,0.049923 2.124661,0.049923 A 2.3318188,2.3318188 0 0 0 84.508946,2.519766 c 0.263752,-0.4420649 2.121062,-0.392132 2.121062,-0.392132 -1.201355,-0.6737945 -1.85731,-0.3600427 -1.85731,-0.3600427 0.295906,-0.7379107 1.85731,-1.0694597 1.85731,-1.0694597 A 2.5009788,2.5009788 0 0 0 84.213039,1.20433 4.6475927,4.6475927 0 0 1 85.150582,-0.0255323 C 85.574811,-0.32137902 84.148899,-0.10751032 83.721101,0.66244647 83.293342,-0.10750827 81.895946,-0.32139415 82.323703,-0.0255323 A 4.7304289,4.7304289 0 0 1 83.261258,1.20433 2.5098302,2.5098302 0 0 0 80.840749,0.6981316 c 0,0 1.564933,0.3315338 1.85726,1.0694597 0,0 -0.655895,-0.3137518 -1.85726,0.3600427 0,0 1.860839,-0.049923 2.121062,0.392132 a 2.3254228,2.3254228 0 0 0 -1.72535,0.7129524 c 0,0 1.507882,-0.4028437 2.121062,-0.049923 v 2.103279 h -0.872707 v -1.322551 h -4.349028 v 2.0390385 h 0.955401 v 3.0835852 h -0.68445 l -11.2256,-11.2148877 h 3.015852 v -3.0158551 l 2.573797,-2.5666591 v 5.5825313 h 2.570206 v -8.1527405 l 2.54883,-2.548834 v 10.7015574 h 2.580925 V -15.404136 Z m 16.205588,11.656936 a 3.4026704,3.4026704 0 0 1 -2.605884,-0.014227 v -1.251304 a 1.3146535,1.3146535 0 1 1 2.609474,0 z m 1.055202,-3.935563 h 1.12646 v 1.7075516 h -1.12646 z"
         id="path44"
         style="display:inline;fill:#ffffff;stroke-width:1.56383514" />
    </g>
    <g
       inkscape:groupmode="layer"
       id="layer6"
       inkscape:label="TEXT B">
      <g
         style="display:inline"
         transform="matrix(1.0169772,0,0,1.0169772,-116.42435,-31.053231)"
         id="g46">
        <path
           inkscape:connector-curvature="0"
           class="cls-1"
           d="m 258.18308,38.33454 a 9.195,9.195 0 0 0 -0.0729,-1.003 3.40834,3.40834 0 0 0 -3.32128,-2.79929 c -2.57132,0 -3.91394,2.31372 -3.91394,5.1814 0,3.09561 1.52728,5.03319 3.87975,5.03319 a 3.31878,3.31878 0 0 0 3.28023,-2.72176 4.78915,4.78915 0 0 0 0.14818,-1.30387 z M 263.85,22.37782 v 21.02642 c 0,2.04927 0.0752,4.21255 0.15044,5.44578 h -5.03322 l -0.26212,-2.68527 h -0.0752 a 6.36273,6.36273 0 0 1 -5.70338,3.09561 c -4.32654,0 -7.79373,-3.69286 -7.79373,-9.35976 -0.0364,-6.15246 3.80455,-9.69486 8.16758,-9.69486 2.23623,0 3.98918,0.78418 4.80981,2.0516 h 0.0729 v -9.87952 z"
           id="path28"
           style="fill:#ffffff" />
        <path
           inkscape:connector-curvature="0"
           class="cls-1"
           d="m 279.43674,37.66277 c 0,-1.37914 -0.59726,-3.69057 -3.20729,-3.69057 -2.3844,0 -3.35321,2.16555 -3.50594,3.69057 z m -6.67445,3.87746 c 0.18689,2.35251 2.49835,3.47175 5.14487,3.47175 a 16.152,16.152 0 0 0 5.03322,-0.74769 l 0.74769,3.841 a 17.99081,17.99081 0 0 1 -6.59925,1.15343 c -6.19121,0 -9.73361,-3.61533 -9.73361,-9.31872 0,-4.62744 2.86994,-9.73361 9.20932,-9.73361 5.89257,0 8.12879,4.5887 8.12879,9.09764 a 13.34768,13.34768 0 0 1 -0.18692,2.23619 z"
           id="path30"
           style="fill:#ffffff" />
        <path
           inkscape:connector-curvature="0"
           class="cls-1"
           d="m 301.43556,35.46484 a 8.84872,8.84872 0 0 0 1.90113,0.14818 c 3.02041,0 4.885,-1.52958 4.885,-4.10316 0,-2.31143 -1.60252,-3.68827 -4.436,-3.68827 a 9.6948,9.6948 0 0 0 -2.35021,0.22338 z m -5.63041,-11.40906 a 46.73244,46.73244 0 0 1 7.67971,-0.522 c 3.50594,0 6.00429,0.67016 7.67975,2.01282 a 7.35233,7.35233 0 0 1 2.68757,5.81963 8.05254,8.05254 0 0 1 -2.31143,5.96554 c -1.93991,1.82589 -4.81211,2.64426 -8.16758,2.64426 a 14.17129,14.17129 0 0 1 -1.93761,-0.11169 v 8.98591 h -5.63041 z"
           id="path32"
           style="fill:#ffffff" />
        <path
           inkscape:connector-curvature="0"
           class="cls-1"
           d="m 326.30569,40.23841 c -2.98388,-0.03878 -5.29535,0.67016 -5.29535,2.86764 a 2.03858,2.03858 0 0 0 2.23852,2.16784 3.09888,3.09888 0 0 0 2.94514,-2.09261 4.13486,4.13486 0 0 0 0.11169,-0.96881 z m 5.51649,4.17607 a 28.17471,28.17471 0 0 0 0.26212,4.436 h -5.10613 L 326.64079,47.02 h -0.11169 a 6.56277,6.56277 0 0 1 -5.22014,2.23849 5.58812,5.58812 0 0 1 -5.89257,-5.59166 c 0,-4.73461 4.25134,-7.00729 10.70238,-6.97536 v -0.25534 c 0,-0.97107 -0.522,-2.35247 -3.319,-2.35247 a 10.26642,10.26642 0 0 0 -5.03319,1.3814 l -1.044,-3.65638 a 15.10984,15.10984 0 0 1 7.08479,-1.60248 c 6.07723,0 8.01484,3.58114 8.01484,7.86893 z"
           id="path34"
           style="fill:#ffffff" />
        <rect
           class="cls-1"
           x="336.29941"
           y="22.377819"
           width="5.6669002"
           height="26.4722"
           id="rect36"
           style="fill:#ffffff" />
        <path
           inkscape:connector-curvature="0"
           class="cls-1"
           d="m 346.55114,36.43612 c 0,-2.27723 -0.0752,-4.21485 -0.14817,-5.81733 h 4.77103 l 0.26212,2.45731 h 0.10943 a 6.33339,6.33339 0 0 1 5.51876,-2.8699 5.17222,5.17222 0 0 1 4.999,3.09557 h 0.0752 a 7.62608,7.62608 0 0 1 2.34791,-2.19974 6.58486,6.58486 0 0 1 3.46486,-0.89583 c 3.5082,0 6.15246,2.46186 6.15246,7.90538 v 10.7389 h -5.51646 v -9.92053 c 0,-2.64652 -0.85938,-4.17155 -2.68527,-4.17155 a 2.7713,2.7713 0 0 0 -2.61007,1.97636 4.72934,4.72934 0 0 0 -0.22341,1.452 v 10.66372 h -5.51872 V 38.6336 c 0,-2.31143 -0.82063,-3.8752 -2.61007,-3.8752 a 2.8816,2.8816 0 0 0 -2.64652,2.0493 3.753,3.753 0 0 0 -0.22341,1.41785 v 10.62493 h -5.51872 z"
           id="path38"
           style="fill:#ffffff" />
        <path
           inkscape:connector-curvature="0"
           class="cls-1"
           d="m 388.311,40.23841 c -2.98388,-0.03878 -5.29535,0.67016 -5.29535,2.86764 a 2.03965,2.03965 0 0 0 2.23852,2.16784 3.09665,3.09665 0 0 0 2.94514,-2.09261 4.01665,4.01665 0 0 0 0.11169,-0.96881 z m 5.51649,4.17607 a 28.13074,28.13074 0 0 0 0.26442,4.436 h -5.10842 L 388.64607,47.02 h -0.11169 a 6.55958,6.55958 0 0 1 -5.22014,2.23849 5.58614,5.58614 0 0 1 -5.89031,-5.59166 c 0,-4.73461 4.25134,-7.00729 10.70241,-6.97536 v -0.25534 c 0,-0.97107 -0.522,-2.35247 -3.319,-2.35247 a 10.25242,10.25242 0 0 0 -5.03322,1.3814 l -1.044,-3.65638 a 15.09078,15.09078 0 0 1 7.08249,-1.60248 c 6.07723,0 8.01484,3.58114 8.01484,7.86893 z"
           id="path40"
           style="fill:#ffffff" />
      </g>
    </g>
    <g
       inkscape:groupmode="layer"
       id="layer5"
       inkscape:label="TEXT A"
       style="display:inline">
      <path
         inkscape:connector-curvature="0"
         class="cls-1"
         d="m 147.22524,-31.430095 -2.50369,-7.355725 c -0.56797,-1.666825 -0.94815,-3.182935 -1.32603,-4.664305 h -0.0765 c -0.38017,1.51614 -0.79746,3.071648 -1.28893,4.627196 l -2.50368,7.392824 z m -8.3804,2.577874 -2.65438,8.039632 h -3.41244 l 8.68183,-25.556179 h 3.9827 l 8.72119,25.556179 h -3.52838 l -2.72855,-8.039632 z"
         id="path8"
         style="display:inline;fill:#ffffff;stroke-width:1.01697719" />
      <path
         inkscape:connector-curvature="0"
         class="cls-1"
         d="m 160.8379,-44.322671 a 1.9587896,1.9587896 0 0 1 -2.08639,2.049321 1.9905905,1.9905905 0 0 1 -2.047,-2.049321 2.0407681,2.0407681 0 0 1 2.1235,-2.081752 1.9709018,1.9709018 0 0 1 2.00991,2.081752 m -8.60758,28.894356 a 5.3986743,5.3986743 0 0 0 3.63962,-1.402523 c 0.91106,-1.024666 1.25182,-2.501357 1.25182,-6.899051 v -15.432406 h 3.33825 v 16.721434 c 0,3.563122 -0.57029,5.876725 -2.19999,7.545849 a 8.4692031,8.4692031 0 0 1 -5.68664,2.08639 z"
         id="path10"
         style="display:inline;fill:#ffffff;stroke-width:1.01697719" />
      <path
         inkscape:connector-curvature="0"
         class="cls-1"
         d="m 180.3282,-25.815801 c 0,1.893998 0.0371,3.563122 0.15067,5.002755 h -2.95803 l -0.18777,-2.99514 h -0.0765 a 6.9057227,6.9057227 0 0 1 -6.0668,3.412467 c -2.88388,0 -6.33341,-1.590319 -6.33341,-8.037334 v -10.731113 h 3.33826 v 10.160751 c 0,3.491283 1.05944,5.841955 4.094,5.841955 a 4.6965533,4.6965533 0 0 0 4.7014,-4.740741 v -11.262006 h 3.33826 z"
         id="path12"
         style="display:inline;fill:#ffffff;stroke-width:1.01697719" />
      <path
         inkscape:connector-curvature="0"
         class="cls-1"
         d="m 184.91668,-34.196192 c 0,-1.896296 -0.0394,-3.454142 -0.15301,-4.967933 h 2.95806 l 0.1901,3.034538 h 0.0765 a 6.7467183,6.7467183 0 0 1 6.06679,-3.449506 c 2.53847,0 6.48179,1.513802 6.48179,7.810131 v 10.955946 h -3.33594 v -10.578098 c 0,-2.958061 -1.09885,-5.42235 -4.247,-5.42235 a 4.7388392,4.7388392 0 0 0 -4.47418,3.414766 4.8103022,4.8103022 0 0 0 -0.22718,1.553209 v 11.032473 h -3.33593 z"
         id="path14"
         style="display:inline;fill:#ffffff;stroke-width:1.01697719" />
      <path
         inkscape:connector-curvature="0"
         class="cls-1"
         d="m 208.88114,-43.56303 v 4.400013 h 4.77555 v 2.540765 h -4.77555 v 9.894171 c 0,2.278823 0.64447,3.565431 2.50136,3.565431 a 6.2049643,6.2049643 0 0 0 1.93573,-0.227172 l 0.15069,2.503696 a 8.0739956,8.0739956 0 0 1 -2.95806,0.491444 4.646162,4.646162 0 0 1 -3.60253,-1.441921 c -0.94815,-0.985258 -1.28894,-2.612615 -1.28894,-4.777881 v -10.007747 h -2.84214 v -2.540786 h 2.84214 v -3.377645 z"
         id="path16"
         style="display:inline;fill:#ffffff;stroke-width:1.01697719" />
      <path
         inkscape:connector-curvature="0"
         class="cls-1"
         d="m 226.13457,-30.175226 c -3.64194,-0.07652 -7.77302,0.565652 -7.77302,4.128785 a 2.9560578,2.9560578 0 0 0 3.14584,3.189871 4.5677531,4.5677531 0 0 0 4.43708,-3.076285 3.4620345,3.4620345 0 0 0 0.19008,-1.059436 z m 3.22235,4.963316 a 25.657236,25.657236 0 0 0 0.30368,4.400023 h -3.03456 l -0.26429,-2.311294 h -0.11358 a 6.8452735,6.8452735 0 0 1 -5.61244,2.72855 5.2297341,5.2297341 0 0 1 -5.61245,-5.271664 c 0,-4.437072 3.94332,-6.859644 11.03478,-6.822534 v -0.380197 c 0,-1.5161 -0.41728,-4.246999 -4.17049,-4.246999 a 9.1609306,9.1609306 0 0 0 -4.77784,1.363126 l -0.75805,-2.197688 a 11.386423,11.386423 0 0 1 6.0274,-1.629726 c 5.61243,0 6.97787,3.827404 6.97787,7.506451 z"
         id="path18"
         style="display:inline;fill:#ffffff;stroke-width:1.01697719" />
      <path
         inkscape:connector-curvature="0"
         class="cls-1"
         d="m 233.79377,-34.196192 c 0,-1.896296 -0.0371,-3.454142 -0.15303,-4.967933 h 2.92096 l 0.1507,2.958061 h 0.11361 a 6.3277135,6.3277135 0 0 1 5.76311,-3.373029 5.4215055,5.4215055 0 0 1 5.19515,3.674339 h 0.0765 a 7.5553067,7.5553067 0 0 1 2.04699,-2.387771 6.2591794,6.2591794 0 0 1 4.0569,-1.286598 c 2.42718,0 6.02971,1.592586 6.02971,7.963114 v 10.802993 h -3.26174 V -31.20335 c 0,-3.526022 -1.28894,-5.649522 -3.98039,-5.649522 a 4.3175462,4.3175462 0 0 0 -3.94336,3.034579 5.4630998,5.4630998 0 0 0 -0.26657,1.669124 v 11.336143 H 245.2829 V -31.80838 c 0,-2.920992 -1.28894,-5.044492 -3.82973,-5.044492 a 4.9798729,4.9798729 0 0 0 -4.39999,4.970283 v 11.069573 h -3.25942 z"
         id="path20"
         style="display:inline;fill:#ffffff;stroke-width:1.01697719" />
      <path
         inkscape:connector-curvature="0"
         class="cls-1"
         d="m 276.1105,-31.770172 c 0.0395,-2.123499 -0.87163,-5.422319 -4.62715,-5.422319 -3.37303,0 -4.85206,3.108716 -5.11634,5.422319 z m -9.7829,2.387771 c 0.0765,4.513609 2.95803,6.370497 6.29399,6.370497 a 12.108049,12.108049 0 0 0 5.08156,-0.945788 l 0.56795,2.387771 a 14.726633,14.726633 0 0 1 -6.1039,1.175351 c -5.64955,0 -9.02488,-3.753226 -9.02488,-9.289162 0,-5.535935 3.26174,-9.89652 8.60759,-9.89652 5.99031,0 7.58292,5.266996 7.58292,8.642354 a 12.812703,12.812703 0 0 1 -0.11124,1.555507 z"
         id="path22"
         style="display:inline;fill:#ffffff;stroke-width:1.01697719" />
      <path
         inkscape:connector-curvature="0"
         class="cls-1"
         d="m 282.51857,-34.196192 c 0,-1.896296 -0.0371,-3.454142 -0.1507,-4.967933 h 2.95573 l 0.1901,3.034538 h 0.0765 a 6.7523116,6.7523116 0 0 1 6.06679,-3.449506 c 2.5408,0 6.48413,1.513802 6.48413,7.810131 v 10.955946 h -3.33593 v -10.578098 c 0,-2.958061 -1.10115,-5.42235 -4.247,-5.42235 a 4.8944062,4.8944062 0 0 0 -4.70138,4.967934 v 11.032514 h -3.33821 z"
         id="path24"
         style="display:inline;fill:#ffffff;stroke-width:1.01697719" />
      <path
         inkscape:connector-curvature="0"
         class="cls-1"
         d="m 306.4835,-43.56303 v 4.400013 h 4.77785 v 2.540765 h -4.77785 v 9.894171 c 0,2.278823 0.64447,3.565431 2.50136,3.565431 a 6.2049033,6.2049033 0 0 0 1.9357,-0.227172 l 0.1507,2.503696 a 8.0739956,8.0739956 0 0 1 -2.95806,0.491444 4.6461824,4.6461824 0 0 1 -3.60253,-1.441921 c -0.94815,-0.985258 -1.28894,-2.612615 -1.28894,-4.777881 v -10.007747 h -2.84215 v -2.540786 h 2.84215 v -3.377645 z"
         id="path26"
         style="display:inline;fill:#ffffff;stroke-width:1.01697719" />
    </g>
  </g>
</svg>
