<?xml version="1.0" encoding="UTF-8" standalone="no"?>
<svg
   xmlns:dc="http://purl.org/dc/elements/1.1/"
   xmlns:cc="http://creativecommons.org/ns#"
   xmlns:rdf="http://www.w3.org/1999/02/22-rdf-syntax-ns#"
   xmlns:svg="http://www.w3.org/2000/svg"
   xmlns="http://www.w3.org/2000/svg"
   xmlns:sodipodi="http://sodipodi.sourceforge.net/DTD/sodipodi-0.dtd"
   xmlns:inkscape="http://www.inkscape.org/namespaces/inkscape"
   width="63"
   height="63"
   viewBox="0 0 63 63"
   fill="none"
   version="1.1"
   id="svg18"
   sodipodi:docname="palmaactiva_isotipo.svg"
   inkscape:version="0.92.3 (2405546, 2018-03-11)">
  <metadata
     id="metadata24">
    <rdf:RDF>
      <cc:Work
         rdf:about="">
        <dc:format>image/svg+xml</dc:format>
        <dc:type
           rdf:resource="http://purl.org/dc/dcmitype/StillImage" />
      </cc:Work>
    </rdf:RDF>
  </metadata>
  <defs
     id="defs22" />
  <sodipodi:namedview
     pagecolor="#ffffff"
     bordercolor="#666666"
     borderopacity="1"
     objecttolerance="10"
     gridtolerance="10"
     guidetolerance="10"
     inkscape:pageopacity="0"
     inkscape:pageshadow="2"
     inkscape:window-width="1920"
     inkscape:window-height="1017"
     id="namedview20"
     showgrid="false"
     inkscape:zoom="3.7460317"
     inkscape:cx="13.35419"
     inkscape:cy="31.696945"
     inkscape:window-x="-8"
     inkscape:window-y="-8"
     inkscape:window-maximized="1"
     inkscape:current-layer="svg18" />
  <g
     transform="matrix(0.41862033,0,0,0.41862033,4.9063463,6.925341)"
     id="g5332">
    <g
       transform="matrix(0.93375871,0,0,0.87063243,111.54107,28.427831)"
       id="g1603">
      <g
         style="fill:none"
         id="g1583"
         transform="matrix(2.3892156,0,0,2.3892156,3.1907701,-36.48594)">
        <g
           id="g1587">
          <path
             style="fill:#e03e52"
             inkscape:connector-curvature="0"
             d="m -33.197222,49.810907 h -4.4319 l 12.8182,-34.9091 h 4.3637 l 12.8180998,34.9091 h -4.4317998 l -10.4318,-29.3864 h -0.2727 z m 1.6363,-13.6364 h 17.8637 v 3.75 h -17.8637 z"
             id="path1551" />
          <path
             style="fill:#e03e52"
             inkscape:connector-curvature="0"
             d="m -33.197222,49.810907 v 0.8571 h 0.6052 l 0.2025,-0.5704 z m -4.4319,0 -0.8046,-0.2954 -0.4232,1.1525 h 1.2278 z m 12.8182,-34.9091 v -0.8571 h -0.5983 l -0.2063,0.5617 z m 4.3637,0 0.8046,-0.2954 -0.2063,-0.5617 h -0.5983 z m 12.8180998,34.9091 v 0.8571 h 1.2279 l -0.4232,-1.1525 z m -4.4317998,0 -0.8077,0.2867 0.2024,0.5704 h 0.6053 z m -10.4318,-29.3864 0.8078,-0.2867 -0.2025,-0.5704 h -0.6053 z m -0.2727,0 v -0.8571 h -0.6053 l -0.2025,0.5704 z m -8.7955,15.75 v -0.8571 h -0.8571 v 0.8571 z m 17.8637,0 h 0.8571 v -0.8571 h -0.8571 z m 0,3.75 v 0.8572 h 0.8571 v -0.8572 z m -17.8637,0 h -0.8571 v 0.8572 h 0.8571 z m -1.6363,9.0293 h -4.4319 v 1.7142 h 4.4319 z m -3.6272,1.1525 12.8181,-34.909 -1.6092,-0.5909 -12.8182,34.9091 z m 12.0135,-34.3473 h 4.3637 v -1.7143 h -4.3637 z m 3.559,-0.5617 12.8181998,34.909 1.6093,-0.5908 -12.8181998,-34.9091 z m 13.6227998,33.7565 h -4.4317998 v 1.7142 h 4.4317998 z m -3.6239998,0.5704 -10.4318,-29.3864 -1.6156,0.5735 10.4319,29.3863 z m -11.2396,-29.9568 h -0.2727 v 1.7143 h 0.2727 z m -1.0805,0.5704 -10.4318,29.3864 1.6155,0.5734 10.4318,-29.3863 z m -7.9877,16.8939 h 17.8637 v -1.7143 h -17.8637 z m 17.0065,-0.8572 v 3.75 h 1.7143 v -3.75 z m 0.8572,2.8929 h -17.8637 v 1.7143 h 17.8637 z m -17.0065,0.8571 v -3.75 h -1.7143 v 3.75 z"
             id="path1553" />
        </g>
      </g>
    </g>
    <g
       id="g1611">
      <path
         style="fill:none;stroke:#e03e52;stroke-width:4.09580851;stroke-linecap:square"
         inkscape:connector-curvature="0"
         d="M 35.365549,2.5303638 H 2.5991296"
         id="path1545" />
      <path
         style="fill:none;stroke:#e03e52;stroke-width:4.09580851;stroke-linecap:square"
         inkscape:connector-curvature="0"
         d="M 2.5991296,2.5303638 V 125.40438"
         id="path1547" />
      <path
         style="fill:none;stroke:#e03e52;stroke-width:4.09580851;stroke-linecap:square"
         inkscape:connector-curvature="0"
         d="M 2.5991296,125.40438 H 35.365549"
         id="path1549" />
      <path
         style="fill:none;stroke:#e03e52;stroke-width:4.09580851;stroke-linecap:square"
         inkscape:connector-curvature="0"
         d="M 125.47314,2.5303638 H 92.706724"
         id="path1555" />
      <path
         style="fill:none;stroke:#e03e52;stroke-width:4.09580851;stroke-linecap:square"
         inkscape:connector-curvature="0"
         d="M 125.47314,2.5303638 V 125.40438"
         id="path1557" />
      <path
         style="fill:none;stroke:#e03e52;stroke-width:4.09580851;stroke-linecap:square"
         inkscape:connector-curvature="0"
         d="M 92.706724,125.40438 H 125.47314"
         id="path1559" />
    </g>
  </g>
</svg>
