<?xml version="1.0" encoding="UTF-8" standalone="no"?>
<svg
   xmlns:dc="http://purl.org/dc/elements/1.1/"
   xmlns:cc="http://creativecommons.org/ns#"
   xmlns:rdf="http://www.w3.org/1999/02/22-rdf-syntax-ns#"
   xmlns:svg="http://www.w3.org/2000/svg"
   xmlns="http://www.w3.org/2000/svg"
   xmlns:sodipodi="http://sodipodi.sourceforge.net/DTD/sodipodi-0.dtd"
   xmlns:inkscape="http://www.inkscape.org/namespaces/inkscape"
   id="Iconos_Trazados"
   data-name="Iconos Trazados"
   viewBox="0 0 24.00706 24.00706"
   version="1.1"
   sodipodi:docname="rrss.svg"
   inkscape:version="0.92.3 (2405546, 2018-03-11)">
  <metadata
     id="metadata17">
    <rdf:RDF>
      <cc:Work
         rdf:about="">
        <dc:format>image/svg+xml</dc:format>
        <dc:type
           rdf:resource="http://purl.org/dc/dcmitype/StillImage" />
        <dc:title>iconos_palmaactiva-def</dc:title>
      </cc:Work>
    </rdf:RDF>
  </metadata>
  <sodipodi:namedview
     pagecolor="#ffffff"
     bordercolor="#666666"
     borderopacity="1"
     objecttolerance="10"
     gridtolerance="10"
     guidetolerance="10"
     inkscape:pageopacity="0"
     inkscape:pageshadow="2"
     inkscape:window-width="1920"
     inkscape:window-height="1018"
     id="namedview15"
     showgrid="false"
     inkscape:zoom="25.250769"
     inkscape:cx="-0.2201018"
     inkscape:cy="12.12606"
     inkscape:window-x="-8"
     inkscape:window-y="-8"
     inkscape:window-maximized="1"
     inkscape:current-layer="Iconos_Trazados" />
  <defs
     id="defs4">
    <style
       id="style2">
      .cls-1 {
        fill: #e03e52;
      }

      .cls-2 {
        fill: #444343;
      }
    </style>
  </defs>
  <title
     id="title6">iconos_palmaactiva-def</title>
  <path
     id="path2-7"
     d="M 19.485188,4.1986533 C 18.694953,3.5308586 17.474054,3.6311686 16.717998,4.4047637 15.961946,3.6311686 14.741048,3.5294837 13.950813,4.1986533 12.92269,5.0684336 13.07308,6.48645 13.805892,7.2380653 l 2.398046,2.4554372 c 0.13672,0.140155 0.319917,0.218476 0.51406,0.218476 0.195508,0 0.377343,-0.07695 0.514063,-0.217101 L 19.630105,7.2394377 C 20.36155,6.4878236 20.514677,5.0698072 19.485188,4.1986533 Z m -0.322659,2.5763552 -2.398044,2.455438 c -0.03281,0.032979 -0.06016,0.032979 -0.09297,0 l -2.398046,-2.455438 c -0.499023,-0.5111493 -0.600193,-1.4784898 0.09981,-2.0707069 0.531833,-0.4493128 1.352147,-0.3819887 1.866209,0.1442766 l 0.478514,0.4905454 0.478514,-0.4905454 c 0.516797,-0.5290045 1.337113,-0.5935894 1.866217,-0.1456489 0.698626,0.5922172 0.594722,1.5650494 0.0998,2.0720792 z"
     style="fill:currentColor;stroke-width:0.01370616"
     inkscape:connector-curvature="0" />
  <g
     id="g837"
     transform="translate(-0.62285827,13.718902)">
    <path
       style="color:#000000;font-style:normal;font-variant:normal;font-weight:normal;font-stretch:normal;font-size:medium;line-height:normal;font-family:sans-serif;font-variant-ligatures:normal;font-variant-position:normal;font-variant-caps:normal;font-variant-numeric:normal;font-variant-alternates:normal;font-feature-settings:normal;text-indent:0;text-align:start;text-decoration:none;text-decoration-line:none;text-decoration-style:solid;text-decoration-color:#000000;letter-spacing:normal;word-spacing:normal;text-transform:none;writing-mode:lr-tb;direction:ltr;text-orientation:mixed;dominant-baseline:auto;baseline-shift:baseline;text-anchor:start;white-space:normal;shape-padding:0;clip-rule:nonzero;display:inline;overflow:visible;visibility:visible;opacity:1;isolation:auto;mix-blend-mode:normal;color-interpolation:sRGB;color-interpolation-filters:linearRGB;solid-color:#000000;solid-opacity:1;vector-effect:none;fill:#e03e52;fill-opacity:1;fill-rule:nonzero;stroke:none;stroke-width:0.40000001;stroke-linecap:round;stroke-linejoin:round;stroke-miterlimit:4;stroke-dasharray:none;stroke-dashoffset:0;stroke-opacity:1;paint-order:fill markers stroke;color-rendering:auto;image-rendering:auto;shape-rendering:auto;text-rendering:auto;enable-background:accumulate"
       d="m 17.599609,-13.033203 c -3.270398,0 -5.925781,2.655383 -5.925781,5.9257811 10e-7,0.8098414 0.115757,1.5686942 0.417969,2.2832031 a 0.20042401,0.20042401 0 1 0 0.369141,-0.15625 c -0.277278,-0.6555572 -0.388671,-1.3556395 -0.388672,-2.1269531 0,-3.0542221 2.473121,-5.5253911 5.527343,-5.5253901 0.763557,0 1.489433,0.154032 2.150391,0.433593 0.330478,0.139781 0.643502,0.311144 0.9375,0.509766 a 0.20043315,0.20043315 0 1 0 0.224609,-0.332031 c -0.315236,-0.212971 -0.651305,-0.394959 -1.005859,-0.544922 -0.70911,-0.299929 -1.489041,-0.466796 -2.306641,-0.466797 z m 4.025391,1.675781 a 0.20002,0.20002 0 0 0 -0.119141,0.34375 c 1.000212,1.000211 1.619141,2.3791391 1.619141,3.9062501 0,3.0542215 -2.471169,5.5273438 -5.525391,5.5273438 -1.527111,0 -2.907992,-0.6189287 -3.908203,-1.6191407 a 0.20025483,0.20025483 0 1 0 -0.283203,0.2832032 c 1.072145,1.072146 2.556207,1.734375 4.191406,1.734375 3.270398,0 5.925782,-2.6553838 5.925782,-5.9257813 0,-1.6351989 -0.664182,-3.1173081 -1.736329,-4.1894531 A 0.20002,0.20002 0 0 0 21.625,-11.357422 Z"
       id="path858"
       inkscape:connector-curvature="0" />
    <path
       sodipodi:nodetypes="ccc"
       inkscape:connector-curvature="0"
       id="path827"
       d="M 12.276854,-4.9029515 10.31,-1.8579409 13.549954,-3.0581148"
       style="fill:none;stroke:#e03e52;stroke-width:0.40000001;stroke-linecap:round;stroke-linejoin:miter;stroke-miterlimit:4;stroke-dasharray:none;stroke-opacity:1" />
  </g>
  <path
     id="path2"
     d="m 19.085293,18.206541 c 0.109623,-0.185624 0.171625,-0.383624 0.171625,-0.622998 0,-0.55019 -0.465224,-1.069751 -1.072751,-1.069751 h -0.455998 c 0.0615,-0.160125 0.110624,-0.351627 0.110624,-0.581749 0,-0.909925 -0.471125,-1.309126 -1.190874,-1.309126 -0.770088,0 -0.726163,1.186664 -0.897003,1.357499 -0.284337,0.284337 -0.620187,0.830588 -0.859499,1.042501 h -1.2345 c -0.220913,0 -0.4,0.179087 -0.4,0.4 v 2.999998 c 0,0.220913 0.179087,0.4 0.4,0.4 h 0.8 c 0.186161,0 0.3426,-0.127173 0.387224,-0.299374 0.556365,0.01253 0.938252,0.49925 2.222528,0.49925 0.09025,0 0.190249,1.33e-4 0.27775,1.33e-4 0.96396,0 1.399823,-0.492789 1.411747,-1.191627 0.16649,-0.230311 0.253739,-0.539024 0.216753,-0.837374 0.123175,-0.230649 0.170799,-0.504285 0.112374,-0.787375 z m -0.771875,0.672876 c 0.156999,0.264125 0.01575,0.617625 -0.17425,0.719623 0.09625,0.609751 -0.220101,0.823753 -0.663999,0.823753 h -0.472753 c -0.895487,0 -1.47536,-0.472753 -2.145499,-0.472753 v -2.327124 h 0.136502 c 0.354497,0 0.849749,-0.886123 1.181748,-1.21825 0.3545,-0.354501 0.236374,-0.945376 0.472752,-1.181751 0.590875,0 0.590875,0.412253 0.590875,0.709128 0,0.489623 -0.3545,0.708998 -0.3545,1.18175 h 1.299873 c 0.263876,0 0.471625,0.236375 0.472749,0.47275 9.95e-4,0.236248 -0.160247,0.472623 -0.278373,0.472623 0.168611,0.181938 0.204636,0.565452 -0.06513,0.820251 z m -3.9565,1.143498 c 0,0.165688 -0.134313,0.300001 -0.300001,0.300001 -0.165687,0 -0.300001,-0.134313 -0.300001,-0.300001 0,-0.165687 0.134314,-0.299997 0.300001,-0.299997 0.165688,0 0.300001,0.13431 0.300001,0.299997 z"
     style="fill:currentColor;stroke:none;stroke-width:0.0125"
     inkscape:connector-curvature="0" />
  <path
     style="color:#000000;font-style:normal;font-variant:normal;font-weight:normal;font-stretch:normal;font-size:medium;line-height:normal;font-family:sans-serif;font-variant-ligatures:normal;font-variant-position:normal;font-variant-caps:normal;font-variant-numeric:normal;font-variant-alternates:normal;font-feature-settings:normal;text-indent:0;text-align:start;text-decoration:none;text-decoration-line:none;text-decoration-style:solid;text-decoration-color:#000000;letter-spacing:normal;word-spacing:normal;text-transform:none;writing-mode:lr-tb;direction:ltr;text-orientation:mixed;dominant-baseline:auto;baseline-shift:baseline;text-anchor:start;white-space:normal;shape-padding:0;clip-rule:nonzero;display:inline;overflow:visible;visibility:visible;opacity:1;isolation:auto;mix-blend-mode:normal;color-interpolation:sRGB;color-interpolation-filters:linearRGB;solid-color:#000000;solid-opacity:1;vector-effect:none;fill:#e03e52;fill-opacity:1;fill-rule:nonzero;stroke:none;stroke-width:0.40000001;stroke-linecap:round;stroke-linejoin:round;stroke-miterlimit:4;stroke-dasharray:none;stroke-dashoffset:0;stroke-opacity:1;paint-order:fill markers stroke;color-rendering:auto;image-rendering:auto;shape-rendering:auto;text-rendering:auto;enable-background:accumulate"
     d="m 16.087891,12.896484 c -2.876237,0 -5.212891,2.336653 -5.212891,5.212891 10e-7,0.711301 0.103043,1.376735 0.369141,2.005859 a 0.20004474,0.20004474 0 1 0 0.36914,-0.154296 c -0.241163,-0.570174 -0.337889,-1.17879 -0.33789,-1.851563 0,-2.660062 2.152439,-4.8125 4.8125,-4.8125 0.665016,10e-7 1.297474,0.133507 1.873047,0.376953 0.287785,0.121723 0.560377,0.272343 0.816406,0.445313 a 0.20043356,0.20043356 0 1 0 0.224609,-0.332032 C 18.724686,13.599791 18.42905,13.438547 18.117188,13.306641 17.493462,13.042827 16.80695,12.896485 16.087891,12.896484 Z m 3.521484,1.466797 a 0.20002,0.20002 0 0 0 -0.119141,0.341797 c 0.871059,0.871059 1.410157,2.074266 1.410157,3.404297 0,2.66006 -2.152439,4.8125 -4.8125,4.8125 -1.330031,0 -2.531286,-0.539097 -3.402344,-1.410156 a 0.20025476,0.20025476 0 1 0 -0.283203,0.283203 c 0.942992,0.942993 2.247428,1.52539 3.685547,1.52539 2.876237,0 5.210937,-2.334701 5.210937,-5.210937 0,-1.438119 -0.582398,-2.742554 -1.52539,-3.685547 a 0.20002,0.20002 0 0 0 -0.164063,-0.06055 z"
     id="path858-5"
     inkscape:connector-curvature="0" />
  <path
     style="fill:none;stroke:#e03e52;stroke-width:0.40000001;stroke-linecap:round;stroke-linejoin:miter;stroke-miterlimit:4;stroke-dasharray:none;stroke-opacity:1"
     d="m 11.428949,20.038019 -1.7216987,2.66547 2.8361157,-1.05058"
     id="path827-4"
     inkscape:connector-curvature="0"
     sodipodi:nodetypes="ccc" />
  <g
     id="g911"
     transform="translate(1.0008547,4.570665)">
    <path
       inkscape:connector-curvature="0"
       style="fill:currentColor;stroke:none;stroke-width:0.00993285"
       d="M 7.6173489,11.280151 C 7.5557907,11.091427 7.3501567,10.991109 7.1604389,11.052689 L 6.7094844,11.202676 6.4085242,10.308718 6.8594713,10.158738 C 7.0491891,10.09718 7.1485203,9.8925326 7.0879263,9.7028147 7.0263681,9.5140907 6.8207341,9.4137728 6.6310162,9.4753532 L 6.1800691,9.6253404 6.0241193,9.1584992 C 5.9625611,8.9697751 5.7569271,8.8694501 5.5672092,8.931038 5.3774913,8.9925961 5.2781601,9.1972363 5.3387541,9.3869542 L 5.4946966,9.8537955 4.5669702,10.1637 4.4110278,9.6968592 C 4.3494696,9.5081351 4.1438282,9.4078098 3.9541177,9.4693977 3.7643998,9.5309559 3.6650687,9.7355963 3.7256553,9.9253142 l 0.1559498,0.4668408 -0.4499606,0.148993 c -0.1897182,0.06156 -0.289042,0.266199 -0.2284554,0.455916 0.049692,0.144032 0.1897182,0.238394 0.3337421,0.244349 0.067566,0.0099 0.1192004,-0.01587 0.573129,-0.166867 l 0.3009676,0.893951 -0.4509545,0.149987 c -0.1887241,0.06156 -0.2890417,0.267192 -0.2284551,0.455916 0.049692,0.144032 0.1897179,0.238394 0.3337418,0.244349 0.067566,0.0099 0.119193,-0.01587 0.573129,-0.166867 l 0.1559424,0.466841 c 0.058592,0.167868 0.2453428,0.288055 0.4569101,0.227461 0.1897179,-0.06156 0.2890491,-0.266198 0.2284551,-0.455916 l -0.1559425,-0.466841 0.929714,-0.310899 0.1559425,0.466841 c 0.058592,0.167869 0.2453427,0.288056 0.4569175,0.227462 0.1897178,-0.06156 0.2890416,-0.266199 0.228455,-0.455917 L 6.9389332,11.884073 7.3898877,11.734087 c 0.1887241,-0.05963 0.2890417,-0.265212 0.2274612,-0.453936 z m -2.5239375,0.468836 -0.3009676,-0.895946 0.9287276,-0.310899 0.3009602,0.895946 z"
       id="path2-4" />
    <g
       transform="matrix(0.65651751,0,0,0.65651751,-6.1701792,15.778067)"
       id="g896">
      <path
         style="color:#000000;font-style:normal;font-variant:normal;font-weight:normal;font-stretch:normal;font-size:medium;line-height:normal;font-family:sans-serif;font-variant-ligatures:normal;font-variant-position:normal;font-variant-caps:normal;font-variant-numeric:normal;font-variant-alternates:normal;font-feature-settings:normal;text-indent:0;text-align:start;text-decoration:none;text-decoration-line:none;text-decoration-style:solid;text-decoration-color:#000000;letter-spacing:normal;word-spacing:normal;text-transform:none;writing-mode:lr-tb;direction:ltr;text-orientation:mixed;dominant-baseline:auto;baseline-shift:baseline;text-anchor:start;white-space:normal;shape-padding:0;clip-rule:nonzero;display:inline;overflow:visible;visibility:visible;opacity:1;isolation:auto;mix-blend-mode:normal;color-interpolation:sRGB;color-interpolation-filters:linearRGB;solid-color:#000000;solid-opacity:1;vector-effect:none;fill:#e03e52;fill-opacity:1;fill-rule:nonzero;stroke:none;stroke-width:0.60927546;stroke-linecap:round;stroke-linejoin:round;stroke-miterlimit:4;stroke-dasharray:none;stroke-dashoffset:0;stroke-opacity:1;paint-order:fill markers stroke;color-rendering:auto;image-rendering:auto;shape-rendering:auto;text-rendering:auto;enable-background:accumulate"
         d="m 17.599609,-13.136719 c -3.326948,0 -6.03125,2.702348 -6.03125,6.0292971 1e-6,0.8199201 0.119,1.5923353 0.427735,2.3222657 a 0.30466819,0.30466819 0 1 0 0.560547,-0.2363282 c -0.270755,-0.6401358 -0.378906,-1.3247025 -0.378907,-2.0859375 0,-2.9976721 2.424204,-5.4199221 5.421875,-5.4199221 0.749419,10e-7 1.461014,0.151548 2.109375,0.425782 0.32418,0.137116 0.631481,0.305131 0.919922,0.5 a 0.3052538,0.3052538 0 1 0 0.341797,-0.50586 c -0.320792,-0.216724 -0.664538,-0.404013 -1.025391,-0.55664 -0.721706,-0.305257 -1.513965,-0.472656 -2.345703,-0.472657 z m 4.044922,1.673828 a 0.30466819,0.30466819 0 0 0 -0.21289,0.523438 c 0.981394,0.9813933 1.58789,2.3331953 1.58789,3.8320311 0,2.9976711 -2.42225,5.421875 -5.419922,5.421875 -1.498835,0 -2.852591,-0.6064962 -3.833984,-1.5878906 a 0.30521614,0.30521614 0 1 0 -0.431641,0.4316406 c 1.090963,1.0909636 2.602151,1.765625 4.265625,1.765625 3.326949,0 6.029297,-2.704302 6.029297,-6.03125 0,-1.6634741 -0.674661,-3.1727091 -1.765625,-4.2636721 a 0.30466819,0.30466819 0 0 0 -0.21875,-0.0918 z"
         id="path858-8"
         inkscape:connector-curvature="0" />
      <path
         style="fill:none;stroke:#e03e52;stroke-width:0.60927546;stroke-linecap:round;stroke-linejoin:miter;stroke-miterlimit:4;stroke-dasharray:none;stroke-opacity:1"
         d="M 12.276854,-4.9029515 10.31,-1.8579409 13.549954,-3.0581148"
         id="path827-43"
         inkscape:connector-curvature="0"
         sodipodi:nodetypes="ccc" />
    </g>
  </g>
</svg>
